<svg id="Layer_1" data-name="Layer 1" xmlns="http://www.w3.org/2000/svg" width="659" height="270" viewBox="0 0 659 270"><defs><style>.cls-1{fill:#ffb4c0;}.cls-2{fill:#c97b5f;}.cls-3{fill:#e49e71;}.cls-4{fill:#644e3b;}</style></defs><title>assets</title><path class="cls-1" d="M40.76,177.84a35.15,35.15,0,0,1-5.66-3l-.19.26a38,38,0,0,1-3.57-3.1c-.15-.12-.28-.25-.42-.37-.52-.46-1-.93-1.53-1.42l.12-.12q-.68-.75-1.35-1.59c-3.47,8.61-3.24,16.5,1.34,20.09,5,3.88,13.56,1.65,21.64-4.86-2.3-1.5-4.49-3-6.56-4.57A33.48,33.48,0,0,1,40.76,177.84Z"/><path class="cls-2" d="M565.39,211c18.81,18.81,41.55,26.56,50.79,17.33,7.57-7.57,3.72-24.2-8.25-40.31-12.21,7.64-27.16,14.71-44.39,21.07C564.15,209.77,564.76,210.41,565.39,211Z"/><path class="cls-2" d="M55.7,228.43c9.23,9.24,32,1.48,50.78-17.32l.36-.37c-12.26-4.33-28-10-44.67-20.14C51.61,205.91,48.51,221.25,55.7,228.43Z"/><path class="cls-3" d="M642.31,111.29c20-23,9.58-97.73-2.06-107.87s-20.1,48.16-40.12,71.16q-2.89,3.33-5.42,6.75C539.08,52.54,442.63,33.51,333,33.51c-144.35,0-265.8,33-301.41,77.74a22.6,22.6,0,0,1,5.33.24c17.2,3.11,22.12,31.7,9.19,36.18-4.43,1.54-12.5.78-20.28-1.61a27.39,27.39,0,0,0,.09,4.32,29.57,29.57,0,0,0,8.94,17.82,30,30,0,0,0,7.93,4.87,30.62,30.62,0,0,0,15.16,2.11l.59,5.14a36.63,36.63,0,0,1-5.24.21,35.37,35.37,0,0,1-8.68-1.36c2.07,1.56,4.26,3.07,6.56,4.57q2.47,1.6,5.12,3.24c1.91,1.18,3.88,2.38,5.91,3.62,16.69,10.13,32.41,15.81,44.67,20.14q6,2.12,12.3,4.12c-16.16,21-22.28,42.58-13.53,50.19,9.57,8.33,33.31-3.28,53-25.94a125.5,125.5,0,0,0,9-11.65c47.93,10.09,104.59,15.92,165.31,15.92,61.56,0,119-6,167.31-16.35a123.67,123.67,0,0,0,11.49,13.21c21.24,21.24,45.73,31.18,54.7,22.21,8.13-8.12.74-29-16.5-48.61q7-2.28,13.58-4.71c17.23-6.36,32.18-13.43,44.39-21.07,23.61-14.77,37-31.67,37-49.61,0-7.67-2.45-15.15-7.09-22.35C639.36,114.56,640.85,113,642.31,111.29ZM122,111a7.52,7.52,0,1,1,7.51-7.51A7.51,7.51,0,0,1,122,111Zm98.68-40.45C217,105.33,210.37,137.05,202,159.9c-8.28,22.64-17.73,35.15-26.61,35.23h-.09c-18.17,0-38.1-50.76-47.43-120.81l0-.41,92.89-3.78Z"/><path class="cls-2" d="M127.88,74.32c9.33,70.05,29.26,120.81,47.43,120.81h.09c8.88-.08,18.33-12.59,26.61-35.23,8.36-22.85,15-54.57,18.66-89.33l.05-.44-92.89,3.78Z"/><circle class="cls-4" cx="121.99" cy="103.51" r="7.52"/><path class="cls-4" d="M29.39,170.22c.49.49,1,1,1.53,1.42.14.12.27.25.42.37a38,38,0,0,0,3.57,3.1l.19-.26a35.15,35.15,0,0,0,5.66,3,33.48,33.48,0,0,0,3.82,1.33,35.37,35.37,0,0,0,8.68,1.36,36.63,36.63,0,0,0,5.24-.21l-.59-5.14a30.62,30.62,0,0,1-15.16-2.11,30,30,0,0,1-7.93-4.87,29.57,29.57,0,0,1-8.94-17.82,27.39,27.39,0,0,1-.09-4.32c7.78,2.39,15.85,3.15,20.28,1.61,12.93-4.48,8-33.07-9.19-36.18a22.6,22.6,0,0,0-5.33-.24c-11,.7-24.92,8-26.06,16.69-.91,6.86,6.37,12.65,15.26,16.31a32.27,32.27,0,0,0,0,6.67,33.69,33.69,0,0,0,7.42,17.59q.68.84,1.35,1.59Z"/></svg>
