<svg id="Layer_1" data-name="Layer 1" xmlns="http://www.w3.org/2000/svg" width="1920" height="1080" viewBox="0 0 1920 1080"><defs><style>.cls-1{fill:#6fd9e2;}.cls-2{fill:#006837;}.cls-3{fill:#259400;}.cls-4{fill:#78e000;}</style></defs><title>assets</title><rect class="cls-1" x="3.99" y="2.44" width="1920" height="1080"/><path class="cls-2" d="M2027.57,348.53C1845.5,162.38,1510.71,259,1336.34,360.41,1048.18,527.94,890.43,794.24,984,955.22c32.42,55.75,97.88,33.17,691.23-11.88,267.37-20.3,343.64-23,402.53-90.84C2184.8,729.15,2156.45,480.31,2027.57,348.53Z"/><path class="cls-3" d="M808.48,150.61c193.91,120.57,173.92,441.7,119.73,620.52-89.56,295.53-288.36,496.85-444,449.67-53.93-16.34-46.86-80-119.73-620.51-32.83-243.58-44.89-312.35,2.27-380.37C452.41,96.31,671.22,65.27,808.48,150.61Z"/><path class="cls-4" d="M1559.59,535.9c-184.51-35.27-360-6.65-482.16,66.45C952,511.32,773.22,452.76,573.9,449.27c-384.75-6.75-700.27,194.21-704.74,448.85S173,1364.66,557.73,1371.41c226.5,4,429-64.05,558.19-172.62,81,55.39,181.67,97.74,294.18,119.25,315.25,60.25,604.27-66,645.55-282S1874.84,596.15,1559.59,535.9Z"/></svg>
