<svg id="Layer_1" data-name="Layer 1" xmlns="http://www.w3.org/2000/svg" width="100" height="120" viewBox="0 0 100 120"><defs><style>.cls-1{fill:#f6f2ea;}.cls-2{fill:#95754c;}.cls-3{fill:#f1de9c;}</style></defs><title>assets</title><path class="cls-1" d="M32.21,106.38c1.55-3,5.37-6.17,6-6.7,1.57-1.31,4.1-3.44,7.36-4.11,8-1.63,17.72,6.06,18.66,11a25.23,25.23,0,0,0,2.65-1.33A90.58,90.58,0,0,1,84.68,96.5c2.53-.89,4.77-1.52,6.74-.83C91.29,84.24,82.17,68.28,67.48,61c14.25-8.73,22.74-25.67,21.86-36.36A13.47,13.47,0,0,1,83.8,23.5,90.58,90.58,0,0,1,66,14.73c-13.73-7.88-32.47-1.86-38.27,0-9.16,2.94-15.28,7.42-19.29,7.69C4.6,33.38,14.24,54,31.56,62.59,17.81,71,9.38,87,9.61,97.61c4,.46,10.05,4.79,19,7.66C29.51,105.56,30.74,106,32.21,106.38Zm8.22-10.94a1.73,1.73,0,1,1,1.72-1.73A1.73,1.73,0,0,1,40.43,95.44Zm2.92-21.27a1.46,1.46,0,1,1,1.46-1.46A1.46,1.46,0,0,1,43.35,74.17Zm4.52-6.38a.93.93,0,0,1,0-1.86.93.93,0,0,1,0,1.86Zm6.38,18.34a2.26,2.26,0,1,1,2.26-2.26A2.26,2.26,0,0,1,54.25,86.13ZM19.18,36.52c5-11.49,55.75-4.63,57.67,6.39,1.05,6-12.35,14.28-14,15.32-3.1,1.91-8.12,5-14.05,5.32C32.64,64.42,15.75,44.45,19.18,36.52Z"/><path class="cls-2" d="M92.12,96a3.88,3.88,0,0,0-.7-.3c-2-.69-4.21-.06-6.74.83a90.58,90.58,0,0,0-17.81,8.77,25.23,25.23,0,0,1-2.65,1.33c-11.15,4.84-24.66,1.91-32-.22-1.47-.42-2.7-.82-3.61-1.11-8.94-2.87-15-7.2-19-7.66a3.92,3.92,0,0,0-3.07.75c-1.95,1.57-2.27,5-1.6,7.44,3.36,12.31,34.85,13.52,42.79,13.82,5.51.21,44,1.69,48.11-11.69C97,104.05,95.64,97.85,92.12,96Z"/><path class="cls-2" d="M66,14.73A90.58,90.58,0,0,0,83.8,23.5a13.47,13.47,0,0,0,5.54,1.09,4.79,4.79,0,0,0,1.9-.56c3.52-1.88,4.91-8.08,3.72-12C90.88-1.31,52.36.17,46.86.38c-8,.3-39.44,1.51-42.8,13.82-.67,2.46-.35,5.87,1.6,7.44a3.82,3.82,0,0,0,2.77.78c4-.27,10.13-4.75,19.29-7.69C33.52,12.87,52.26,6.85,66,14.73Z"/><path class="cls-3" d="M48.76,63.55c5.93-.32,11-3.41,14.05-5.32,1.69-1,15.09-9.29,14-15.32-1.92-11-52.69-17.88-57.67-6.39C15.75,44.45,32.64,64.42,48.76,63.55Z"/><path class="cls-3" d="M45.56,95.57c-3.26.67-5.79,2.8-7.36,4.11-.62.53-4.44,3.74-6,6.7,7.35,2.13,20.86,5.06,32,.22C63.28,101.63,53.55,93.94,45.56,95.57Z"/><circle class="cls-3" cx="47.87" cy="66.86" r="0.93"/><circle class="cls-3" cx="43.35" cy="72.71" r="1.46"/><circle class="cls-3" cx="54.25" cy="83.87" r="2.26"/><circle class="cls-3" cx="40.43" cy="93.71" r="1.73"/></svg>
