<svg id="Layer_1" data-name="Layer 1" xmlns="http://www.w3.org/2000/svg" width="920" height="700" viewBox="0 0 920 700"><defs><style>.cls-1{fill:none;}.cls-2{fill:#f3c66e;}.cls-3{fill:#f1de9c;}.cls-4{fill:#ffb4c0;}.cls-5{fill:#644e3b;}</style></defs><title>assets</title><path class="cls-1" d="M46.38,357.44c.12,1.14.29,2.24.49,3.32-.18-3.34-.28-6.66-.27-10l-.38-.11A41.88,41.88,0,0,0,46.38,357.44Z"/><path class="cls-2" d="M838.29,474.12c-36.89-29.17-60.09-52.21-75.4-67A233.32,233.32,0,0,1,739,455.38c8.1,21,21.47,42.94,41.07,59.54,51.79,43.89,132.92,38.31,137.91,22.73C920.93,528.28,895.19,519.1,838.29,474.12Z"/><path class="cls-2" d="M153.69,641.51c17,5.08,44.66-36,64.8-94.42-32.82-.84-53.49-4.61-69.4-11.67C136.12,591.51,137.45,636.68,153.69,641.51Z"/><path class="cls-3" d="M767.44,232.83c40.15,5,62.25-8.06,71.09-14.53C910.14,166,858.44,4.58,839.76,4.44c-12.4-.09-6.28,70.83-62.06,133.51a211.19,211.19,0,0,1-49,40.47c-39.26-25.66-95.08,4.9-286.63,9.29-170.6,3.91-272.41-17-350.29,58.56-18,17.5-28.53,34.1-34.95,49.8a32.61,32.61,0,0,1,6.74.44c26.9,4.86,34.58,49.67,14.36,56.69-6.84,2.38-19.26,1.25-31.32-2.42,0,3.32.09,6.64.27,10a47,47,0,0,0,13.45,24.57A42.82,42.82,0,0,1,72.68,393l.06,0a47.7,47.7,0,0,0,23.7,3.31l.92,8a55.64,55.64,0,0,1-8.19.34,56.81,56.81,0,0,1-9.83-1.19,10.79,10.79,0,0,1,.18,2c-.12,7-7.81,14.37-18.28,20.45,13.74,36.17,35.85,69,60.7,91.3,8.38,7.52,16.75,13.53,27.15,18.14,15.91,7.06,36.58,10.83,69.4,11.67,6.66.17,13.82.22,21.53.15q-1,3.36-2,6.78c-21,71.92-22,135.08-2.26,141.08s52.69-47.44,73.66-119.35c3.14-10.81,5.84-21.41,8.09-31.65,31.91-2,69.69-4.79,114.73-8.43C577,524,643.64,516.25,680.47,503.71c3.54,25.25,13.1,53.85,31.71,77.08C766.12,648.15,875.65,644.93,881,629c3.62-10.74-42.13-22.31-101.24-80.25A439.24,439.24,0,0,1,721.46,478c1.28-1.39,2.54-2.81,3.79-4.29A185.4,185.4,0,0,0,739,455.38a233.32,233.32,0,0,0,23.94-48.3C783.67,350,786,282.74,767.44,232.83ZM209.56,282.06A13.59,13.59,0,1,1,196,295.65,13.59,13.59,0,0,1,209.56,282.06Zm80.71,102.09c-28.17-.72-56.59-67.43-67.13-159.37l146.89.77C352.58,318.93,318.6,384.86,290.27,384.15Z"/><path class="cls-2" d="M290.27,384.15c28.33.71,62.31-65.22,79.76-158.6l-146.89-.77C233.68,316.72,262.1,383.43,290.27,384.15Z"/><path class="cls-4" d="M72.68,393a42.82,42.82,0,0,0-12.36-7.64l0,0A46.71,46.71,0,0,0,72.68,393Z"/><path class="cls-4" d="M79.52,405.53a10.79,10.79,0,0,0-.18-2q-1.84-.39-3.75-.93a55.8,55.8,0,0,1-6-2.09,54.26,54.26,0,0,1-8.85-4.7l-.31.41a59.51,59.51,0,0,1-5.58-4.85l-.66-.58c-.81-.72-1.61-1.45-2.39-2.23l.19-.19A60.91,60.91,0,0,1,47.12,382a38.6,38.6,0,0,0-9.36.2C8.36,386.5-3.88,425.46,4.34,435.43c7.34,8.92,37.1,2.05,56.9-9.45C71.71,419.9,79.4,412.54,79.52,405.53Z"/><circle class="cls-5" cx="209.56" cy="295.65" r="13.59"/><path class="cls-5" d="M52,388.34l-.19.19c.78.78,1.58,1.51,2.39,2.23l.66.58a59.51,59.51,0,0,0,5.58,4.85l.31-.41a54.26,54.26,0,0,0,8.85,4.7,55.8,55.8,0,0,0,6,2.09q1.91.54,3.75.93a56.81,56.81,0,0,0,9.83,1.19,55.64,55.64,0,0,0,8.19-.34l-.92-8A47.7,47.7,0,0,1,72.74,393l-.06,0a46.71,46.71,0,0,1-12.33-7.61l0,0a47,47,0,0,1-13.45-24.57c-.2-1.08-.37-2.18-.49-3.32a41.88,41.88,0,0,1-.16-6.77l.38.11c12.06,3.67,24.48,4.8,31.32,2.42,20.22-7,12.54-51.83-14.36-56.69a32.61,32.61,0,0,0-6.74-.44c-.53,0-1,0-1.59.06C38,297.23,16.29,308.64,14.5,322.28c-1.42,10.74,10,19.82,23.85,25.56a50.52,50.52,0,0,0,0,10.44A51.8,51.8,0,0,0,47.12,382,60.91,60.91,0,0,0,52,388.34Z"/></svg>
