<svg id="Layer_1" data-name="Layer 1" xmlns="http://www.w3.org/2000/svg" width="1110" height="938.15" viewBox="0 0 1110 938.15"><defs><style>.cls-1{fill:#f3c66e;}.cls-2{fill:#c32c00;}.cls-3{fill:#f6f2ea;}.cls-4{fill:#593f1f;}.cls-5{fill:#c97b5f;}.cls-6{fill:#ffeb38;}.cls-7{fill:#ffbb3e;}</style></defs><title>assets</title><path class="cls-1" d="M938,240.94C830.4,164.5,800.87,128.56,782.42,139.78c-7.72,4.7-12.12,16.81-13,33.16,0-.06-.11-.1-.16-.16.9,9.06-.47,16.81-5.07,22.15-13.49,15.69-49.11,4.18-73-2-54.35-14.05-136.58-23.4-254,2-12.45,3.9-87.73,26.84-104,2-5.06-7.72-3.52-18.7,1.61-30.82a20.56,20.56,0,0,0-7.19-8.1c-18.45-11.22-48,24.72-155.61,101.17C43,350.82-3.77,362.5.69,379.87c7.43,28.94,151,50.87,247.4-11.72-2.5,61.13,12,126.86,52.07,171.78,38.47,43.15,95.74,61.74,113,128,1.06,4.07,1.89,8,2.54,11.91,19.8-1.44,43.66,4.84,57.46,8.09,108.29,25.53,275.28,23.66,335,2,1.43-.52,3.56-1.32,6.13-2.11-1.38-8.67-2.45-17.64-3.13-26.89-6.4-86.45,41.22-113.16,57-189,7.49-36,6.62-77.49-2.3-119.51,96.33,59.49,236.12,37.77,243.45,9.22C1113.77,344.27,1067.05,332.59,938,240.94Zm-557.37,139a25.5,25.5,0,1,1,25.5-25.5A25.49,25.49,0,0,1,380.66,379.93ZM738.23,575.68c2,37.46-32.24,62.27-37,65.69-7.67,5.55-20.28,12.84-92.11,17.5l-7.25.45c-72.64,4.3-84.62-.85-92.61-5.59-21.19-12.58-43.7-39.68-41-71.11a60.38,60.38,0,0,1,9.49-27.49,117.17,117.17,0,0,1-28.29-41.3l9.26-3.79a107.85,107.85,0,0,0,24.95,37.07c14.92,14.25,32.94,22.25,50,20.84,16.85-1.39,34.33-12.57,46.75-29.89a96,96,0,0,0,13.74-28,103,103,0,0,0,4.26-23.5q0-3.49.22-7c0-.58,0-1.15,0-1.73-32.57-1.71-63.94-12.16-69.55-28.91-9.06-27,40.89-94.32,95-80,39.49,10.45,64,59.83,52,84-8.55,17.29-37.36,25-67.31,25.16-.05.59-.1,1.18-.14,1.77,0,2.33-.07,4.66-.21,7A106,106,0,0,0,611,509.65a96.9,96.9,0,0,0,15.75,35.64c12.41,17.33,29.89,28.5,46.75,29.89,19.5,1.62,40.27-9.09,56.21-27.36a109.93,109.93,0,0,0,18.75-30.55l9.25,3.79a118.22,118.22,0,0,1-23.36,36.42A60,60,0,0,1,738.23,575.68Zm31.43-226.75a25.5,25.5,0,1,1,25.5-25.5A25.49,25.49,0,0,1,769.66,348.93Z"/><path class="cls-1" d="M683.16,796.93a64,64,0,0,1-128,0,64.71,64.71,0,0,1,1.52-13.87c-52.9-1.94-105.41-4-150.52-3.13-1.06,0-2.46.05-4.09,0-27.54,63.34-82.18,89.28-75.91,115,18.91,77.49,565,40.87,570-32,.61-8.93-7.39-11.37-25-34,0,0-19.35-24.86-36.23-66.86-29.31,18-86.12,23.37-152.75,23.79A64.1,64.1,0,0,1,683.16,796.93Z"/><path class="cls-2" d="M602.49,517.06a105.37,105.37,0,0,1-13.86,26.82c-14.32,20-34,32.38-54.06,34-1.53.12-3.07.18-4.61.18-18.06,0-36.63-8.56-52.14-23a60.38,60.38,0,0,0-9.49,27.49c-2.73,31.43,19.78,58.53,41,71.11,8,4.74,20,9.89,92.61,5.59l7.25-.45V535.08A108.74,108.74,0,0,1,602.49,517.06Z"/><path class="cls-3" d="M677.26,585.34c-1.55,0-3.08-.07-4.61-.19-20-1.66-39.75-14.06-54.06-34a104.19,104.19,0,0,1-9.43-16V658.87c71.83-4.66,84.44-12,92.11-17.5,4.72-3.42,39-28.23,37-65.69a60,60,0,0,0-3.91-18.2C717.91,574.82,697.26,585.34,677.26,585.34Z"/><path class="cls-4" d="M748.43,517.27a109.93,109.93,0,0,1-18.75,30.55c-15.94,18.27-36.71,29-56.21,27.36-16.86-1.39-34.34-12.56-46.75-29.89A96.9,96.9,0,0,1,611,509.65a106,106,0,0,1-2.47-22.82c.14-2.31.21-4.64.21-7,0-.59.09-1.18.14-1.77,29.95-.13,58.76-7.87,67.31-25.16,12-24.17-12.51-73.55-52-84-54.11-14.32-104.06,53-95,80,5.61,16.75,37,27.2,69.55,28.91,0,.58,0,1.15,0,1.73q-.22,3.53-.22,7a103,103,0,0,1-4.26,23.5,96,96,0,0,1-13.74,28c-12.42,17.32-29.9,28.5-46.75,29.89-17.07,1.41-35.09-6.59-50-20.84A107.85,107.85,0,0,1,458.79,510l-9.26,3.79a117.17,117.17,0,0,0,28.29,41.3c15.51,14.41,34.08,23,52.14,23,1.54,0,3.08-.06,4.61-.18,20-1.66,39.74-14.06,54.06-34a105.37,105.37,0,0,0,13.86-26.82,108.74,108.74,0,0,0,6.67,18,104.19,104.19,0,0,0,9.43,16c14.31,20,34,32.37,54.06,34,1.53.12,3.06.19,4.61.19,20,0,40.65-10.52,57.06-27.86a118.22,118.22,0,0,0,23.36-36.42Z"/><path class="cls-5" d="M473.16,687.93c-13.8-3.25-37.66-9.53-57.46-8.09-10.84.79-20.47,3.89-26.54,11.09-3.23,3.83-5.82,12.89-11,31-7.42,25.94-11,39.07-6,47,6.17,9.76,21.3,11,29.91,11,1.63,0,3,0,4.09,0,45.11-.88,97.62,1.19,150.52,3.13a64,64,0,0,1,125.5,2.8c66.63-.42,123.44-5.75,152.75-23.79,10.67-6.57,17.71-14.82,20.23-25.14,3.27-13.38,1.1-39-13-48-8.85-5.65-20.29-3.45-27.87-1.11-2.57.79-4.7,1.59-6.13,2.11C748.44,711.59,581.45,713.46,473.16,687.93Z"/><path class="cls-6" d="M619.16,860.93a64,64,0,1,0-62.48-77.87,64.71,64.71,0,0,0-1.52,13.87A64,64,0,0,0,619.16,860.93Zm-15.11-95c3.46-5.29,12.63-7.75,17.12-4.61,7.27,5.1-.91,21,6.58,27s19.94-5.88,27.66,0c6.56,5,6.37,20.28,0,25-6.75,5-19-2.86-21.73,1.32-2.12,3.21,4.67,8.45,2.63,13.17-2.34,5.4-15.27,7.85-21.73,2.63-6.23-5-2.07-13.7-7.9-17.78-6.86-4.8-16.26,4.66-23,0-5.79-4-6.9-16.27-2-21.07,5.94-5.78,17.84,2.12,22.39-3.29C608.44,783.1,599.2,773.36,604.05,765.93Z"/><circle class="cls-4" cx="380.66" cy="354.43" r="25.5"/><circle class="cls-4" cx="769.66" cy="323.43" r="25.5"/><path class="cls-3" d="M333.16,196.93c16.27,24.84,91.55,1.9,104-2,117.42-25.4,199.65-16.05,254-2,23.89,6.18,59.51,17.69,73,2,4.6-5.34,6-13.09,5.07-22.15-2.47-24.89-22.1-59.69-39.07-81.85-8.39-10.94-79.8-101-189-90-67.39,6.8-108.84,48-144,83-5.56,5.53-48,48.31-62.39,82.18C329.64,178.23,328.1,189.21,333.16,196.93Zm215-120c6.67-7.93-7.37-22.72,0-34,5.25-8,19.19-11.77,26-7,11,7.74-1.38,31.95,10,41,11.14,8.86,30.28-8.94,42,0,10,7.6,9.67,30.79,0,38-10.26,7.65-28.8-4.35-33,2-3.22,4.87,7.1,12.84,4,20-3.55,8.2-23.2,11.92-33,4-9.47-7.64-3.15-20.8-12-27-10.42-7.29-24.69,7.07-35,0-8.79-6-10.48-24.72-3-32C523.17,73.15,541.25,85.15,548.16,76.93Z"/><path class="cls-2" d="M517.16,113.93c10.31,7.07,24.58-7.29,35,0,8.85,6.2,2.53,19.36,12,27,9.8,7.92,29.45,4.2,33-4,3.1-7.16-7.22-15.13-4-20,4.2-6.35,22.74,5.65,33-2,9.67-7.21,10-30.4,0-38-11.72-8.94-30.86,8.86-42,0-11.38-9.05,1-33.26-10-41-6.81-4.77-20.75-1-26,7-7.37,11.28,6.67,26.07,0,34-6.91,8.22-25-3.78-34,5C506.68,89.21,508.37,107.91,517.16,113.93Z"/><path class="cls-7" d="M604.05,788.32c-4.55,5.41-16.45-2.49-22.39,3.29-4.92,4.8-3.81,17.11,2,21.07,6.78,4.66,16.18-4.8,23,0,5.83,4.08,1.67,12.75,7.9,17.78,6.46,5.22,19.39,2.77,21.73-2.63,2-4.72-4.75-10-2.63-13.17,2.76-4.18,15,3.72,21.73-1.32,6.37-4.74,6.56-20,0-25-7.72-5.88-20.32,5.83-27.66,0s.69-21.9-6.58-27c-4.49-3.14-13.66-.68-17.12,4.61C599.2,773.36,608.44,783.1,604.05,788.32Z"/></svg>
