<svg id="Layer_1" data-name="Layer 1" xmlns="http://www.w3.org/2000/svg" width="280" height="260" viewBox="0 0 280 260"><defs><style>.cls-1{fill:none;}.cls-2{fill:#259400;}.cls-3{fill:#95754c;}.cls-4{fill:#c69c6d;}.cls-5{fill:#f6f2ea;}.cls-6{fill:#a67c52;}.cls-7{fill:#8c6239;}.cls-8{fill:#b9b5b0;}.cls-9{fill:#5c5546;}.cls-10{fill:#50bf00;}</style></defs><title>assets</title><path class="cls-1" d="M106,197.24c-1.16,2.51-1.78,3.9-1.92,4.36-3.06,10,3.28,23.87,10,29.72a18.11,18.11,0,0,0,3.84-9,22.33,22.33,0,0,0-.4-7.87c-1.75-.35-3-.75-3.13-1.65-.08-.72.62-1.68,1.79-2.62A30.79,30.79,0,0,0,114,205.8,27.76,27.76,0,0,0,106,197.24Z"/><path class="cls-1" d="M154,222.31c3.46.64,9.71-15.48,9.8-23.51,0-.52,0-1,0-1.55-5.54,3.29-10.06,9.36-12.86,15.85C151.22,218.09,152.44,222,154,222.31Z"/><path class="cls-1" d="M177.55,219c1.12-1.56,4.41-6.71,2.24-22.95-.12-.9-.25-1.79-.39-2.66-1.08,1.18-5.64.55-10.48,1.8,1.69,4.42,2.78,9.81,1.63,15.13A25.34,25.34,0,0,1,164,222a14.76,14.76,0,0,1,6.9,2.81A20.66,20.66,0,0,0,177.55,219Z"/><path class="cls-1" d="M160.76,226.78a2.16,2.16,0,0,0,1.68.6,14,14,0,0,1-1-2.56C160.74,225.67,160.43,226.31,160.76,226.78Z"/><path class="cls-2" d="M162.72,185.09c-.23.08.2,1.27.61,4.53a12.9,12.9,0,0,1,2.13-1.31C164.11,186.21,163,185,162.72,185.09Z"/><path class="cls-2" d="M170.87,166.31a5.38,5.38,0,0,0-.32-.53S170.66,166,170.87,166.31Z"/><path class="cls-2" d="M179.61,192.92a.8.8,0,0,1-.21.42c.14.87.27,1.76.39,2.66,2.17,16.24-1.12,21.39-2.24,22.95a20.66,20.66,0,0,1-6.66,5.84,17.61,17.61,0,0,1,3.41,3.11,18.51,18.51,0,0,1,2.67,4.45,25.21,25.21,0,0,0,5.06-6.13c12.71-21.59-8.33-55.33-11.16-59.91a89.14,89.14,0,0,1,8.19,25.1A2,2,0,0,1,179.61,192.92Z"/><path class="cls-2" d="M151.37,205.28c.12-.77.26-1.53.43-2.28,1.58-6.89,4.74-9.82,3.36-11.48-.83-1-3-1.2-5.54-.69v17.36C150.19,207.23,150.77,206.26,151.37,205.28Z"/><path class="cls-2" d="M114,205.8a30.79,30.79,0,0,1,2.17,4.37,17.28,17.28,0,0,1,6.7-3.09v-5a37.65,37.65,0,0,0-15.84-7.18L106,197.24A27.76,27.76,0,0,1,114,205.8Z"/><path class="cls-2" d="M168.92,195.14a19.66,19.66,0,0,0-1.9.58,20.26,20.26,0,0,0-3.19,1.53c0,.51,0,1,0,1.55-.09,8-6.34,24.15-9.8,23.51-1.6-.3-2.82-4.22-3.07-9.21-.51,1.18-1,2.36-1.35,3.55v17.82a9,9,0,0,0,.89,1.27c3.88,4.59,12.68,5.14,14.83,2.24,1.79-2.41-1.15-7-2.9-10.6a2.16,2.16,0,0,1-1.68-.6c-.33-.47,0-1.11.67-2a2.28,2.28,0,0,1,.28-2.23A2.86,2.86,0,0,1,164,222a25.34,25.34,0,0,0,6.56-11.71C171.7,205,170.61,199.56,168.92,195.14Z"/><path class="cls-2" d="M117.94,222.31a18.11,18.11,0,0,1-3.84,9c2.22,1.91,4.48,3,6.47,2.74a5.74,5.74,0,0,0,2.33-.85V215.55c-1.84-.53-3.79-.8-5.36-1.11A22.33,22.33,0,0,1,117.94,222.31Z"/><path class="cls-3" d="M128.84,127.8c-.77,13.52.15,22.06-.29,22.49-.63.6-3.52-15.07-2.21-29.07.06-.56.12-1.1.18-1.64l-3.62,0v87.52a14.64,14.64,0,0,1,3.22-.35,93.71,93.71,0,0,1,.16-13.58c1-10.81,4.19-17,4.7-15.35.44,1.43-1.41,8.13-2.2,21.93-.15,2.63-.24,5.07-.28,7.3a8.24,8.24,0,0,1,1.86.72c5.89,3.19,5.69,13.09,5.6,17.63-.15,7.64-2.64,13-2.24,13.16s3.05-6.11,7.66-15.22c0-.53,0-1.06,0-1.61,0-8.2.52-14.85,1.16-14.85s1,5.19,1.13,12c1.77-3.35,3.76-7,6-10.71V119.72l-20.13-.12C129.25,122,129,124.72,128.84,127.8Zm10.1,8.42c.51-1.64,3.69,4.55,4.7,15.36,1.31,14-1.58,29.67-2.2,29.06-.45-.43.48-9-.3-22.48C140.36,144.35,138.5,137.66,138.94,136.22Zm-5.32,14.22c1.37,0,2.48,2.73,2.48,6.1s-1.11,6.11-2.48,6.11-2.47-2.73-2.47-6.11S132.25,150.44,133.62,150.44Z"/><path class="cls-3" d="M149.62,234.47V216.65C147.4,223.45,147.14,230.25,149.62,234.47Z"/><path class="cls-3" d="M128.61,220.75a3.73,3.73,0,0,1-.13,1.47c-.2.2-.66-1.41-1.14-4.17a9.07,9.07,0,0,0-4.44-2.5v17.66C126.56,231,129.39,225,128.61,220.75Z"/><path class="cls-3" d="M143.49,31.59c-.79-13.81-2.64-20.5-2.2-21.94C141.79,8,145,14.2,146,25c.21,2.28.31,4.61.33,6.9h3.3V12.6a8,8,0,0,0-8-8H130.9a8,8,0,0,0-8,8V31.89l20.61,0C143.5,31.8,143.5,31.7,143.49,31.59Zm-9.87-5.22c-1.37,0-2.47-3.76-2.47-8.41s1.1-8.41,2.47-8.41,2.48,3.76,2.48,8.41S135,26.37,133.62,26.37Z"/><path class="cls-4" d="M141.44,180.64c.62.61,3.51-15.07,2.2-29.06-1-10.81-4.19-17-4.7-15.36-.44,1.44,1.42,8.13,2.2,21.94C141.92,171.67,141,180.21,141.44,180.64Z"/><path class="cls-4" d="M128.48,222.22a3.73,3.73,0,0,0,.13-1.47,6.27,6.27,0,0,0-.48-1.52,5.07,5.07,0,0,0-.79-1.18C127.82,220.81,128.28,222.42,128.48,222.22Z"/><path class="cls-4" d="M128.78,199.73c.79-13.8,2.64-20.5,2.2-21.93-.51-1.64-3.68,4.54-4.7,15.35a93.71,93.71,0,0,0-.16,13.58,10.48,10.48,0,0,1,2.38.3C128.54,204.8,128.63,202.36,128.78,199.73Z"/><ellipse class="cls-4" cx="133.62" cy="17.96" rx="2.47" ry="8.41"/><path class="cls-4" d="M133.62,162.65c1.37,0,2.48-2.73,2.48-6.11s-1.11-6.1-2.48-6.1-2.47,2.73-2.47,6.1S132.25,162.65,133.62,162.65Z"/><path class="cls-4" d="M142.53,206.86c-.64,0-1.16,6.65-1.16,14.85,0,.55,0,1.08,0,1.61.71-1.41,1.48-2.88,2.28-4.42C143.56,212.05,143.09,206.86,142.53,206.86Z"/><path class="cls-4" d="M270,47.63c4.74-2.82,6.29-4.07,7-6.19,1.26-3.77-1-7.81-2-9.4l-125.41-.13h-3.3c0-2.29-.12-4.62-.33-6.9-1-10.81-4.2-17-4.7-15.36-.44,1.44,1.41,8.13,2.2,21.94,0,.11,0,.21,0,.32l-20.61,0L19.16,31.78c11.12,3,13.48,5.07,13.4,6.42-.13,2.31-7.3,1.93-11.41,7C18,49.16,17.82,54.84,18.56,60l34.77,0a14.49,14.49,0,0,0-2-8.3,14.46,14.46,0,0,0-7-5.56,1.51,1.51,0,0,1-1.3.76,1.5,1.5,0,0,1-1.5-1.5,1.64,1.64,0,0,1,.08-.5.25.25,0,0,1-.08-.2c0-.19.22-.37.65-.54a1.48,1.48,0,0,1,.83-.26c7.38-1.89,41.3-2.61,79.89-2.64h7.71l.49-.12c.75-.18,1.53-.35,2.32-.51l1-.2a55.06,55.06,0,0,1,9.39-.89c.79,0,1.56,0,2.32,0,1.2,0,2.38.12,3.52.23a58.45,58.45,0,0,1,9.21,1.62c39.67.34,77.3,1.23,90.54,2.18a1.51,1.51,0,0,1,1.11-.49,1.49,1.49,0,0,1,1.27.69c1.72.17,2.64.34,2.64.51s-.93.16-2.41.31a1.5,1.5,0,0,1-2.92.45A20,20,0,0,0,241,48.71c-4.08,3.12-6.34,7.51-7.74,11.48l27.61,0a67.53,67.53,0,0,0-9.64,3.2l23.79,0c.95-2.87,1.44-6,0-7.9-3.62-4.93-17.3.67-17.6-.45C257.22,54.41,262.33,52.21,270,47.63ZM50.26,40.25c-4.75,0-8.6-.59-8.6-1.29s3.85-1.28,8.61-1.28,8.6.59,8.6,1.29S55,40.25,50.26,40.25Zm89.28-3a2.48,2.48,0,1,1-.45-3.47A2.48,2.48,0,0,1,139.54,37.29Z"/><path class="cls-3" d="M51.89,87.75c0-2.55-.08-5.63,0-9.47a55.43,55.43,0,0,1-11.07-.91,56.33,56.33,0,0,1-13.4-4.29l24.69.49c.17-2.64.41-5.57.78-8.86.16-1.49.36-3.08.4-4.7L18.56,60H5c-1,1.59-3.27,5.62-2,9.39.71,2.12,2.26,3.37,7,6.21,7.68,4.59,12.79,6.8,12.6,7.48-.3,1.12-14-4.51-17.6.41-1.44,1.94-1,5,0,7.91h7.39a17.69,17.69,0,0,1,.88-3.84Z"/><path class="cls-3" d="M233.24,60.19c-.74,2.11-1.25,4.1-1.66,5.72-1.47,5.8-1.35,10.2-1.2,16,.07,2.53.11,4.8.21,6.87l30.73.18c.83-5.27.78-11.22-2.48-15.29-4.11-5.12-11.27-4.76-11.4-7.06,0-.81.77-1.86,3.77-3.2a67.53,67.53,0,0,1,9.64-3.2Z"/><path class="cls-4" d="M234.38,102.72a21.67,21.67,0,0,0,10.6,7.11,1.48,1.48,0,0,1,.9-.31,1.51,1.51,0,0,1,1.47,1.18c.41.2.64.4.63.63s-.38.55-1.09.8a1.46,1.46,0,0,1-1,.4,1.33,1.33,0,0,1-.28,0c-10.25,2.37-52.09,3.19-96,2.85l-8-.08h-.38l-2.74,0h0a2.47,2.47,0,1,1-4.6,1.81,2.42,2.42,0,0,1,0-1.87l-4-.06-2.79-.05L122.9,115l-2.33,0a34.23,34.23,0,0,1-7.47.65c-3.95,0-7.3-.43-8.51-1-30.25-.8-56.21-2.16-66.7-3.93a1.53,1.53,0,0,1-.87.28,1.49,1.49,0,0,1-1.25-.69c-1.85-.42-2.84-.86-2.85-1.32,0-1.44,9.75-.33,16-7.8a12.76,12.76,0,0,0,1.67-2.49,56.7,56.7,0,0,1-12-4l13.06.26a51.37,51.37,0,0,0,.19-7.14l-38.67-.23a17.69,17.69,0,0,0-.88,3.84,5.87,5.87,0,0,0,.84,4.06c3.6,5,17.3-.59,17.6.53.18.69-4.94,2.87-12.64,7.41-4.75,2.8-6.32,4-7,6.15-1.28,3.76,1,7.81,2,9.41l109.84.64,3.62,0c-.06.54-.12,1.08-.18,1.64-1.31,14,1.58,29.67,2.21,29.07.44-.43-.48-9,.29-22.49.18-3.08.41-5.81.65-8.2l20.13.12,119.3.69c-11.1-3.06-13.45-5.13-13.37-6.48.14-2.31,7.31-1.9,11.44-7,3.86-4.75,3.32-12.11,2.1-17.93l-7.77,0-30.73-.18C230.88,94.83,231.58,99.08,234.38,102.72Z"/><path class="cls-3" d="M50.27,37.68c-4.76,0-8.61.57-8.61,1.28s3.85,1.28,8.6,1.29,8.61-.57,8.61-1.28S55,37.69,50.27,37.68Z"/><path class="cls-3" d="M133.32,41.28l10.49,0,2.16,0,3.65,0,9.21.07a58.45,58.45,0,0,0-9.21-1.62c-1.14-.11-2.32-.19-3.52-.23-.76,0-1.53,0-2.32,0a55.06,55.06,0,0,0-9.39.89l-1,.2c-.79.16-1.57.33-2.32.51l-.49.12h2.71Z"/><path class="cls-3" d="M38.64,94.63a56.7,56.7,0,0,0,12,4,11.59,11.59,0,0,0,1.1-3.74Z"/><path class="cls-3" d="M113.1,115.6a34.23,34.23,0,0,0,7.47-.65c-5.42-.1-10.76-.23-16-.37C105.8,115.17,109.15,115.6,113.1,115.6Z"/><path class="cls-4" d="M27.46,73.08a56.33,56.33,0,0,0,13.4,4.29,55.43,55.43,0,0,0,11.07.91c0-1.46.12-3,.22-4.71Z"/><path class="cls-5" d="M42.18,44.17c-.43.17-.65.35-.65.54a.25.25,0,0,0,.08.2A1.55,1.55,0,0,1,42.18,44.17Z"/><path class="cls-5" d="M252,44.62c1.48-.15,2.4-.15,2.41-.31s-.92-.34-2.64-.51a1.48,1.48,0,0,1,.23.81Z"/><path class="cls-5" d="M52.15,73.57c-.1,1.69-.17,3.25-.22,4.71-.12,3.84-.08,6.92,0,9.47a51.37,51.37,0,0,1-.19,7.14,11.59,11.59,0,0,1-1.1,3.74,12.76,12.76,0,0,1-1.67,2.49c-6.26,7.47-16,6.36-16,7.8,0,.46,1,.9,2.85,1.32a1.42,1.42,0,0,1-.25-.82,1.5,1.5,0,1,1,2.37,1.23c10.49,1.77,36.45,3.13,66.7,3.93,5.22.14,10.56.27,16,.37l2.33,0,4.32.07,2.79.05,4,.06,4.57.06,2.74,0h.38l8,.08c43.89.34,85.73-.48,96-2.85a1.5,1.5,0,0,1-.62-2.67,21.67,21.67,0,0,1-10.6-7.11c-2.8-3.64-3.5-7.89-3.79-13.93-.1-2.07-.14-4.34-.21-6.87-.15-5.81-.27-10.21,1.2-16,.41-1.62.92-3.61,1.66-5.72,1.4-4,3.66-8.36,7.74-11.48a20,20,0,0,1,8.08-3.64,1.44,1.44,0,0,1-.08-.46,1.51,1.51,0,0,1,.39-1c-13.24-1-50.87-1.84-90.54-2.18l-9.21-.07-3.65,0-2.16,0-10.49,0H122.9C84.31,41.3,50.39,42,43,43.91h0a1.5,1.5,0,0,1,1.5,1.5,1.54,1.54,0,0,1-.2.74,14.46,14.46,0,0,1,7,5.56,14.49,14.49,0,0,1,2,8.3c0,1.62-.24,3.21-.4,4.7C52.56,68,52.32,70.93,52.15,73.57Zm176.19-6.25v-3a1.66,1.66,0,0,1,.11.53A13.59,13.59,0,0,1,228.34,67.32Zm-166.08-3V67.1A6.9,6.9,0,0,1,62.26,64.31Z"/><path class="cls-5" d="M246.89,112.13c.71-.25,1.08-.52,1.09-.8s-.22-.43-.63-.63a1.76,1.76,0,0,1,0,.33A1.49,1.49,0,0,1,246.89,112.13Z"/><path class="cls-6" d="M228.34,67.32a13.59,13.59,0,0,0,.11-2.47,1.66,1.66,0,0,0-.11-.53Z"/><path class="cls-7" d="M62.26,64.31a6.9,6.9,0,0,0,0,2.79Z"/><path class="cls-8" d="M43,43.91h0a1.48,1.48,0,0,0-.83.26,1.55,1.55,0,0,0-.57.74,1.64,1.64,0,0,0-.08.5,1.5,1.5,0,0,0,1.5,1.5,1.51,1.51,0,0,0,1.3-.76,1.54,1.54,0,0,0,.2-.74A1.5,1.5,0,0,0,43,43.91Z"/><path class="cls-8" d="M38.52,109.42a1.5,1.5,0,0,0-3,0,1.42,1.42,0,0,0,.25.82,1.49,1.49,0,0,0,1.25.69,1.53,1.53,0,0,0,.87-.28A1.51,1.51,0,0,0,38.52,109.42Z"/><path class="cls-8" d="M244.38,111a1.5,1.5,0,0,0,1.22,1.47,1.33,1.33,0,0,0,.28,0,1.46,1.46,0,0,0,1-.4,1.49,1.49,0,0,0,.49-1.1,1.76,1.76,0,0,0,0-.33,1.51,1.51,0,0,0-1.47-1.18,1.48,1.48,0,0,0-.9.31A1.51,1.51,0,0,0,244.38,111Z"/><path class="cls-8" d="M249.06,45.07a1.5,1.5,0,0,0,2.92-.45h0a1.48,1.48,0,0,0-.23-.81,1.49,1.49,0,0,0-1.27-.69,1.5,1.5,0,0,0-1.5,1.5A1.44,1.44,0,0,0,249.06,45.07Z"/><path class="cls-8" d="M139.09,33.82a2.47,2.47,0,1,0,.45,3.47A2.48,2.48,0,0,0,139.09,33.82Zm-.43,3.2-2.55-2,.39-.51,2.55,2Z"/><rect class="cls-9" x="137.26" y="34.16" width="0.65" height="3.23" transform="translate(25.09 122.7) rotate(-52.27)"/><path class="cls-8" d="M133.94,117.05a2.47,2.47,0,1,0,4.6-1.81h0l-4.57-.06A2.42,2.42,0,0,0,133.94,117.05Zm3.69-1.8.23.6-3,1.19-.24-.6Z"/><rect class="cls-9" x="134.63" y="115.82" width="3.23" height="0.65" transform="translate(-33.11 58.09) rotate(-21.53)"/><path class="cls-10" d="M143.66,218.9c-.8,1.54-1.57,3-2.28,4.42-4.61,9.11-7.23,15.37-7.66,15.22s2.09-5.52,2.24-13.16c.09-4.54.29-14.44-5.6-17.63a8.24,8.24,0,0,0-1.86-.72,10.48,10.48,0,0,0-2.38-.3,14.64,14.64,0,0,0-3.22.35,17.28,17.28,0,0,0-6.7,3.09c-1.17.94-1.87,1.9-1.79,2.62.11.9,1.38,1.3,3.13,1.65,1.57.31,3.52.58,5.36,1.11a9.07,9.07,0,0,1,4.44,2.5,5.07,5.07,0,0,1,.79,1.18,6.27,6.27,0,0,1,.48,1.52c.78,4.22-2.05,10.24-5.71,12.46a5.74,5.74,0,0,1-2.33.85c-2,.22-4.25-.83-6.47-2.74-6.76-5.85-13.1-19.74-10-29.72.14-.46.76-1.85,1.92-4.36l1.08-2.33.92-2c5.92-12.75,7.47-15,7-15.39-1.31-1-16,8.72-17.63,22.39-1.53,13.09,9.66,24,7.84,25.46C103,227.13,91,206.55,74.4,207.75c-10.24.75-19.1,7.1-18.47,9.24.94,3.18,21.83-6.13,34.42,3.92,7.5,6,4.56,12.87,10.35,20.7,16,21.7,72.47,14.91,77.24-.56.79-2.58.26-5.8-1-8.7a18.51,18.51,0,0,0-2.67-4.45,17.61,17.61,0,0,0-3.41-3.11A14.76,14.76,0,0,0,164,222a2.86,2.86,0,0,0-2.28.61,2.28,2.28,0,0,0-.28,2.23,14,14,0,0,0,1,2.56c1.75,3.64,4.69,8.19,2.9,10.6-2.15,2.9-11,2.35-14.83-2.24a9,9,0,0,1-.89-1.27c-2.48-4.22-2.22-11,0-17.82.39-1.19.84-2.37,1.35-3.55,2.8-6.49,7.32-12.56,12.86-15.85a20.26,20.26,0,0,1,3.19-1.53,19.66,19.66,0,0,1,1.9-.58c4.84-1.25,9.4-.62,10.48-1.8a.8.8,0,0,0,.21-.42,2,2,0,0,0-.55-1.51c-1.49-1.95-5.7-4.28-9.8-4.08a9.6,9.6,0,0,0-3.8,1,12.9,12.9,0,0,0-2.13,1.31c-3.12,2.35-6.2,6.51-10,12.54-.66,1-1.31,2.09-1.94,3.12s-1.18,1.95-1.75,2.91C147.42,211.93,145.43,215.55,143.66,218.9Z"/></svg>
