<svg id="Layer_1" data-name="Layer 1" xmlns="http://www.w3.org/2000/svg" width="230" height="230" viewBox="0 0 230 230"><defs><style>.cls-1{fill:#fff;}.cls-2{fill:#f5ffc8;}.cls-3{fill:#cce9f7;}.cls-4{fill:#9dcbef;}.cls-5{fill:#fceee4;}.cls-6{fill:#ffb39d;}.cls-7{fill:#f0d582;}.cls-8{fill:#593f1f;}.cls-9{fill:#ffb4c0;}</style></defs><title>assets_health_2</title><path class="cls-1" d="M93.79,151.46a18.41,18.41,0,0,0,29,1.37,7.37,7.37,0,0,1-4.5-10.57,86.51,86.51,0,0,1-16.56.89,77.86,77.86,0,0,1-11.33-1.32A18.27,18.27,0,0,0,93.79,151.46Z"/><path class="cls-2" d="M115,0A115,115,0,1,0,230,115,115,115,0,0,0,115,0Zm66.16,108.26a16.68,16.68,0,0,1-6-4.8c-3.21,8.35-9.42,16.2-17.82,22.69,10.21,12.23,16.2,28.5,13.66,40.7-6.44,30.92-69.31,44.24-83.77,21.66-4.9-7.65-5.33-21.13-2.1-34.85a86,86,0,0,1,3.81-12.17,59.88,59.88,0,0,1-21.16-8.75,22.23,22.23,0,0,1-1.6,2.21c-5,6-13,8.57-20.27,5.86-9.37-3.48-13.93-14.45-10.2-24.49,1.62-4.34,4.8-7.35,8.82-9.65-8.37-11-5.91-31.24,6.73-48.39C63.74,41.34,82.07,33,95,37.39c8.74-10.2,29.39-14,51.24-8.29C172.67,36,190.83,54,186.83,69.4a18,18,0,0,1-1,2.81,47,47,0,0,1,10.62,3.26c9.71,4.52,14.16,15.54,9.94,24.6S190.87,112.81,181.16,108.29Z"/><path class="cls-3" d="M156.19,135.9A18.43,18.43,0,0,1,128.74,152a7.32,7.32,0,0,1-3.9,1.13,7.4,7.4,0,0,1-2-.29,18.43,18.43,0,0,1-32.39-11l-1.52-.31a86,86,0,0,0-3.81,12.17c-3.23,13.72-2.8,27.2,2.1,34.85,14.46,22.58,77.33,9.26,83.77-21.66,2.54-12.2-3.45-28.47-13.66-40.7-.91.7-1.84,1.39-2.8,2.06A18.36,18.36,0,0,1,156.19,135.9Z"/><path class="cls-1" d="M132.21,145.74a7.36,7.36,0,0,1-3.47,6.25,18.44,18.44,0,0,0,25.78-23.75,82.48,82.48,0,0,1-25.17,11.67A7.36,7.36,0,0,1,132.21,145.74Z"/><path class="cls-4" d="M122.83,152.83a7.4,7.4,0,0,0,2,.29,7.38,7.38,0,0,0,4.51-13.21c-1.87.52-3.77,1-5.71,1.4-1.77.38-3.55.69-5.31.95a7.37,7.37,0,0,0,4.5,10.57Z"/><path class="cls-5" d="M176.92,83.91c-.14-.68-.31-1.35-.49-2A40,40,0,0,1,165.82,86a13.16,13.16,0,0,1,.55,3.79,13.53,13.53,0,0,1-12.87,13.51,4.37,4.37,0,0,1-2.83,1.1,5,5,0,0,1-4.16-2.65,13.52,13.52,0,0,1-7.19-12,13.8,13.8,0,0,1,.39-3.23c-2.61-.42-5.26-1-7.92-1.66a76.59,76.59,0,0,1-24.64-11.1c-.2.65-.42,1.3-.64,1.95-.1.3-.21.6-.32.89s-.2.55-.31.82c-.32.85-.67,1.7-1,2.56h0a15.52,15.52,0,0,1-4.9,24.37,10.3,10.3,0,0,1,.6,3.49,9.87,9.87,0,0,1-1.33,5.07,5.27,5.27,0,0,1-4.38,2.82c-2.32,0-4.3-1.89-5.2-4.62a9.83,9.83,0,0,1-.29-1.13,10.49,10.49,0,0,0,6.3-4.32,15.38,15.38,0,0,1-9.18-1.44h0c-.57.46-1.14.91-1.71,1.34h0c-.56.42-1.12.83-1.69,1.22l-.07,0-1.63,1.08-.16.1c-.51.33-1,.64-1.55.94l-.24.14c-.48.28-1,.55-1.45.81l-.33.18c-.46.24-.92.46-1.38.68l-.4.2q-.67.32-1.35.6l-.42.18c-.58.25-1.16.47-1.74.69a52,52,0,0,1-.83,9.41,18.75,18.75,0,0,1,30.28,21.3,86.51,86.51,0,0,0,16.56-.89c1.76-.26,3.54-.57,5.31-.95,1.94-.4,3.84-.88,5.71-1.4a82.48,82.48,0,0,0,25.17-11.67c1-.67,1.89-1.36,2.8-2.06,8.4-6.49,14.61-14.34,17.82-22.69A34.34,34.34,0,0,0,176.92,83.91Zm-55.51,48.91-.34-1.14,10.87-3.19.33,1.14Z"/><path class="cls-6" d="M101.77,143.15a18.75,18.75,0,0,0-30.28-21.3A42.43,42.43,0,0,1,69.63,129a21.21,21.21,0,0,1-1.87,3.79,59.88,59.88,0,0,0,21.16,8.75l1.52.31A77.86,77.86,0,0,0,101.77,143.15Z"/><path class="cls-7" d="M196.45,75.47a47,47,0,0,0-10.62-3.26,18,18,0,0,0,1-2.81c4-15.4-14.16-33.44-40.55-40.3-21.85-5.67-42.5-1.91-51.24,8.29-13-4.39-31.3,4-43.8,20.92C38.6,75.46,36.14,95.69,44.51,106.7c-4,2.3-7.2,5.31-8.82,9.65-3.73,10,.83,21,10.2,24.49,7.27,2.71,15.29.12,20.27-5.86a22.23,22.23,0,0,0,1.6-2.21A21.21,21.21,0,0,0,69.63,129a42.43,42.43,0,0,0,1.86-7.13,52,52,0,0,0,.83-9.41c.58-.22,1.16-.44,1.74-.69l.42-.18q.67-.28,1.35-.6l.4-.2c.46-.22.92-.44,1.38-.68l.33-.18c.48-.26,1-.53,1.45-.81l.24-.14c.52-.3,1-.61,1.55-.94l.16-.1L83,106.84l.07,0c.57-.39,1.13-.8,1.69-1.22h0c.57-.43,1.14-.88,1.71-1.34h0L87.92,103l0,0c.47-.4.93-.82,1.39-1.24l.13-.12,1.29-1.23.24-.24c.39-.39.78-.78,1.17-1.19l.36-.38,1-1.11.51-.59.86-1c.24-.28.47-.58.71-.87s.43-.52.63-.78c.45-.57.89-1.14,1.32-1.73s1-1.33,1.41-2l.41-.6c.35-.53.69-1,1-1.58l.59-1c.25-.43.51-.85.75-1.28l.63-1.13.34-.64c.75-1.43,1.45-2.87,2.08-4.31h0c.37-.86.72-1.71,1-2.56.11-.27.21-.54.31-.82s.22-.59.32-.89c.22-.65.44-1.3.64-1.95a76.59,76.59,0,0,0,24.64,11.1c2.66.69,5.31,1.24,7.92,1.66A68.09,68.09,0,0,0,165.82,86a40,40,0,0,0,10.61-4.06c.18.66.35,1.33.49,2a34.34,34.34,0,0,1-1.78,19.58,16.68,16.68,0,0,0,6,4.8c9.71,4.52,21,.84,25.23-8.22S206.16,80,196.45,75.47Z"/><path class="cls-6" d="M95.64,105.66a10.31,10.31,0,0,0,1.77-4.84,7.31,7.31,0,0,1,2.53,3.53A15.52,15.52,0,0,0,104.84,80h0c-.63,1.44-1.33,2.88-2.08,4.31l-.34.64-.63,1.13c-.24.43-.5.85-.75,1.28l-.59,1c-.33.53-.67,1-1,1.58l-.41.6c-.45.67-.92,1.34-1.41,2s-.87,1.16-1.32,1.73c-.2.26-.42.52-.63.78s-.47.59-.71.87l-.86,1-.51.59-1,1.11-.36.38c-.39.41-.78.8-1.17,1.19l-.24.24-1.29,1.23-.13.12c-.46.42-.92.84-1.39,1.24l0,0-1.46,1.22h0A15.38,15.38,0,0,0,95.64,105.66Z"/><path class="cls-6" d="M146.51,101.71l0,0a9.35,9.35,0,0,1-1.28-4.85,8.2,8.2,0,0,1,3-6.71,10,10,0,0,0,7.73,8.76c-.08.37-.17.73-.28,1.08a7.34,7.34,0,0,1-2.14,3.32,13.53,13.53,0,0,0,12.87-13.51,13.16,13.16,0,0,0-.55-3.79,68.09,68.09,0,0,1-26.11.56,13.8,13.8,0,0,0-.39,3.23A13.52,13.52,0,0,0,146.51,101.71Z"/><path class="cls-8" d="M97.41,100.82a10.31,10.31,0,0,1-1.77,4.84,10.49,10.49,0,0,1-6.3,4.32,9.83,9.83,0,0,0,.29,1.13c.9,2.73,2.88,4.62,5.2,4.62a5.27,5.27,0,0,0,4.38-2.82,9.87,9.87,0,0,0,1.33-5.07,10.3,10.3,0,0,0-.6-3.49A7.31,7.31,0,0,0,97.41,100.82Z"/><path class="cls-8" d="M155.64,99.94c.11-.35.2-.71.28-1.08a10,10,0,0,1-7.73-8.76,8.2,8.2,0,0,0-3,6.71,9.35,9.35,0,0,0,1.28,4.85l0,0a5,5,0,0,0,4.16,2.65,4.37,4.37,0,0,0,2.83-1.1A7.34,7.34,0,0,0,155.64,99.94Z"/><rect class="cls-9" x="121.01" y="130.06" width="11.33" height="1.19" transform="translate(-31.65 40.92) rotate(-16.34)"/></svg>
