<svg id="Layer_1" data-name="Layer 1" xmlns="http://www.w3.org/2000/svg" width="370" height="160" viewBox="0 0 370 160"><defs><style>.cls-1{fill:#fff635;}</style></defs><title>assets</title><rect class="cls-1" x="4.5" y="2.5" width="361" height="155" rx="50.62"/><path d="M86.63,99.73c-1.38.55-1.84-1.11-2.2-1.94C85.81,97.89,86,99,86.63,99.73Zm22.73-55.84a5.37,5.37,0,0,1,4.14,3.86L115.15,53c.55,1.47,0,2.85-.18,4.23-.09.65-1,.65-1.38,1.29-.37.92-1,1.75-1.47,2.67-.56-.18-.46-.83-.83-1.1-.65.18-.28,1-.83,1.28-.09.1-.18.1-.28-.09a8,8,0,0,1-1.84-6.53,7.47,7.47,0,0,0-.27-3.77c-.46-1.75-2.85-3.86-4.51-3.22-.92.28-1.84.74-2.76,1.1a4.71,4.71,0,0,0-2,2.4c-.46.92-.83,2.57-1.38,3.4-.92,1-.92,3.68.18,4.51,2.76,2.3,4.6,5.33,6.72,8a36.58,36.58,0,0,0,5.7,5.7,31.09,31.09,0,0,1,4.51,5.25,13.37,13.37,0,0,0,1.75,2.21c2.2,2.11,2.11,5.06,2.94,7.81a25.93,25.93,0,0,1,.46,6,2.49,2.49,0,0,1-1.1,2.48c-.56.28-.46.73-.56,1.19a19.09,19.09,0,0,1-2.76,6.63,3.22,3.22,0,0,1-2.3,1.65,2,2,0,0,0-1,.65,9.93,9.93,0,0,1-3.59,2.57c-.36.19-.73.46-1.1.28a3.33,3.33,0,0,0-2.94.46c-2.76,1.56-7.36.37-11.32-2-.37-.28-5.79-5.43-6-5.71-1.93-2.67,3,2.21,1.11-.64a5,5,0,0,1-.74-2.58c0-1.1-.92-1.65-1.38-2.48-.18-.37-.64-.55-.74-1.1.37-.28,1.29-.74,1.84-.19.74.83.92.37,1.48.65s.64.55,1.38,1.1c1,.83,1.19,1.65,1.84,2.39.92,1.29,1.93,1.56,3.31,2.21,3.22,1.29,6.44,4,9.29,1.1a8,8,0,0,0,2.11-6.07,32.94,32.94,0,0,0-1.1-6.81,3.27,3.27,0,0,0-.64-1.38c-3.5-4.87-6.35-9-10.77-12.88-2.3-1.84-5.06-5.06-5.88-7.91-.37-1.47-1.29-2.76-1.48-4.23a5.17,5.17,0,0,1,.1-2.39c.73-2.58,1.1-5.34,2.11-7.82a17.61,17.61,0,0,1,7-8.28A4.07,4.07,0,0,1,99,44.35c1.66.27,3.22-.37,4.88-.56A18.58,18.58,0,0,1,109.36,43.89ZM99.51,76.82c.28-.09-.73-2-1.38-2.76-.92-1.29-1.93-1.66-2.11-2.3-1.29-.83-2.3-2-3.77-2.39C93.9,72.13,97.21,75,99.51,76.82Z"/><path d="M156.46,44.71a.88.88,0,0,1-.37,1.29c-.73.55-1.1,1.47-1.84,2-.55.36.09.46.09.82a4.2,4.2,0,0,1-2.39.46c-1.56-.09-3.22-.18-4.78-.18a16,16,0,0,0-3.59.18,1.82,1.82,0,0,0-1.84,1.38,7.13,7.13,0,0,0-2.39-.55c.55,1.2.18,2.67,1.75,3.4.36.19.36.83.36,1.29a33.4,33.4,0,0,0,.46,6,81.73,81.73,0,0,1,.19,8.28c.09,4.14-.19,8.19,0,12.33.09,1.66.27,3.22.46,4.78a58,58,0,0,1,.27,8c0,1-.18,2.11-.09,3.22.09,2.39-.37,4.78-.37,7.26-.09,1.66-1.1,3-1.38,4.7,0,.18,0,.27-.09.36-.83.37-1.74.28-2.57.74-.28.18-.65,0-1-.18-.56-.37-1.29-.74-1.94-1.11a1.62,1.62,0,0,0-1.56.09c-1.29.74-3.13-.64-3-2.2.09-2.3-.18-4.7-.27-7a22.64,22.64,0,0,1,.46-6.16,12.4,12.4,0,0,0-.1-5.52,8.67,8.67,0,0,1-.27-3,36.93,36.93,0,0,0-.19-4.51c0-3.31-.09-6.63-.09-9.94a52,52,0,0,1,.46-10.67,22.13,22.13,0,0,0,.09-4.32,11,11,0,0,1,.37-3.41c.28-.55,0-1.19-.09-1.84a1.27,1.27,0,0,0-1-.82,25.08,25.08,0,0,0-5.34,0c-1.84.27-3.68.09-5.52.18a1.76,1.76,0,0,1-1.56-.55,1.44,1.44,0,0,1,.83-.55c.55-.19.83-.37.64-1.11-.09-.55.28-.83.92-1a24.31,24.31,0,0,1,5.15-.46c3.31-.18,6.44-.92,9.57-1.38,4-.46,7.82-1.38,11.87-1.1a51.3,51.3,0,0,0,7.54-.1h1C155.91,43.79,156.18,44.16,156.46,44.71Zm-23.74,5.52c-.36.56-.36,2.58.28,2.67l.55.09c-.27-.73.09-2.3-.55-2.85C133,50.05,132.82,50.14,132.72,50.23Z"/><path d="M170.63,43.7c.55-.18,1.38,2.3,1.56,3.13,0-2.3.37-4,1.66-.46a48.86,48.86,0,0,1,1.93,5.06c.46,2,1.29,4,1.56,6,.19,1.56.37,1.1,1.11,2.48,1.29,2.3,1.19,5,1.84,7.45a107.84,107.84,0,0,0,4.14,12.06,52.7,52.7,0,0,1,2.3,9.38c.18.83,0,1.75.18,2.67a82.4,82.4,0,0,0,3.4,10.12,13.78,13.78,0,0,1,1.38,6.53c-.09,1.1-.18,2.3-1.74,2.48a.81.81,0,0,1-.83,1c-.46-.46-1.11-.55-1.57-1.47-.18-.37-.82-.18-.92-.64-.36-1-1.65-1.29-1.84-.46-.36,1.65-2.11.64-3.21.92a.92.92,0,0,1-1.38-.74c-1-3-2-6-2.76-8.92-.65-2.49-1.94-4.78-2.4-7.36a1.44,1.44,0,0,0-1.65-1.2c-3.59.19-6.35-.09-10,.37-.83.09-2.39-.27-2.94.37s-.46,1.56-.74,2.39a48.17,48.17,0,0,0-1.1,5.06l-.74,6.35a18.64,18.64,0,0,1-.37,2.3c-.18,1.1-.64,1.38-2,1-.37-.09-1-2.12-1.38-.64-.19.82-.92-1.48-.83-2.4a74.59,74.59,0,0,1,2.21-12l.27-1.38c.19-1.28.19-1.19-1-1.56-.64-.18-1.38-.28-1.75-1,.37-.83,1.2-.65,1.84-.74,2.12-.55,1.84-.09,2.12-2.21.46-3.12,1.66-7.08,2-10.21a99.57,99.57,0,0,1,2.4-12.69,64.57,64.57,0,0,0,1.56-8.1c.46-2.76.92-5.52,1.29-8.19a3.86,3.86,0,0,0-.09-2c-.19-.64-.28-1.56.64-1.93s1.84-1.47,2.94-.83A4.61,4.61,0,0,0,170.63,43.7ZM166,59.16a17.23,17.23,0,0,1-.83,5.7c-.64,2.3-.37,4.78-1.2,7.08A36.56,36.56,0,0,0,162.53,79c-.37,3.13-.92,6.25-1.47,9.38,3-.18,6.35-.28,9.29-.46a5.23,5.23,0,0,0,1.66-.37c1.38-.27,1.47-.46,1-1.75-.83-2.11-1.1-4.41-1.75-6.62-.55-1.84-.64-3.86-1.29-5.79a33,33,0,0,1-1.56-7.18,33.35,33.35,0,0,0-1.84-8.1C166.12,58.51,165.94,58.88,166,59.16Zm14.44,14.62c.19-.64-.64-4-1.1-4.23C178.63,70.29,180.29,73.23,180.47,73.78Z"/><path d="M211,45.63c2.66.19,5.42.19,7.72,1.75A15.55,15.55,0,0,0,223,49.59a4.6,4.6,0,0,1,2.49,2.76c1.1,2.76,2.21,5.52,1.93,8.65-.09,1,.46,1.84.46,2.85.09,3.95-1.75,6.9-4.51,9.47a36.42,36.42,0,0,1-4.41,3,3.76,3.76,0,0,1-1.57.92c.1-.83,1-1,1-1.84a6.21,6.21,0,0,0-2.76,1.84c-.37.37.09.92.46,1.19,1.28,1.11,2.48,2.4,3.67,3.59a17,17,0,0,1,4,6.53c1.47,3.87,3,7.73,4.78,11.41a7.24,7.24,0,0,1,.65,2,22.71,22.71,0,0,0,1.56,4.14,2.86,2.86,0,0,1,.19,2.12c-.1.83-.28,1.29-1.2,1.38-.09,0-.28.28-.37.46-.37.55-.83.64-1.29.18-.92-.82-1.74-1.28-2.85-.46a1,1,0,0,1-1,0c-1.47-.92-3.22-1.65-4-3.31a18.94,18.94,0,0,0-1.29-2.3c-2.94-6.07-5.51-12.23-8-18.49A17.16,17.16,0,0,0,209.54,83c-1.19.65-2,1.48-1.75,3v.73c-.73,3.41,0,6.81,0,10.31a56.7,56.7,0,0,1-.09,9.75c-.18.83.19,1.93-1.38,1.75-.27-.1-.46.27-.46.55a7.8,7.8,0,0,0-.36,1.38c-1.38-.55-2.3-1.66-3.5-2.67a2.75,2.75,0,0,1-3.68.55,4.23,4.23,0,0,1-2.3-3.77c-.09-1.47.37-2.85.28-4.32-.19-4.14-.19-8.37-.37-12.52a21.89,21.89,0,0,0-.28-2.39A56.69,56.69,0,0,1,194.92,71c.27-4.87.27-9.66.46-14.53a58.38,58.38,0,0,0,.18-6.9,2.46,2.46,0,0,0-.18-1.38c-1,0-1.94.64-2.95.55-.27-.46.55-.73.09-1.1-.73-.74-.27-1.11.46-1.38a22.87,22.87,0,0,1,10.31-1.2C205.86,45.45,208.44,45.45,211,45.63ZM207,76.36a4.21,4.21,0,0,0,.82-.46c3-3,6.17-5.89,8.65-9.38,1.66-2.4,2.21-5.16,2.67-7.92a2.46,2.46,0,0,0-.28-1.19,4,4,0,0,1-.45-2.3,1.21,1.21,0,0,0-.83-1.38,10.37,10.37,0,0,1-1.29-.83c-1.66-1.29-3.22-2.76-5.52-3.4a14.71,14.71,0,0,0-4.05-.28A269.47,269.47,0,0,1,207,76.36Z"/><path d="M266.21,44.71a.89.89,0,0,1-.36,1.29c-.74.55-1.11,1.47-1.84,2-.55.36.09.46.09.82a4.22,4.22,0,0,1-2.39.46c-1.57-.09-3.22-.18-4.79-.18a16.05,16.05,0,0,0-3.59.18,1.8,1.8,0,0,0-1.83,1.38,7.19,7.19,0,0,0-2.4-.55c.56,1.2.19,2.67,1.75,3.4.37.19.37.83.37,1.29a33.4,33.4,0,0,0,.46,6,81.73,81.73,0,0,1,.18,8.28c.1,4.14-.18,8.19,0,12.33.1,1.66.28,3.22.46,4.78a58,58,0,0,1,.28,8c0,1-.18,2.11-.09,3.22.09,2.39-.37,4.78-.37,7.26-.09,1.66-1.1,3-1.38,4.7,0,.18,0,.27-.09.36-.83.37-1.75.28-2.58.74-.27.18-.64,0-1-.18-.55-.37-1.29-.74-1.93-1.11a1.64,1.64,0,0,0-1.57.09c-1.28.74-3.12-.64-3-2.2.09-2.3-.19-4.7-.28-7a23,23,0,0,1,.46-6.16,12.4,12.4,0,0,0-.09-5.52,8.45,8.45,0,0,1-.28-3,35.06,35.06,0,0,0-.18-4.51c0-3.31-.09-6.63-.09-9.94a51.3,51.3,0,0,1,.46-10.67,22.94,22.94,0,0,0,.09-4.32,10.73,10.73,0,0,1,.37-3.41c.27-.55,0-1.19-.09-1.84a1.29,1.29,0,0,0-1-.82,25,25,0,0,0-5.33,0c-1.84.27-3.68.09-5.52.18a1.78,1.78,0,0,1-1.57-.55,1.47,1.47,0,0,1,.83-.55c.55-.19.83-.37.65-1.11-.1-.55.27-.83.92-1a24.19,24.19,0,0,1,5.15-.46c3.31-.18,6.44-.92,9.57-1.38,4-.46,7.82-1.38,11.86-1.1a51.44,51.44,0,0,0,7.55-.1h1C265.66,43.79,265.94,44.16,266.21,44.71Zm-23.73,5.52c-.37.56-.37,2.58.28,2.67l.55.09c-.28-.73.09-2.3-.55-2.85C242.76,50.05,242.57,50.14,242.48,50.23Z"/></svg>
