<svg id="Layer_1" data-name="Layer 1" xmlns="http://www.w3.org/2000/svg" width="230" height="230" viewBox="0 0 230 230"><defs><style>.cls-1{fill:#fff;}.cls-2{fill:#ffaac6;}.cls-3{fill:#cce9f7;}.cls-4{fill:#9dcbef;}.cls-5{fill:#f0d582;}.cls-6{fill:#fceee4;}.cls-7{fill:#dab4ff;}.cls-8{fill:#e6e6e6;}.cls-9{fill:#ccc;}.cls-10{fill:#cc82ff;}.cls-11{fill:#ff6cd3;}.cls-12{fill:#ffb39d;}.cls-13{fill:#593f1f;}.cls-14{fill:#ffb4c0;}.cls-15{fill:#6ad7ff;}</style></defs><title>assets_health_3</title><path class="cls-1" d="M91.36,140.8a17.59,17.59,0,0,0,13.12,16,18,18,0,0,0,4.42.56,17.53,17.53,0,0,0,13.32-6.12,7,7,0,0,1-5.12-6.76,6.94,6.94,0,0,1,.83-3.31q-4.11.6-8.13.81A76.73,76.73,0,0,1,91.36,140.8Z"/><path class="cls-2" d="M114.76,5.73A109.51,109.51,0,1,0,224.27,115.24,109.5,109.5,0,0,0,114.76,5.73ZM53.86,29.58l1.15.25c-.55,2.59-.65,4.67-.27,5.55.17.39.52.47,1.85.64.45,0,.78.06,1,.07.59,0,1.14,0,1.49.74s.62,2-.18,6.27l-1.15-.21c.71-3.87.48-5.13.28-5.54l0-.07-.43,0c-.28,0-.66,0-1.16-.08-1.35-.17-2.33-.29-2.78-1.33C53,34.4,53.43,31.64,53.86,29.58Zm-4.5,11,1,.58c-.42.75-.49,1.28-.35,1.4a6.33,6.33,0,0,0,1.9.22c.45,0,.79,0,1.06,0a2.07,2.07,0,0,1,1.3.27c1,.76.2,2.34-.06,2.87l-1-.53c.56-1.11.41-1.4.4-1.4a2.89,2.89,0,0,0-.61,0l-1.09,0c-1.43-.07-2.15-.1-2.61-.5S48.37,42.27,49.36,40.54Zm-9.18-1.12,1.07.48c-.65,1.44-2,5-.69,6.39.62.67,2.21.79,5.46,1,1.18.07,2.06.09,2.76.09,1.48,0,2.22,0,2.88.66,1.25,1.2,1.11,3.71-.45,7.67l-1.09-.43c1.31-3.32,1.57-5.59.73-6.39-.31-.3-.72-.32-2.08-.33-.72,0-1.61,0-2.82-.1-3.41-.2-5.29-.31-6.25-1.36C38,45.2,39.26,41.48,40.18,39.42Zm137.59,69.42a15.73,15.73,0,0,1-5.73-4.57c-3.06,8-9,15.44-17,21.62,9.73,11.64,15.43,27.14,13,38.77-6.13,29.45-66,42.13-79.79,20.62-3-4.61-4.2-11.45-3.94-19.15a78.46,78.46,0,0,1,5.57-25.63,56.88,56.88,0,0,1-20.16-8.34,18.7,18.7,0,0,1-9.06,7.56,16.48,16.48,0,0,1-11.76.14c-8.93-3.33-13.28-13.77-9.72-23.33,1.54-4.14,4.57-7,8.4-9.19-5.16-6.79-6-17.26-2.68-28.23C43,72,47.52,61.65,56.45,52.33c-.78-2.28.28-5.59,2.81-8.31,0,0,0-.05.06-.07,2.23-2.6,5-4,6.73-3.7a4.44,4.44,0,0,1,3.71,1.11.52.52,0,0,1,.1.11c13-8.12,26.33-10.46,33.29-5.83,10-5.21,25.36-6.38,41.4-2.22C169.69,40,187,57.14,183.17,71.81a16.72,16.72,0,0,1-.95,2.68,45.1,45.1,0,0,1,10.12,3.09c9.25,4.32,13.49,14.81,9.46,23.44S187,113.15,177.77,108.84Z"/><path class="cls-3" d="M154,135.15a17.57,17.57,0,0,1-26.15,15.33,7,7,0,0,1-3.72,1.07,7.11,7.11,0,0,1-1.91-.27,17.53,17.53,0,0,1-13.32,6.12,18,18,0,0,1-4.42-.56,17.59,17.59,0,0,1-13.12-16c-.48-.1-1-.19-1.44-.3a78.46,78.46,0,0,0-5.57,25.63c-.26,7.7,1,14.54,3.94,19.15,13.77,21.51,73.66,8.83,79.79-20.62,2.42-11.63-3.28-27.13-13-38.77-.86.67-1.75,1.32-2.66,2A17.59,17.59,0,0,1,154,135.15Z"/><path class="cls-1" d="M131.16,144.52a7.05,7.05,0,0,1-3.31,6,17.57,17.57,0,0,0,24.56-22.63,78.88,78.88,0,0,1-24,11.12A7,7,0,0,1,131.16,144.52Z"/><path class="cls-4" d="M122.22,151.28a7.11,7.11,0,0,0,1.91.27,7,7,0,0,0,4.3-12.58q-2.67.75-5.44,1.33c-1.69.36-3.38.66-5.06.91a6.94,6.94,0,0,0-.83,3.31A7,7,0,0,0,122.22,151.28Z"/><path class="cls-5" d="M192.34,77.58a45.1,45.1,0,0,0-10.12-3.09,16.72,16.72,0,0,0,.95-2.68C187,57.14,169.69,40,144.55,33.42c-16-4.16-31.39-3-41.4,2.22A10.31,10.31,0,0,1,105.7,38c6.41,8.45-1.6,25.32-17.88,37.67S53.13,91.22,46.71,82.77a10.63,10.63,0,0,1-1.77-3.66c-3.31,11-2.48,21.44,2.68,28.23-3.83,2.19-6.86,5-8.4,9.19-3.56,9.56.79,20,9.72,23.33a16.48,16.48,0,0,0,11.76-.14,19.24,19.24,0,0,0,10.84-11.16,42.94,42.94,0,0,0,2.08-8.7,48.07,48.07,0,0,0,.49-7.06,42.57,42.57,0,0,0,6.42-3v-1h1.74c.7-.44,1.41-.9,2.1-1.38A59.4,59.4,0,0,0,98.2,93.79a60.93,60.93,0,0,0,7.55-13.48c.58-1.45,1.09-2.91,1.53-4.35a73.19,73.19,0,0,0,23.47,10.57l1.36.34c11.84,2.86,23.22,2.81,32.27.4a37.18,37.18,0,0,0,8.89-3.56c.18.63.34,1.27.47,1.92a32.74,32.74,0,0,1-1.7,18.64,15.73,15.73,0,0,0,5.73,4.57c9.25,4.31,20,.81,24-7.82S201.59,81.9,192.34,77.58ZM59.59,104.22a2.21,2.21,0,0,1-2.2-2.2c0-1.22,1.7-6,2.24-4.59.19.48.38.84.39.89.23,1,1.78,2.33,1.78,3.7A2.21,2.21,0,0,1,59.59,104.22Zm9.32,18.94a5.1,5.1,0,0,1-1.57.24,5.26,5.26,0,0,1-5.26-5.26c0-2.91,4-14.41,5.35-11,.44,1.17.9,2,.93,2.14.54,2.4,4.24,5.56,4.24,8.84a5.29,5.29,0,0,1-3.69,5Zm.79-18.8a4.4,4.4,0,0,1-4.39-4.4c0-2.42,3.38-12,4.47-9.15.36,1,.75,1.69.77,1.78.45,2,3.54,4.64,3.54,7.37A4.39,4.39,0,0,1,69.7,104.36Z"/><path class="cls-6" d="M84.37,107.38c-.69.48-1.4.94-2.1,1.38h4.45A17.22,17.22,0,0,1,84.37,107.38Z"/><path class="cls-6" d="M173.74,85.63c-.13-.65-.29-1.29-.47-1.92a37.18,37.18,0,0,1-8.89,3.56,17.24,17.24,0,0,1-1.51,15h2.58v3.51H160a17.28,17.28,0,0,1-27.88-19l-1.36-.34A73.19,73.19,0,0,1,107.28,76c-.44,1.44-1,2.9-1.53,4.35a17.28,17.28,0,0,1-3.86,28.45h6.17v3.51H80.53V109.8a42.57,42.57,0,0,1-6.42,3,48.07,48.07,0,0,1-.49,7.06,24.6,24.6,0,0,1,36.19,21.69c0,.16,0,.31,0,.47q4-.21,8.13-.81c1.68-.25,3.37-.55,5.06-.91q2.78-.59,5.44-1.33a78.88,78.88,0,0,0,24-11.12c.91-.64,1.8-1.29,2.66-2,8-6.18,13.91-13.66,17-21.62A32.74,32.74,0,0,0,173.74,85.63Zm-42.92,48.31a6.76,6.76,0,0,0-13.52,0,7.81,7.81,0,1,1,14.57-3.9A7.71,7.71,0,0,1,130.82,133.94Z"/><path class="cls-7" d="M87.82,75.69C104.1,63.34,112.11,46.47,105.7,38a10.31,10.31,0,0,0-2.55-2.38c-7-4.63-20.31-2.29-33.29,5.83a4.85,4.85,0,0,1,.9,4.3,11.68,11.68,0,0,1-3.27,5.73c-2.55,2.54-5.7,3.76-8,3.33a3.92,3.92,0,0,1-2.11-1,3.75,3.75,0,0,1-.89-1.45C47.52,61.65,43,72,44.94,79.11a10.63,10.63,0,0,0,1.77,3.66C53.13,91.22,71.53,88.05,87.82,75.69Zm-2-38.34A23.2,23.2,0,0,1,98.44,38.7a14.46,14.46,0,0,1,1.54.79l-.61,1a12.78,12.78,0,0,0-1.93-.92A22.64,22.64,0,0,0,86,38.51,29.75,29.75,0,0,0,74.06,43l-.65-1A30.85,30.85,0,0,1,85.79,37.35ZM69.57,51.44A31,31,0,0,1,81.2,57.73c6.29,5.43,7.52,11.05,7.7,12.11l-1.15.2c-.17-1-1.32-6.25-7.32-11.42a29.76,29.76,0,0,0-11.17-6Zm-17.83,18a26.12,26.12,0,0,1,2-7.84,17.66,17.66,0,0,1,3.54-5.41l.44.46.38.38c-.73.71-4.38,4.66-5.2,12.53a29.77,29.77,0,0,0,1.4,12.62l-1.11.39A31.17,31.17,0,0,1,51.74,69.47Z"/><path class="cls-8" d="M59.45,54.83c2.34.43,5.49-.79,8-3.33a11.68,11.68,0,0,0,3.27-5.73,4.85,4.85,0,0,0-.9-4.3.52.52,0,0,0-.1-.11,4.44,4.44,0,0,0-3.71-1.11,2.08,2.08,0,0,1,1,.44c1.55,1.34.63,5-2.06,8.09S58.8,53.37,57.25,52s-.64-4.9,2-8c-2.53,2.72-3.59,6-2.81,8.31a3.75,3.75,0,0,0,.89,1.45A3.92,3.92,0,0,0,59.45,54.83Z"/><path class="cls-9" d="M57.25,52c1.55,1.34,5-.12,7.69-3.25S68.55,42,67,40.69a2.08,2.08,0,0,0-1-.44c-1.76-.33-4.5,1.1-6.73,3.7,0,0,0,0-.06.07C56.61,47.13,55.71,50.71,57.25,52Z"/><path class="cls-10" d="M54.31,82.21a29.77,29.77,0,0,1-1.4-12.62c.82-7.87,4.47-11.82,5.2-12.53l-.38-.38-.44-.46a17.66,17.66,0,0,0-3.54,5.41,26.12,26.12,0,0,0-2,7.84A31.17,31.17,0,0,0,53.2,82.6Z"/><path class="cls-10" d="M87.75,70l1.15-.2c-.18-1.06-1.41-6.68-7.7-12.11a31,31,0,0,0-11.63-6.29l-.31,1.13a29.76,29.76,0,0,1,11.17,6C86.43,63.79,87.58,69,87.75,70Z"/><path class="cls-10" d="M86,38.51a22.64,22.64,0,0,1,11.48,1.06,12.78,12.78,0,0,1,1.93.92l.61-1a14.46,14.46,0,0,0-1.54-.79,23.2,23.2,0,0,0-12.65-1.35A30.85,30.85,0,0,0,73.41,42l.65,1A29.75,29.75,0,0,1,86,38.51Z"/><path class="cls-11" d="M46,48.44c1.21.07,2.1.09,2.82.1,1.36,0,1.77,0,2.08.33.84.8.58,3.07-.73,6.39l1.09.43c1.56-4,1.7-6.47.45-7.67-.66-.63-1.4-.64-2.88-.66-.7,0-1.58,0-2.76-.09-3.25-.19-4.84-.31-5.46-1-1.32-1.44,0-4.95.69-6.39l-1.07-.48c-.92,2.06-2.21,5.78-.48,7.66C40.66,48.13,42.54,48.24,46,48.44Z"/><path class="cls-11" d="M51.87,43.91l1.09,0a2.89,2.89,0,0,1,.61,0s.16.29-.4,1.4l1,.53c.26-.53,1.05-2.11.06-2.87a2.07,2.07,0,0,0-1.3-.27c-.27,0-.61,0-1.06,0a6.33,6.33,0,0,1-1.9-.22c-.14-.12-.07-.65.35-1.4l-1-.58c-1,1.73-.49,2.54-.1,2.87S50.44,43.84,51.87,43.91Z"/><path class="cls-11" d="M56.45,37.18c.5.06.88.07,1.16.08l.43,0,0,.07c.2.41.43,1.67-.28,5.54L59,43.1c.8-4.32.48-5.65.18-6.27s-.9-.72-1.49-.74c-.27,0-.6,0-1-.07-1.33-.17-1.68-.25-1.85-.64-.38-.88-.28-3,.27-5.55l-1.15-.25c-.43,2.06-.82,4.82-.19,6.27C54.12,36.89,55.1,37,56.45,37.18Z"/><path class="cls-12" d="M109.8,142c0-.16,0-.31,0-.47a24.6,24.6,0,0,0-36.19-21.69,42.94,42.94,0,0,1-2.08,8.7,18.85,18.85,0,0,1-1.78,3.6,56.88,56.88,0,0,0,20.16,8.34c.48.11,1,.2,1.44.3A76.73,76.73,0,0,0,109.8,142Z"/><path class="cls-12" d="M101.89,108.76a17.28,17.28,0,0,0,3.86-28.45A60.93,60.93,0,0,1,98.2,93.79a59.4,59.4,0,0,1-13.83,13.59,17.22,17.22,0,0,0,2.35,1.38Z"/><path class="cls-12" d="M148.17,110.52A17.17,17.17,0,0,0,160,105.83H137.92v-3.51h25a17.24,17.24,0,0,0,1.51-15c-9,2.41-20.43,2.46-32.27-.4a17.29,17.29,0,0,0,16.06,23.65Z"/><polygon class="cls-13" points="108.06 112.27 108.06 108.76 101.89 108.76 86.72 108.76 82.27 108.76 80.53 108.76 80.53 109.8 80.53 112.27 108.06 112.27"/><polygon class="cls-13" points="137.92 105.83 159.99 105.83 165.44 105.83 165.44 102.32 162.87 102.32 137.92 102.32 137.92 105.83"/><path class="cls-14" d="M124.06,122.23a7.81,7.81,0,0,0-6.76,11.71,6.76,6.76,0,0,1,13.52,0,7.71,7.71,0,0,0,1.05-3.9A7.81,7.81,0,0,0,124.06,122.23Z"/><path class="cls-15" d="M69.78,90.81c-1.09-2.87-4.47,6.73-4.47,9.15a4.39,4.39,0,1,0,8.78,0c0-2.73-3.09-5.37-3.54-7.37C70.53,92.5,70.14,91.78,69.78,90.81Zm2,8.43c-.27.1-1-.91-2.93-4.88a4.42,4.42,0,0,1,2,1.31C72.07,97.1,72.15,99.12,71.82,99.24Z"/><path class="cls-1" d="M71.82,99.24c.33-.12.25-2.14-1-3.57a4.42,4.42,0,0,0-2-1.31C70.8,98.33,71.55,99.34,71.82,99.24Z"/><path class="cls-15" d="M68.36,109.3c0-.11-.49-1-.93-2.14-1.31-3.43-5.35,8.07-5.35,11a5.26,5.26,0,0,0,5.26,5.26,5.1,5.1,0,0,0,1.57-.24,5.29,5.29,0,0,0,3.69-5C72.6,114.86,68.9,111.7,68.36,109.3Zm1.51,8c-.31.12-1.22-1.09-3.51-5.84A5.23,5.23,0,0,1,68.7,113C70.17,114.7,70.27,117.13,69.87,117.27Z"/><path class="cls-1" d="M66.36,111.43c2.29,4.75,3.2,6,3.51,5.84s.3-2.57-1.17-4.28A5.23,5.23,0,0,0,66.36,111.43Z"/><path class="cls-15" d="M61.8,102c0-1.37-1.55-2.7-1.78-3.7,0,0-.2-.41-.39-.89-.54-1.44-2.24,3.37-2.24,4.59a2.21,2.21,0,0,0,4.41,0Zm-1.15-.36c-.13,0-.51-.46-1.46-2.45a2.18,2.18,0,0,1,1,.65C60.78,100.58,60.82,101.59,60.65,101.66Z"/><path class="cls-1" d="M59.19,99.21c1,2,1.33,2.49,1.46,2.45s.13-1.08-.49-1.8A2.18,2.18,0,0,0,59.19,99.21Z"/></svg>
