<svg id="Layer_1" data-name="Layer 1" xmlns="http://www.w3.org/2000/svg" width="910" height="1360" viewBox="0 0 910 1360"><defs><style>.cls-1{fill:#644e3b;}.cls-2{fill:#006837;}</style></defs><title>assets</title><path class="cls-1" d="M258,711.51a184.29,184.29,0,0,1-50,7l-1.71,5.86c-45.19,155-82.78,283.94-32.33,431,17.59,51.24,49.72,144.9,139.16,184.29,73.64,32.43,175.69,23.47,194.16-19,21-48.2-86.38-92.36-147.7-236.23-8.53-20-55.81-131-39.32-252.1A186.48,186.48,0,0,1,258,711.51Z"/><path class="cls-2" d="M905.88,426.87c17.56-101.24-50.28-197.55-151.52-215.11a185.2,185.2,0,0,0-117,17.94,185.69,185.69,0,0,0-29.88-25.87C616.31,108.16,550.25,20.23,454,3.53A186.12,186.12,0,0,0,253.9,107.37a187.15,187.15,0,0,0-34.67-9.52C118,80.29,21.68,148.13,4.12,249.37A185.9,185.9,0,0,0,60.83,417.51a185.2,185.2,0,0,0-37,83.18C6.26,601.93,74.1,698.24,175.35,715.8A187.07,187.07,0,0,0,208,718.56a184.29,184.29,0,0,0,50-7,186.1,186.1,0,0,0,316,113.41A187.43,187.43,0,0,0,607.41,834C708.65,851.55,805,783.71,822.52,682.47a185.21,185.21,0,0,0-19.34-119.7A185.83,185.83,0,0,0,905.88,426.87Z"/></svg>
