<svg id="Layer_1" data-name="Layer 1" xmlns="http://www.w3.org/2000/svg" width="370" height="260" viewBox="0 0 370 260"><defs><style>.cls-1{fill:none;}.cls-2{fill:#e2feef;}.cls-3{fill:#fceee4;}.cls-4{fill:#a9ddf3;}.cls-5{fill:#cce9f7;}.cls-6{fill:#fff;}.cls-7{fill:#f0d582;}.cls-8{fill:#ffb4c0;}.cls-9{fill:#f1de9c;}.cls-10{fill:#f3c66e;}.cls-11{fill:#644e3b;}.cls-12{fill:#ff8ba1;}.cls-13{fill:#ffaac6;}.cls-14{fill:#9dcbef;}</style></defs><title>assets</title><path class="cls-1" d="M119.53,119.13a9.56,9.56,0,0,1-.43,6.05c-1.18,2.55-3.86,4.27-7,5.18.85,2.52,1.71,5.31,2.65,8.38,3.43-2.76,10.93-3.49,20.3-2.2a90.23,90.23,0,0,1-9.18-21.45c-1.1.75-2.18,1.46-3.23,2.13S120.53,118.54,119.53,119.13Z"/><path class="cls-1" d="M46.74,174.6c-2.36,5-4.81,9.74-7.21,13.94,7.89-1.29,21.54-4.86,25.26-14.48,2.88-7.44-3.16-10.85-4.41-24.07a10.53,10.53,0,0,1-4.48,1.09c-.33,1.11-.69,2.27-1.09,3.46A181.52,181.52,0,0,1,46.74,174.6Z"/><path class="cls-2" d="M61.33,129.15c.17.23.34.46.5.7-.06-.2-.12-.4-.17-.6Z"/><path class="cls-2" d="M88.4,222.66l1.29,1.26.39-1-.7-.1Z"/><path class="cls-2" d="M120.4,101.24c.65-.62,1.32-1.24,2-1.86-.06-.31-.11-.63-.15-.95a17.45,17.45,0,0,1-.16-1.8,18.74,18.74,0,0,1,0-2,59.13,59.13,0,0,1-3.87,5.9c1,.25,1.62.48,1.75.52Z"/><path class="cls-3" d="M118.45,108.62a8.88,8.88,0,0,0-4.06,1.61,17.63,17.63,0,0,1,5.14,8.9c1-.59,2-1.23,3.09-1.91s2.13-1.38,3.23-2.13a68.73,68.73,0,0,1-1.48-6.83A18.43,18.43,0,0,0,118.45,108.62Z"/><path class="cls-3" d="M123.33,102.69l-.21-.58c0-.09-.06-.19-.1-.29-.13-.4-.25-.82-.36-1.24s-.18-.79-.26-1.2c-.68.62-1.35,1.24-2,1.86A20,20,0,0,1,123.33,102.69Z"/><path class="cls-4" d="M119.33,222.33l-.71,1.39c8.39-.49,16.17-1.69,20.7-3.86-3.52-1.8-8.48-5.69-15.08-8.33C122.82,215,121.18,218.67,119.33,222.33Z"/><path class="cls-4" d="M89.38,222.81l.7.1c1.09-2.82,2.34-5.73,3.72-8.68a63.52,63.52,0,0,1-9.18,5q2,1.72,3.78,3.44Z"/><path class="cls-3" d="M88.4,222.66q-1.8-1.71-3.78-3.44A35.41,35.41,0,0,1,81,220.47c-17,4.87-36-3.39-50.24-13.11,4.94,7.12,14.24,15.85,26,23.81,10,6.76,19.79,11.69,27.69,14.22.33-5.68,2.15-13.19,5.28-21.47Z"/><path class="cls-5" d="M124.24,211.53c6.6,2.64,11.56,6.53,15.08,8.33,2,1,3.46,1.36,4.56.5,3.82-3-3.83-15.57-13.42-37.85C131.36,188.82,129.11,199.5,124.24,211.53Z"/><path class="cls-5" d="M113,141.14a5.46,5.46,0,0,1,1.77-2.4c-.94-3.07-1.8-5.86-2.65-8.38,3.16-.91,5.84-2.63,7-5.18a9.56,9.56,0,0,0,.43-6.05,17.63,17.63,0,0,0-5.14-8.9,3.08,3.08,0,0,0-.66.85c-1.21,2.35,1.27,5.06.1,6.3-.75.8-2.4.34-5-.42l-1.14-.34a12.53,12.53,0,0,1,1.5,6v.15a12.59,12.59,0,0,1-21.28,9,3.56,3.56,0,0,1-2.4.93,3.64,3.64,0,0,1-.74-.07,12.6,12.6,0,0,1-21,1,16.35,16.35,0,0,0-1.87-3.74c-.16-.24-.33-.47-.5-.7a8.09,8.09,0,0,0-3.43-2.7l-.35-.13c-3.16-1-7.37.79-10.74,3.75a20.38,20.38,0,0,0-3.57,4.1A14.57,14.57,0,0,0,41.48,138a8.58,8.58,0,0,0-.11,4.68,5.05,5.05,0,0,0,.18.55,9.58,9.58,0,0,0,2.78,3.88,17.44,17.44,0,0,0,11.57,4A10.53,10.53,0,0,0,60.38,150c1.25,13.22,7.29,16.63,4.41,24.07-3.72,9.62-17.37,13.19-25.26,14.48C35.21,196.11,31,202,27.77,205.23c1,.72,2,1.43,3,2.13,14.21,9.72,33.29,18,50.24,13.11a35.41,35.41,0,0,0,3.61-1.25,63.52,63.52,0,0,0,9.18-5c.6-1.27,1.22-2.56,1.88-3.85,11-21.75,25.19-36.72,31.72-33.42a3.92,3.92,0,0,1,1,.74c-1.42-3.43-2.87-7.07-4.32-10.91-1.95-5.16-3.59-9.88-5-14.21C114.25,148.41,111.86,144.32,113,141.14Z"/><path class="cls-5" d="M24.48,189c-9.19-1.13-14.27-4.43-15-3.08s4.06,7.68,12.15,14.52a56.82,56.82,0,0,1,1.2-5.79C23.29,192.85,23.84,191,24.48,189Z"/><path class="cls-3" d="M95.68,210.38c-.66,1.29-1.28,2.58-1.88,3.85-1.38,3-2.63,5.86-3.72,8.68l-.39,1c-3.13,8.28-5,15.79-5.28,21.47-.31,5.36.7,9.1,3.2,10.36,6.39,3.23,20.12-11,31-32l.71-1.39c1.85-3.66,3.49-7.29,4.91-10.8,4.87-12,7.12-22.71,6.22-29a8.16,8.16,0,0,0-2-4.81,3.92,3.92,0,0,0-1-.74C120.87,173.66,106.67,188.63,95.68,210.38Z"/><path class="cls-6" d="M100.36,117.2A83.42,83.42,0,0,1,88,123.93c-1.13.5-2.27,1-3.41,1.42h-.06a1.89,1.89,0,0,0-1.32.53,79.77,79.77,0,0,1-18.89,4.53,12.63,12.63,0,0,0-2.7-1.16c.05.2.11.4.17.6a16.35,16.35,0,0,1,1.87,3.74,12.6,12.6,0,0,0,21-1,3.58,3.58,0,1,1,3.14-.86,12.59,12.59,0,0,0,21.28-9v-.15a12.53,12.53,0,0,0-1.5-6,24.8,24.8,0,0,1-4.29-1.51C102.38,115.82,101.39,116.52,100.36,117.2Z"/><path class="cls-7" d="M128,72.08a33.44,33.44,0,0,1-.07,4.9c.41-1,.84-1.92,1.31-2.86C128.77,73.44,128.36,72.75,128,72.08Z"/><path class="cls-7" d="M35.72,107.57c7.51-4.69,14.5-12.76,19.17-23.06A58.17,58.17,0,0,0,60,65.62,71.44,71.44,0,0,0,84.53,71c16.79.75,31.71-3.85,40.07-11.34.29.57.58,1.14.84,1.73.43,1,.8,2,1.13,3,0-.09.05-.19.09-.28,1.57-4.06,8.61-7.68,15.49-7.23a64.91,64.91,0,0,1,5.33-4.49,18.85,18.85,0,0,0-5.9-2.44,44.16,44.16,0,0,0-10.3-.91,15.81,15.81,0,0,0,.36-2.75c.67-14.79-19.35-27.71-44.71-28.84-21-.94-39.07,6.49-45,17.46C29.22,33.36,14.15,44.51,6.05,62.37c-8.18,18.06-6.51,37,3.24,45.37-3.21,2.87-5.52,6.22-6.15,10.49-1.46,9.86,4.82,19,14,20.32,8,1.18,15.51-3.82,18.35-11.58a19.7,19.7,0,0,0,1-3.81A47,47,0,0,0,35.72,107.57Z"/><path class="cls-3" d="M57.55,126.32l.35.13a8.09,8.09,0,0,1,3.43,2.7l.33.1a12.63,12.63,0,0,1,2.7,1.16,79.77,79.77,0,0,0,18.89-4.53,1.89,1.89,0,0,1,1.32-.53h.06c1.14-.45,2.28-.92,3.41-1.42a83.42,83.42,0,0,0,12.32-6.73c1-.68,2-1.38,3-2.09a4.4,4.4,0,0,1-1.73-1.49c-2.26-3.52-.08-8.15,1.94-10.42,4.15-4.65,11.35-3.51,14.67-2.65a59.13,59.13,0,0,0,3.87-5.9c0-.48.07-1,.14-1.45,0-.2,0-.39.08-.59a20.67,20.67,0,0,1,2.84-7.44q.6-2.4,1.45-4.83c.39-1.14.83-2.26,1.3-3.36a33.44,33.44,0,0,0,.07-4.9c-1.5-2.81-2.14-5.54-1.42-7.75-.33-1-.7-2-1.13-3-.26-.59-.55-1.16-.84-1.73C116.24,67.11,101.32,71.71,84.53,71A71.44,71.44,0,0,1,60,65.62a58.17,58.17,0,0,1-5.06,18.89c-4.67,10.3-11.66,18.37-19.17,23.06a47,47,0,0,1,.76,15.59,19.7,19.7,0,0,1-1,3.81,50.74,50.74,0,0,0,11.3,3.1C50.18,127.11,54.39,125.35,57.55,126.32ZM126,78.24c.92,1.61-2.21,5.15-7,7.91s-9.42,3.7-10.34,2.1,2.2-5.15,7-7.91S125.08,76.64,126,78.24ZM104,77a10.26,10.26,0,0,1,5.64-5.57,11,11,0,0,1,10.82,2.18L119.28,75a9.24,9.24,0,0,0-9-1.89c-4.29,1.65-6.57,7.1-5.07,12.16l-1.71.5A12.75,12.75,0,0,1,104,77Zm-23.55,31.8a5,5,0,0,0,8.31,0,4.52,4.52,0,0,1,.3,1.61,4.46,4.46,0,1,1-8.91,0A4.52,4.52,0,0,1,80.41,108.84Zm-23-15.35c4.36-3.34,11.22-2.1,15,2.71L71,97.3c-3.52-4.48-9.31-4.85-12.51-2.39-2.46,1.88-3.56,5.51-2.73,9l-1.74.41A10.53,10.53,0,0,1,57.42,93.49ZM62,103.35c4.78-2.76,9.41-3.7,10.34-2.09s-2.2,5.14-7,7.9-9.42,3.71-10.34,2.1S57.25,106.12,62,103.35Z"/><path class="cls-8" d="M84.57,114.91A4.46,4.46,0,0,0,89,110.45a4.52,4.52,0,0,0-.3-1.61,5,5,0,0,1-8.31,0,4.52,4.52,0,0,0-.3,1.61A4.46,4.46,0,0,0,84.57,114.91Z"/><path class="cls-3" d="M46.74,174.6a181.52,181.52,0,0,0,8.07-20.06c.4-1.19.76-2.35,1.09-3.46a17.44,17.44,0,0,1-11.57-4,177,177,0,0,0-11.51,21A179.36,179.36,0,0,0,24.48,189c-.64,2-1.19,3.89-1.65,5.65a56.82,56.82,0,0,0-1.2,5.79c-.52,3.57-.35,6.06.63,7a1.5,1.5,0,0,0,.44.32,1.66,1.66,0,0,0,.92.13,5,5,0,0,0,2.28-1,17.7,17.7,0,0,0,1.87-1.62c3.26-3.21,7.44-9.12,11.76-16.69C41.93,184.34,44.38,179.64,46.74,174.6Z"/><path class="cls-9" d="M368,92.56c-3.74-2.81-14.9,16.83-45.83,31.32A133.92,133.92,0,0,1,306.58,130C302,123.72,291,117.28,268.72,94.6c-16.91-17.24-14.54-17.57-24.2-26-15.92-13.86-36.4-31.68-63.15-29.54a65.92,65.92,0,0,0-33.89,13.25,64.91,64.91,0,0,0-5.33,4.49,14.7,14.7,0,0,1,7.69,2.62l.47.35c9.11,7.11,5.75,23.63.6,26.79-3.91,2.4-11.3-1.43-17-6.9a19.39,19.39,0,0,0-9.46,13.82,17.74,17.74,0,0,0-.14,3.06,17.12,17.12,0,0,0,.8,4.46c.15.49.32,1,.5,1.41a21.65,21.65,0,0,0,2.15,4,25.88,25.88,0,0,0,4.72,5.24,23.21,23.21,0,0,0,12.76,5.22l-.22,2.25A26,26,0,0,1,133.17,115a25.18,25.18,0,0,1-2.11-1.58,28.22,28.22,0,0,1-4.41-4.69l-.13-.19c-.6-.09-1.32-.2-2.15-.27a68.73,68.73,0,0,0,1.48,6.83A90.23,90.23,0,0,0,135,136.54c1.26,2.19,2.41,4,3.3,5.42a100.82,100.82,0,0,0,29,29.51c1.28.86,2.57,1.7,3.89,2.51.39,27.54,7.24,49.47,15.64,49.47,7,0,12.94-15.26,14.94-36.32,17.33,4.59,35.64,5,52.65.17-1,2.86-2.18,6-3.57,9.48-6.49,16.31-9,19-7.53,20.36,5.53,5.4,56.22-20.56,63.37-57.31a54.8,54.8,0,0,0,15.5-2.08C359.15,147.08,373.57,96.71,368,92.56Zm-166.42-14a5.73,5.73,0,1,1-5.73,5.73A5.73,5.73,0,0,1,201.61,78.55Zm-2,57.46c-5.72-2.59-11.13-8.28-12.38-15.17C184.77,107.52,198,90.37,222.27,83.3l23.91,30.14C232.9,133.91,212.75,142,199.57,136Z"/><path class="cls-10" d="M138.33,142c-.89-1.41-2-3.23-3.3-5.42-9.37-1.29-16.87-.56-20.3,2.2a5.46,5.46,0,0,0-1.77,2.4c-1.1,3.18,1.29,7.27,6.12,11.44,5.77,5,15,10,25.94,13.85a94.52,94.52,0,0,0,22.29,5A100.82,100.82,0,0,1,138.33,142Z"/><path class="cls-9" d="M131.47,78.58c.28-.19.56-.38.85-.56l-.27-.3a32.93,32.93,0,0,1-2.82-3.6c-.47.94-.9,1.89-1.31,2.86s-.91,2.22-1.3,3.36q-.86,2.43-1.45,4.83A22.7,22.7,0,0,1,131.47,78.58Z"/><path class="cls-10" d="M187.19,120.84c1.25,6.89,6.66,12.58,12.38,15.17,13.18,6,33.33-2.1,46.61-22.57L222.27,83.3C198,90.37,184.77,107.52,187.19,120.84Z"/><path class="cls-11" d="M201.61,90a5.73,5.73,0,1,0-5.73-5.73A5.72,5.72,0,0,0,201.61,90Z"/><path class="cls-8" d="M125.1,106.39a14,14,0,0,0-6.73-2.6c-4.73-.48-7.94.51-9.28,2.86a7,7,0,0,0-.12,5.7l-1,.35a8,8,0,0,1,.19-6.56c1.08-1.9,3.74-4,10.26-3.37a14.8,14.8,0,0,1,5.66,1.8c-.2-.42-.4-.85-.58-1.29-.07-.19-.15-.39-.22-.59a20,20,0,0,0-2.93-1.45l-.41-.17c-.13,0-.77-.27-1.75-.52-3.32-.86-10.52-2-14.67,2.65-2,2.27-4.2,6.9-1.94,10.42a4.4,4.4,0,0,0,1.73,1.49,24.8,24.8,0,0,0,4.29,1.51l1.14.34c2.64.76,4.29,1.22,5,.42,1.17-1.24-1.31-3.95-.1-6.3a3.08,3.08,0,0,1,.66-.85,8.88,8.88,0,0,1,4.06-1.61,18.43,18.43,0,0,1,5.92-.36c.83.07,1.55.18,2.15.27-.3-.41-.6-.83-.89-1.27C125.45,107,125.27,106.69,125.1,106.39Z"/><path class="cls-12" d="M108.21,106.14a8,8,0,0,0-.19,6.56l1-.35a7,7,0,0,1,.12-5.7c1.34-2.35,4.55-3.34,9.28-2.86a14,14,0,0,1,6.73,2.6c-.34-.57-.66-1.18-1-1.82a14.8,14.8,0,0,0-5.66-1.8C112,102.11,109.29,104.24,108.21,106.14Z"/><path class="cls-11" d="M126.66,64.05c0,.09-.06.19-.09.28-.72,2.21-.08,4.94,1.42,7.75.37.67.78,1.36,1.24,2a32.93,32.93,0,0,0,2.82,3.6l.27.3c-.29.18-.57.37-.85.56a22.7,22.7,0,0,0-6.3,6.59,20.67,20.67,0,0,0-2.84,7.44c0,.2-.06.39-.08.59-.07.49-.11,1-.14,1.45a18.74,18.74,0,0,0,0,2,17.45,17.45,0,0,0,.16,1.8c0,.32.09.64.15.95s.16.81.26,1.2.23.84.36,1.24c0,.1.07.2.1.29l.21.58c.07.2.15.4.22.59.18.44.38.87.58,1.29.31.64.63,1.25,1,1.82.17.3.35.59.53.87.29.44.59.86.89,1.27l.13.19a28.22,28.22,0,0,0,4.41,4.69,25.18,25.18,0,0,0,2.11,1.58,26,26,0,0,0,11.88,4.15l.22-2.25a23.21,23.21,0,0,1-12.76-5.22,25.88,25.88,0,0,1-4.72-5.24,21.65,21.65,0,0,1-2.15-4c-.18-.45-.35-.92-.5-1.41a17.12,17.12,0,0,1-.8-4.46,17.74,17.74,0,0,1,.14-3.06,19.39,19.39,0,0,1,9.46-13.82c5.67,5.47,13.06,9.3,17,6.9,5.15-3.16,8.51-19.68-.6-26.79l-.47-.35a14.7,14.7,0,0,0-7.69-2.62C135.27,56.37,128.23,60,126.66,64.05Z"/><path class="cls-8" d="M65.39,109.16c4.79-2.76,7.91-6.3,7-7.9s-5.56-.67-10.34,2.09-7.92,6.31-7,7.91S60.6,111.93,65.39,109.16Z"/><path class="cls-8" d="M108.68,88.25c.92,1.6,5.55.66,10.34-2.1s7.91-6.3,7-7.91-5.56-.66-10.35,2.1S107.75,86.64,108.68,88.25Z"/><path class="cls-11" d="M58.51,94.91c3.2-2.46,9-2.09,12.51,2.39l1.4-1.1c-3.78-4.81-10.64-6-15-2.71A10.53,10.53,0,0,0,54,104.34l1.74-.41C55,100.42,56.05,96.79,58.51,94.91Z"/><path class="cls-11" d="M105.17,85.29c-1.5-5.06.78-10.51,5.07-12.16a9.24,9.24,0,0,1,9,1.89l1.14-1.37a11,11,0,0,0-10.82-2.18A10.26,10.26,0,0,0,104,77a12.75,12.75,0,0,0-.5,8.75Z"/><path class="cls-13" d="M5.64,39c-1.06,1.8-1.18,3.7-.15,4.74,1.38,1.41,4.3.76,6.54-1.44a7.43,7.43,0,0,0,2.2-3.92,2.49,2.49,0,0,0,0-1,2.61,2.61,0,0,0-.7-1.61l-.06-.06A7.64,7.64,0,0,0,10,33.33c-2.95-1.06-5.88-.43-6.54,1.42C3,36.14,3.91,37.82,5.64,39Z"/><path class="cls-13" d="M156.2,27a6,6,0,0,0,3,2.84,5.55,5.55,0,0,0,2.22.7,17.52,17.52,0,0,0,10.48-1.73c6.67-3.19,10.45-9.18,8.45-13.37-1.5-3.13-5.8-4.37-10.67-3.47C168.43,7.17,165.44,3.8,162,3.8c-4.65,0-8.41,6-8.41,13.39a17.93,17.93,0,0,0,2.58,9.66C156.15,26.91,156.17,27,156.2,27Z"/><path class="cls-13" d="M107.24,16.65a1.8,1.8,0,0,0,.92.86,1.82,1.82,0,0,0,.67.22A5.33,5.33,0,0,0,112,17.2c2-1,3.18-2.79,2.57-4.07-.45-1-1.76-1.33-3.24-1.06-.39-1.46-1.3-2.49-2.36-2.49-1.42,0-2.56,1.82-2.56,4.08a5.53,5.53,0,0,0,.78,2.94Z"/><path class="cls-13" d="M230.22,50a1.83,1.83,0,0,0,1.05.69h.06a5.35,5.35,0,0,0,3,.07c2.19-.53,3.7-2.07,3.36-3.45-.25-1-1.46-1.67-3-1.7-.08-1.51-.76-2.69-1.79-2.91-1.38-.29-2.88,1.26-3.35,3.46a5.35,5.35,0,0,0,.24,3.23A1.72,1.72,0,0,0,230.22,50Z"/><path class="cls-13" d="M142.78,35a6.84,6.84,0,0,0,3.86-.09h.07a2.32,2.32,0,0,0,1.34-.88,2,2,0,0,0,.46-.77,6.74,6.74,0,0,0,.31-4.08c-.59-2.8-2.49-4.76-4.25-4.39-1.31.27-2.17,1.77-2.27,3.68-1.92,0-3.46.86-3.78,2.16C138.09,32.38,140,34.34,142.78,35Z"/><path class="cls-13" d="M12.83,32a13.79,13.79,0,0,0,8.31,1.37,4.26,4.26,0,0,0,1.76-.55,4.84,4.84,0,0,0,2.4-2.25l.06-.14a14.23,14.23,0,0,0,2.05-7.66c0-5.87-3-10.63-6.67-10.63-2.77,0-5.14,2.68-6.16,6.5-3.85-.72-7.27.27-8.46,2.75C4.53,24.7,7.54,29.45,12.83,32Z"/><path class="cls-14" d="M85.47,125.52a3.57,3.57,0,0,0-.74,7.06,3.64,3.64,0,0,0,.74.07,3.57,3.57,0,1,0,0-7.13Z"/></svg>
