<svg id="Layer_1" data-name="Layer 1" xmlns="http://www.w3.org/2000/svg" width="1920" height="1080" viewBox="0 0 1920 1080"><defs><style>.cls-1{fill:#d4f9ff;}.cls-2{fill:#006837;}.cls-3{fill:#78e000;}.cls-4{fill:#26aa00;}.cls-5{fill:#259400;}.cls-6{fill:#50bf00;}.cls-7{fill:none;}.cls-8{fill:#95754c;}.cls-9{fill:#c69c6d;}.cls-10{fill:#f6f2ea;}.cls-11{fill:#a67c52;}.cls-12{fill:#ffb4c0;}.cls-13{fill:#ff7f8d;}.cls-14{fill:#8c6239;}.cls-15{fill:#94e5ff;}.cls-16{fill:#ffef38;}.cls-17{fill:#b9b5b0;}.cls-18{fill:#5c5546;}.cls-19{fill:#4bab47;}.cls-20{fill:#a56e36;}</style></defs><title>assets</title><rect class="cls-1" width="1920" height="1080"/><path class="cls-2" d="M-85.37,742.37c83,328.33,522.67,438.5,785,438.5,433.55,0,785-196.33,785-438.5,0-83.89-88.36-101.29-785-438.5-313.91-152-401.41-198.82-512-161C-13.35,211.6-144.15,510-85.37,742.37Z"/><path class="cls-3" d="M2193,667.5c-83,328.33-522.67,438.5-785,438.5-433.54,0-785-196.32-785-438.5,0-83.88,88.36-101.28,785-438.5C1721.91,77.05,1809.41,30.18,1920,68,2121,136.73,2251.78,435.08,2193,667.5Z"/><path class="cls-4" d="M1290.81,625.45c3,0,5.94.09,8.88.25a227.12,227.12,0,0,1,42.46-57.38,143.75,143.75,0,0,1-1.84-22.87,142,142,0,0,1,227.31-113.52,142,142,0,0,1,263.77,87.64C1929.1,544.7,2001.31,633.39,2001.31,739c0,125.09-101.41,226.5-226.5,226.5a225.53,225.53,0,0,1-142.9-50.78,226.58,226.58,0,0,1-257,3.61,158.5,158.5,0,1,1-84.14-292.83Z"/><path class="cls-5" d="M635.5,654c-3,0-5.94.09-8.88.25a227.12,227.12,0,0,0-42.46-57.38A143.56,143.56,0,0,0,586,574,142,142,0,0,0,358.69,460.48,142,142,0,0,0,94.92,548.13C-2.8,573.25-75,662-75,767.5-75,892.59,26.41,994,151.5,994a225.53,225.53,0,0,0,142.9-50.78,226.58,226.58,0,0,0,257,3.61A158.5,158.5,0,1,0,635.5,654Z"/><rect class="cls-6" y="908" width="1920" height="172"/><path class="cls-7" d="M801.24,937.06c-5.61,12.16-8.61,18.86-9.29,21.09-14.78,48.25,15.85,115.39,48.56,143.67a87.33,87.33,0,0,0,18.57-43.56,108.47,108.47,0,0,0-2-38c-8.45-1.68-14.62-3.63-15.11-8-.4-3.5,3-8.13,8.66-12.67a148.29,148.29,0,0,0-10.53-21.15C827.58,957.41,812.17,944.83,801.24,937.06Z"/><path class="cls-7" d="M1066.07,1079.91c1.23,1.74,4.12,2.69,8.12,2.86a70.21,70.21,0,0,1-4.88-12.37C1066,1074.54,1064.46,1077.64,1066.07,1079.91Z"/><path class="cls-7" d="M1033.6,1058.26c16.72,3.09,46.91-74.82,47.35-113.64,0-2.52,0-5,0-7.48-26.81,15.9-48.66,45.22-62.2,76.63C1020,1037.86,1025.86,1056.83,1033.6,1058.26Z"/><path class="cls-7" d="M1147.24,1042c5.41-7.55,21.33-32.45,10.83-110.94q-.88-6.54-1.9-12.85c-5.18,5.68-27.25,2.66-50.66,8.67,8.2,21.37,13.46,47.42,7.91,73.18-5.49,25.48-20.07,43.72-31.73,56.61,9.16.58,21.8,5.45,33.38,13.58C1126.84,1063.62,1138.5,1054.25,1147.24,1042Z"/><path class="cls-5" d="M1075.54,878.33c-1.12.41,1,6.16,3,21.91a61.7,61.7,0,0,1,10.31-6.36C1082.27,883.75,1076.77,877.88,1075.54,878.33Z"/><path class="cls-5" d="M1113.42,785a24.93,24.93,0,0,0,1.52,2.55A18,18,0,0,0,1113.42,785Z"/><path class="cls-5" d="M1157.23,916.21a4.24,4.24,0,0,1-1.06,2q1,6.32,1.9,12.85c10.5,78.49-5.42,103.39-10.83,110.94-8.74,12.22-20.4,21.59-32.17,28.25a83.9,83.9,0,0,1,16.46,15,88.75,88.75,0,0,1,12.92,21.52,122.05,122.05,0,0,0,24.44-29.64c61.46-104.4-40.24-267.53-54-289.67,5.92,10.82,27.76,55.54,39.63,121.35C1156.65,911.58,1157.65,914.14,1157.23,916.21Z"/><path class="cls-5" d="M1020.67,976c.58-3.71,1.27-7.41,2.11-11.05,7.61-33.28,22.87-47.46,16.23-55.46-4-4.83-14.64-5.81-26.78-3.38v84Q1016.36,983.06,1020.67,976Z"/><path class="cls-5" d="M840.14,978.44a148.29,148.29,0,0,1,10.53,21.15c7.67-6.14,19.6-12.09,32.35-14.92V960.54c-23.52-19.61-56.14-30.85-76.59-34.71q-2.89,6.24-5.19,11.23C812.17,944.83,827.58,957.41,840.14,978.44Z"/><path class="cls-5" d="M1105.51,926.91a92.49,92.49,0,0,0-9.16,2.83,93.86,93.86,0,0,0-15.41,7.4c0,2.45,0,5,0,7.48-.44,38.82-30.63,116.73-47.35,113.64-7.74-1.43-13.64-20.4-14.86-44.49-2.45,5.67-4.62,11.41-6.51,17.15v86.17a44.59,44.59,0,0,0,4.3,6.11c18.77,22.22,61.27,24.87,71.7,10.82,8.65-11.64-5.57-33.63-14-51.25-4-.17-6.89-1.12-8.12-2.86-1.61-2.27-.1-5.37,3.24-9.51-1.16-4.56-1-8.32,1.34-10.78,2.21-2.32,6.13-3.23,11-2.92,11.66-12.89,26.24-31.13,31.73-56.61C1119,974.33,1113.71,948.28,1105.51,926.91Z"/><path class="cls-5" d="M859.08,1058.26a87.33,87.33,0,0,1-18.57,43.56c10.7,9.25,21.63,14.36,31.26,13.26A27.76,27.76,0,0,0,883,1111v-85.4c-8.86-2.57-18.3-3.86-25.9-5.36A108.47,108.47,0,0,1,859.08,1058.26Z"/><path class="cls-8" d="M911.75,601.37c-3.73,65.35.73,106.62-1.42,108.71-3,2.93-17-72.86-10.64-140.53.25-2.71.54-5.34.85-7.93l-17.52-.1V984.67a67.33,67.33,0,0,1,15.56-1.7,449.1,449.1,0,0,1,.81-65.66c4.9-52.25,20.27-82.15,22.71-74.24,2.14,6.95-6.83,39.32-10.65,106.06-.72,12.72-1.14,24.51-1.35,35.29a39.28,39.28,0,0,1,9,3.49c28.44,15.39,27.49,63.26,27.06,85.23-.73,36.91-12.76,62.88-10.82,63.59s14.75-29.5,37-73.55q0-3.84,0-7.79c0-39.65,2.5-71.79,5.59-71.79,2.72,0,5,25.06,5.48,58.2,8.54-16.2,18.15-33.68,28.81-51.77V562.28l-97.33-.57C913.71,573.28,912.6,586.46,911.75,601.37Zm48.85,40.7c2.44-7.91,17.81,22,22.7,74.24,6.34,67.67-7.63,143.46-10.64,140.53-2.15-2.09,2.32-43.36-1.42-108.71C967.43,681.39,958.46,649,960.6,642.07Zm-25.73,68.75c6.6,0,12,13.21,12,29.51s-5.36,29.51-12,29.51-12-13.21-12-29.51S928.26,710.82,934.87,710.82Z"/><path class="cls-8" d="M1012.23,1117.09v-86.17C1001.46,1063.78,1000.22,1096.67,1012.23,1117.09Z"/><path class="cls-8" d="M910.65,1050.76c0,4.19-.14,6.62-.62,7.09-1,1-3.22-6.82-5.51-20.15-5.25-6.06-13.1-9.67-21.5-12.1V1111C900.71,1100.23,914.43,1071.14,910.65,1050.76Z"/><path class="cls-8" d="M982.59,136.21C978.77,69.46,969.81,37.09,972,30.15c2.43-7.92,17.8,22,22.7,74.24,1,11,1.53,22.28,1.61,33.37l16,0V44.41A38.69,38.69,0,0,0,973.54,5.72H921.71A38.69,38.69,0,0,0,883,44.41v93.24l99.65.1C982.64,137.23,982.62,136.73,982.59,136.21ZM934.87,111c-6.61,0-12-18.21-12-40.68s5.36-40.68,12-40.68,12,18.22,12,40.68S941.47,111,934.87,111Z"/><path class="cls-9" d="M972.66,856.84c3,2.93,17-72.86,10.64-140.53-4.89-52.26-20.26-82.15-22.7-74.24-2.14,6.95,6.83,39.32,10.64,106.06C975,813.48,970.51,854.75,972.66,856.84Z"/><path class="cls-9" d="M910,1057.85c.48-.47.63-2.9.62-7.09a29.75,29.75,0,0,0-2.35-7.38,25.9,25.9,0,0,0-3.78-5.68C906.81,1051,909,1058.82,910,1057.85Z"/><path class="cls-9" d="M910.1,984.42c.21-10.78.63-22.57,1.35-35.29,3.82-66.74,12.79-99.11,10.65-106.06-2.44-7.91-17.81,22-22.71,74.24a449.1,449.1,0,0,0-.81,65.66A49.59,49.59,0,0,1,910.1,984.42Z"/><path class="cls-9" d="M934.87,29.64c-6.61,0-12,18.22-12,40.68s5.36,40.68,12,40.68,12-18.21,12-40.68S941.47,29.64,934.87,29.64Z"/><path class="cls-9" d="M934.87,769.84c6.6,0,12-13.21,12-29.51s-5.36-29.51-12-29.51-12,13.21-12,29.51S928.26,769.84,934.87,769.84Z"/><path class="cls-9" d="M977.94,983.6c-3.09,0-5.59,32.14-5.59,71.79q0,3.94,0,7.79c3.45-6.81,7.12-14,11-21.38C982.93,1008.66,980.66,983.6,977.94,983.6Z"/><path class="cls-9" d="M1594.3,213.76c22.92-13.65,30.44-19.68,33.88-29.91,6.13-18.23-4.77-37.75-9.63-45.45l-606.32-.62-16,0c-.08-11.09-.58-22.34-1.61-33.37-4.9-52.26-20.27-82.16-22.7-74.24-2.14,6.94,6.82,39.31,10.64,106.06,0,.52,0,1,.08,1.54l-99.65-.1-501.52-.52c53.74,14.56,65.14,24.5,64.77,31-.63,11.16-35.28,9.35-55.16,34-15.28,19-16.08,46.43-12.54,71.24l168.1.18c.32-13.27-1.49-27.09-9.66-40.13-9.59-15.31-23.56-22.56-33.85-26.86a7.25,7.25,0,0,1-13.13-6,1.48,1.48,0,0,1-.41-1c0-.91,1.11-1.78,3.17-2.61a7.16,7.16,0,0,1,4-1.25C532.48,186.66,696.48,183.18,883,183q18.51,0,37.28,0c.78-.2,1.6-.37,2.39-.57,3.64-.9,7.37-1.72,11.18-2.49,1.57-.32,3.1-.66,4.7-1A266.07,266.07,0,0,1,984,174.7c3.78,0,7.51,0,11.17.11q8.77.28,17.06,1.09a285.79,285.79,0,0,1,44.5,7.82c191.8,1.65,373.73,6,437.75,10.57a7.23,7.23,0,0,1,11.49,1c8.32.81,12.77,1.63,12.75,2.45s-4.49.79-11.61,1.5a7.25,7.25,0,0,1-14.15,2.18,97.11,97.11,0,0,0-39,17.6c-19.75,15.1-30.65,36.32-37.43,55.53l133.49.13c-21.84,5.87-36.69,11-46.6,15.45l115,.12c4.6-13.89,6.94-28.84,0-38.21-17.53-23.83-83.65,3.26-85.12-2.16C1532.43,246.52,1557.14,235.89,1594.3,213.76ZM531.86,178.07c-23,0-41.59-2.81-41.58-6.24s18.62-6.17,41.59-6.15,41.59,2.82,41.59,6.24S554.83,178.1,531.86,178.07Zm431.61-14.28A12,12,0,1,1,961.33,147,12,12,0,0,1,963.47,163.79Z"/><path class="cls-8" d="M539.72,407.71c-.17-12.33-.39-27.21.2-45.78a267,267,0,0,1-53.54-4.39,272.79,272.79,0,0,1-64.78-20.72L541,339.19c.79-12.76,2-26.95,3.75-42.84.8-7.21,1.73-14.88,1.92-22.74l-168.1-.18-65.64-.06c-4.87,7.68-15.81,27.18-9.72,45.42,3.42,10.23,10.93,16.28,33.82,30,37.11,22.21,61.8,32.89,60.9,36.21-1.48,5.42-67.54-21.81-85.12,2-6.92,9.36-4.61,24.31,0,38.21l35.75,0a84,84,0,0,1,4.26-18.58Z"/><path class="cls-8" d="M1416.49,274.51c-3.6,10.18-6,19.81-8,27.64-7.11,28-6.55,49.32-5.8,77.38.32,12.24.56,23.24,1,33.23l148.54.87c4-25.49,3.8-54.26-12-73.94-19.83-24.72-54.49-23-55.09-34.13-.21-3.89,3.73-9,18.23-15.47,9.91-4.45,24.76-9.58,46.6-15.45Z"/><path class="cls-9" d="M1422,480.12c16.22,21.09,37.37,29.5,51.25,34.35a7.24,7.24,0,0,1,11.44,4.22c2,1,3.12,1.91,3.08,3,0,1.38-1.86,2.68-5.27,3.9a7.21,7.21,0,0,1-4.89,1.9,7.85,7.85,0,0,1-1.37-.13c-49.57,11.45-251.82,15.45-464,13.78Q993,541,973.71,540.8l-1.81,0-13.23-.16h0a12,12,0,1,1-22.13-.29L917.39,540l-13.46-.22q-10.48-.17-20.91-.36l-11.24-.22c-7.82,1.92-21.08,3.17-36.11,3.16-19.11,0-35.33-2.09-41.18-4.94-146.21-3.9-271.75-10.46-322.47-19a7.25,7.25,0,0,1-10.24-2c-8.93-2-13.74-4.15-13.75-6.37,0-7,47.13-1.62,77.37-37.72a62.07,62.07,0,0,0,8.08-12.05A273.2,273.2,0,0,1,475.66,441l63.17,1.26c1.25-9.28,1.1-20.2.89-34.55l-186.94-1.09a84,84,0,0,0-4.26,18.58c-.7,7.49.25,14.41,4.05,19.63,17.43,23.9,83.66-2.87,85.11,2.56.88,3.33-23.88,13.84-61.13,35.79-23,13.54-30.53,19.54-34,29.75-6.2,18.2,4.62,37.77,9.44,45.49l531,3.1,17.52.1c-.31,2.59-.6,5.22-.85,7.93-6.34,67.67,7.63,143.46,10.64,140.53,2.15-2.09-2.31-43.36,1.42-108.71.85-14.91,2-28.09,3.15-39.66l97.33.57L1589,565.65c-53.67-14.82-65-24.81-64.64-31.36.68-11.15,35.32-9.17,55.31-33.75,18.65-22.94,16-58.52,10.13-86.69l-37.58-.22-148.54-.87C1405.07,442,1408.47,462.52,1422,480.12Z"/><path class="cls-8" d="M531.87,165.68c-23,0-41.59,2.73-41.59,6.15s18.61,6.22,41.58,6.24,41.59-2.73,41.6-6.15S554.84,165.7,531.87,165.68Z"/><path class="cls-8" d="M933.43,183.05q25.23.06,50.68.18l10.45.05,17.67.11q22.29.15,44.5.33a285.79,285.79,0,0,0-44.5-7.82q-8.29-.79-17.06-1.09c-3.66-.12-7.39-.14-11.17-.11A266.07,266.07,0,0,0,938.57,179c-1.6.29-3.13.63-4.7,1-3.81.77-7.54,1.59-11.18,2.49-.79.2-1.61.37-2.39.57h2.21Z"/><path class="cls-8" d="M475.66,441a273.2,273.2,0,0,0,57.82,19.33,55.92,55.92,0,0,0,5.35-18.07Z"/><path class="cls-8" d="M835.67,542.4c15,0,28.29-1.24,36.11-3.16-26.19-.51-52-1.1-77.29-1.78C800.34,540.31,816.56,542.38,835.67,542.4Z"/><path class="cls-9" d="M421.6,336.82a272.79,272.79,0,0,0,64.78,20.72,267,267,0,0,0,53.54,4.39c.23-7,.57-14.59,1.08-22.74Z"/><path class="cls-10" d="M492.79,197c-2.06.83-3.15,1.7-3.17,2.61a1.48,1.48,0,0,0,.41,1A7.32,7.32,0,0,1,492.79,197Z"/><path class="cls-10" d="M668.63,254.52c-.3,3.84,0,8,0,12.1-.3,12.38-.6,25.06.91,37.45.9,8.26,0,16.82,1.8,25.07a97.69,97.69,0,0,1,1.21,13.28,9,9,0,0,0,1.21,5.3,19.35,19.35,0,0,0,2.41-2.06c3.62-5,10-6.49,14.47-11.21,2.41-2.36,6-4.13,7.53-7.08,4.22-8.55,7.84-17.1,9.65-26.54.3-2.07,1.21-2.95,3-3.25,0,4.13-1.21,9.15-3.92,16.23-.3,1.18,0,1.18,0,1.77,3,0,10.55-19.47,7.83-28.32,0-.29-.3-.59-.9-.59-.91.59-.91,2.07-2.11,3.25-1.81-1.77-1.21-3.54-.9-5.31a39.42,39.42,0,0,0,1.2-8,27.44,27.44,0,0,0-.6-8.55c-.3-1.77-.6-4.13-1.81-5.9-2.71-5-4.82-10.32-9-14.75a14.1,14.1,0,0,0-7.24-4.72c-8.44-2.35-17.18-.29-25.62-.88-.3,0-.6.29-.91.88C667.43,246.56,668.93,250.39,668.63,254.52Z"/><path class="cls-10" d="M1507.11,199.2c7.12-.71,11.6-.69,11.61-1.5s-4.43-1.64-12.75-2.45a7.19,7.19,0,0,1,1.14,3.9Z"/><path class="cls-10" d="M1231.71,411.55c-.71-1.6-1.6-2.32-2.85-2.49A3.49,3.49,0,0,0,1231.71,411.55Z"/><path class="cls-10" d="M1324.53,381.09a29.66,29.66,0,0,1-2-2.32l-4.46-5.7-3.2-2.85c-1.25-.18,2.67,4.45,3.38,5.7l3.39,5.17c.89.89,2,2.31,2.85,2.31C1324.53,382.69,1324.88,381.8,1324.53,381.09Z"/><path class="cls-10" d="M1283.91,408.88c.53,1.25,4.63,2.49,2.32.18-2-2-3.75-6.6-4.46-6.6-.35,0,1.07,5,1.07,5.35C1282.84,408.52,1283.73,408.34,1283.91,408.88Z"/><path class="cls-10" d="M541,339.19c-.51,8.15-.85,15.71-1.08,22.74-.59,18.57-.37,33.45-.2,45.78.21,14.35.36,25.27-.89,34.55a55.92,55.92,0,0,1-5.35,18.07,62.07,62.07,0,0,1-8.08,12.05C495.16,508.48,448,503.14,448,510.1c0,2.22,4.82,4.35,13.75,6.37a7.25,7.25,0,1,1,10.24,2c50.72,8.54,176.26,15.1,322.47,19,25.24.68,51.1,1.27,77.29,1.78l11.24.22q10.43.19,20.91.36l13.46.22,19.15.29,22.13.29,13.23.16,1.81,0q19.29.21,38.52.36c212.19,1.67,414.44-2.33,464-13.78a7.25,7.25,0,0,1-3-12.91c-13.88-4.85-35-13.26-51.25-34.35-13.53-17.6-16.93-38.16-18.31-67.36-.47-10-.71-21-1-33.23-.75-28.06-1.31-49.35,5.8-77.38,2-7.83,4.43-17.46,8-27.64,6.78-19.21,17.68-40.43,37.43-55.53a97.11,97.11,0,0,1,39-17.6,7.26,7.26,0,0,1,1.52-7.09c-64-4.61-246-8.92-437.75-10.57q-22.18-.19-44.5-.33l-17.67-.11-10.45-.05q-25.44-.12-50.68-.18l-10.92,0H920.3q-18.76,0-37.28,0c-186.54.17-350.54,3.65-386.22,12.76h.07a7.24,7.24,0,0,1,6.29,10.86c10.29,4.3,24.26,11.55,33.85,26.86,8.17,13,10,26.86,9.66,40.13-.19,7.86-1.12,15.53-1.92,22.74C543,312.24,541.79,326.43,541,339.19Zm827.05,13.86c.73-6,1-12.27,1.62-18.49.36-3.54,1.21-7,.75-10.51a12.43,12.43,0,0,1,.19-3.4l.91-9.41c.42-3.9,1.81-7.83,1.94-12,0-2.51,3.34-2.92,4.34-5.29.76-1.87,2.47-1.44,2.58,0,.14,5.6,2.4,5.58,2.47-1.43.08-3.77,2.74-3.2,5.06-2.49,2.45.9,5.24,2.76,5.43,6.93.19,6.33-.1,12.59-2.15,18.77a140.59,140.59,0,0,0-4.54,19.68c-.52,4.6-1.34,9-1.67,13.44a31.72,31.72,0,0,1-1,3.63,67.86,67.86,0,0,0-2.52,13.67c-.26,5-2.07,9.6-3.57,14.24-.6,1.89-1.07,4-2.47,5.76-.42.65-.68,1.34-1.73.82-.74-.47-1,1.11-1.71,1.72-1.11.92-1.48-2-1.27-3.43.08-.52-.16-1.1-.5-1-1.58.85-1.37-.56-1.42-1.29a10.33,10.33,0,0,0-1-4.11c-1-2.68-.79-5.53-.19-8.5a4.22,4.22,0,0,1,.37-1.38c.21-2.49.76-5.11-.45-7.82C1366.29,358.38,1367.63,355.87,1368.05,353.05Zm-4.75,51.53a26.46,26.46,0,0,1,6.71-3.87,1.76,1.76,0,0,1,2.18.51c2.45,2,3.61,4,5.27,6.91a1.57,1.57,0,0,1,.27,1.48,5.44,5.44,0,0,0-.53,3.52,2.85,2.85,0,0,1-2,2.94c-3,.63-5.87,3.63-8.84,1.92-1.74-.25-3.61.37-4.56-.85s-.32-3.29-.42-4.75c0-.9-.22-1.83-.24-2.74A5.27,5.27,0,0,1,1363.3,404.58Zm-155.81-40.24c1.42-6.41,2.85-12.83,6.94-18.17a14.44,14.44,0,0,1,8.55-5.52c.54,0,2.32-.54,2.68.17-.36,1.25-3.39.89-3.74,2.14.71.71,1.6.36,2.31-.18,3.92-2.13,7-3,11.76-1.24.89.35,2,.71,2.67,1.06a34.54,34.54,0,0,1,3.56,1.79l2,1.24c2.5,1.61,5.88,8.91,6.42,14.61a25.22,25.22,0,0,1-1.43,11.4c-.71,1.79-1.07,3.92-3.38,4.64-.71.17-.71.71-.89,1.24-2.85,1.61-4.28,3.39-8.38,5-2,.71-3.56,1.78-5.34,2.5-2.49.89-4.45,2.49-7.3,4.09,1.42,4.1,2.13,8,4.45,11.4,1.43,2,2.67,2.32,4.1,4.28,2,2.67,3.74,3.21,6.77,2.14,8.9-3.39,11.93-2.85,20-8.37,2.67-1.79,2.67-2.5,5.88-3.39a10.11,10.11,0,0,0,1.32-.63c-.08-2.46-.08-4.92-.08-7.39.18-8.73-.35-17.63.18-26.36.53-7.31.89-14.43,1.25-21.74,0-1.07.35-2.31-.36-3.74-2.49.54-9.08.71-9.08-.35,1.78-.18,5-1.25,7.12-1.43-2.67-.89-6.41.18-8.55.36-3.74,0-4.81-.18-4.81-4.28,3.74-.36,9.8-1.78,13.72-2.14,1.24,0,1.07-.18,1.07-1.42a34,34,0,0,0,0-5.88c-.36-2.67.35-5.35.89-8.2,1.24-.89.53,3.74,1.78,5.7,1.25-2.85,1.07-5.52.71-8.19-.18-2.32.36-3.92,2.5-5.17,4.27,2.32,5.87,6.59,7.12,10.69a113.3,113.3,0,0,1,2.32,11.76c3.74-.36,5.16,0,7.12-.53,1.25-.18,8-1.07,4.1,0,0,.53,6.06-.72,7.48-.72,2.14,0,8.2,1.43,5,2.85-1.25.54,2.32,1.07,3.21,2-2.5,2.68-8,2.68-11.94,3.39-1.24.18-3.38-.18-5.7.18a28.33,28.33,0,0,1-5.88.71c-2.67-.36-2.85.18-2.67,2.85.18,6.59,1.25,12.83,1.6,19.24.36,5.52.89,11,.54,16.39-.18,6.59,1.07,12.83,1.6,19.24.18,3.74.71,7.48,1.07,11.22.36,2.68,2.14,4.28,4.1,5.7a1.34,1.34,0,0,0,1.78.18l3.56-1.78c1.56-.78,3.05-1.66,4.43-2.51-.74-.83-1.65-1.65-.69-1.41.72.18.54-.18,1.07-.18a4,4,0,0,1,1.33.54l1.37-.83c-1.1-1.17-2.82-2.39-3.77-3.45-.71-2.49,2.32.71,4.1,1.43a13.45,13.45,0,0,1,1.66.95,5.39,5.39,0,0,1,2.08-.6c.68,0,.87.89.58,2a28,28,0,0,0,9.93,1.4c2-1.78,3.75-3.56,4.1-5.88.54-4.28-.35-10.87-3.38-15.5-2.85-4.45-7.49-8.73-11.23-12.47a17.14,17.14,0,0,1-3-16.39c1.25-4.1,3-7.66,7.84-8.73a3.33,3.33,0,0,0,2-1.25c2.85-2.14,5.88-2.14,9.09-2.67a35.76,35.76,0,0,0,7.48-2.14c2.14-1.07,4.63.36,7.13.36.71,0-4.81,3.21-1.43,3.21,1.25,0-.89,1.6-3.38,2.67a5.41,5.41,0,0,1-1.79.89c-2,.53-4.09.89-5.16,2.49-1.43,2.14-5,2.68-4.1,6.06a18.16,18.16,0,0,1,.18,3.21c.36,2,5.52,6.95,7.3,8.19a46.59,46.59,0,0,1,10,11.05c2.5,4.27,4.63,15,3.74,19.77-.89,3.21-3.38,6.77-5.34,10.34-2.68,5.16-9.27,6.59-12.83,8.19a14.39,14.39,0,0,1-2.14.71c-1.78.72-6.41.54-9.26-.35-2-.54-6.77-1.61-5.35-2,.89-.18,1.78.71-3.38-2.14a16.37,16.37,0,0,1-3.25-2.26,11.27,11.27,0,0,1-2.1,1.9c-2.67,1.78-2.85,2.67-5.7,3.74a8.32,8.32,0,0,0-2.49,1.25c-3.74,3-6.24,3.21-11.4,2.85-1.07,0-2-.89-3.21.18-.53.53-1.07-.36-1.42-.89-.72-1.43-1.25-2.85-2-4.28-.36-.89-.54-1.78-1.79-1.24-.71.35-.89,0-1.24-.54a25.13,25.13,0,0,1-4.64-10.69c-.17-1.28-.31-2.57-.41-3.86a4.68,4.68,0,0,0-1.19,1.37c-1.78,1.78-8.55,6.06-9.26,6.41-3.92,2-2.32.89-5.88,3.57-.89.53-3.56,1.95-4.45,2.67-2.85,2-5.88,2-7.31,3-3.38,2.49-8.72,2.49-12.82,2.67a11.58,11.58,0,0,1-8-3.21c-4.28-4.1-7.48-7.84-9.26-13.36a9.56,9.56,0,0,1-.54-1.78c-.71-2.85-1.42-4.1-1.6-6.95,0-1.42-.18-6.41-.36-9.44A79,79,0,0,1,1207.49,364.34Zm-61,40.44c.53-6.24.35-12.47.89-18.71.89-9.08,0-18.17.36-27.26l.53-7.66a39.74,39.74,0,0,0-.18-8c-.35-2.14.71-3.39,2.85-3.39,1.43.18,3.21-.18,3.92,1.78.18,1.07,1.25,1.25,2.14,1.25,2.31.18,3.21,1.6,3.74,3.56.89,2.85,1.25,5.7,2.67,8.73a64.91,64.91,0,0,0,6.24-5.88c7.3-8.37,15.32-7.83,23.69-5.52a7.49,7.49,0,0,1,3.57,3c3.38,4.28,7.12,9.09,7.12,15.5a51.3,51.3,0,0,0,1.07,12.65v1.6c-.89,4.63-.36,9.44-.53,14.25a24.28,24.28,0,0,1-2.14,8,37,37,0,0,1-2.32,5.7c-1.6,3.39-2.31,3.74-5.34,8a16.13,16.13,0,0,1-3.74,2.85c-1.25-3.39,3.74-4.28,2.49-7.48-2,2.31-3,5.34-5.88,6.77a3.36,3.36,0,0,0-.53.89c-.72.89.53,2.67-1.25,3a18.58,18.58,0,0,1-5.52.54c-4.28-.18-7.31-2.32-10-5.34-1.78-2-3.38-3.92-5.34-6.24-.89,3.92-.72,7.66-1.25,11.4-.54,5.88.18,11.76-.18,17.64-.18,3.38-.18,6.59-1.42,9.8-.54,1.24-.18,2.67-.36,4.09-.18,1.07,0,2.14-1.07,3.21-2.32-2.32-6.23-2.85-7.3-7.66-.72,2.14-1.07,3.39-1.43,4.81a11.55,11.55,0,0,1-4.45-6.06c-1.25-4.63-.72-9.26-1.25-13.89C1145.27,422.06,1146,413.51,1146.52,404.78ZM840,339.53c1.25,0,1.07-.18,1.07-1.43a32.08,32.08,0,0,0,0-5.88c-.36-2.67.36-5.34.89-8.19,1.25-.89.54,3.74,1.78,5.7,1.25-2.85,1.07-5.52.72-8.2-.18-2.31.35-3.91,2.49-5.16,4.28,2.31,5.88,6.59,7.13,10.69a116,116,0,0,1,2.31,11.76c3.74-.36,5.17,0,7.13-.54,1.24-.18,8-1.07,4.1,0,0,.54,6-.71,7.48-.71a11.33,11.33,0,0,1,1.65.16c0-4.77.06-9.5.16-14.24a25.55,25.55,0,0,1,1.43-8.19,7.23,7.23,0,0,1,7.3,2.49c.72-.89.72-2.14,2-1.78,1.07.18,1.07,1.07,1.07,1.78.36,1.6.54,3,2.32,3.56.71.18.71.89.89,1.43.89,3.56,2.31,7.13,2.85,11,.18,2-.36,3.92,0,5.88,1.25,5.17.71,10.34.36,15.5,0,3,.89,6.06.53,9.62,2.49-1.78,3.74-3.92,5.34-5.88a29.82,29.82,0,0,1,6.77-6.59,12.65,12.65,0,0,1,8.87-2.11,13,13,0,0,1,3.07.86,15.29,15.29,0,0,1,3.73,2.2,57.22,57.22,0,0,1,4.82,4.58,3,3,0,0,1,.36,2.49c0,2,0,3.74-.18,5.7,0,1.78.53,3.56.53,5.34,0,3.92-.71,7.67-.71,11.58-.18,5.17.54,10.16,1.07,15.15a57,57,0,0,1,.18,7.84c-.18,2.49.18,5.16-.36,7.66a3.93,3.93,0,0,0,1.07,3.56c.53.36,1.07-.18,1.6-.54,1.07-.53.18,1.43,3.57-1.78,3.56-3.56,6.95-4.45,11-8a49,49,0,0,1,5.49-4c-.05-1.26-.11-2.5-.17-3.53A79,79,0,0,1,953.29,380c1.42-6.41,2.85-12.82,6.94-18.17a18,18,0,0,1,3.2-3.11,13,13,0,0,1,5.35-2.41c.54,0,2.32-.53,2.68.18-.36,1.25-3.39.89-3.74,2.14.71.71,1.6.35,2.31-.18a17.38,17.38,0,0,1,5.08-2,12,12,0,0,1,6.68.75c.89.36,2,.71,2.67,1.07A32.71,32.71,0,0,1,988,360l2,1.25c2.49,1.6,5.87,8.91,6.41,14.61a25.26,25.26,0,0,1-1.43,11.4c-.71,1.78-1.07,3.92-3.38,4.63-.71.18-.71.71-.89,1.25-2.79,1.56-4.23,3.3-8.1,4.87l-.28.12c-2,.71-3.56,1.78-5.34,2.49-2.49.89-4.45,2.49-7.3,4.1,1.42,4.1,2.13,8,4.45,11.4,1.42,2,2.67,2.32,4.1,4.27,1.81,2.47,3.48,3.1,6.1,2.34l.67-.2c8.9-3.38,11.93-2.85,20-8.37,2.67-1.78,2.67-2.49,5.88-3.39a10.72,10.72,0,0,0,1.4-.67c.32-.18.63-.36.92-.55.14-6.13.55-12.28,1.05-18.52.35-4.63.18-9.27.53-13.9.54-7.12-.53-14.07-.18-21,0-1.6-.53-3.74.72-4.45a6.8,6.8,0,0,1,5.34-.54,4,4,0,0,0,3.92-.35,9.3,9.3,0,0,1,7.31-1.25c.71.18,1.42.36,1.24,1.07-.71,1.6.18,2.14,1.25,3a12.89,12.89,0,0,1,3,6.23c.89,4.46,3,8.37,4.81,12.65,1.78,4.63,3.21,9.09,5.52,13.54.71,1.6.54,3.38,1.07,5.34,1.25-1.42,1.07-3,1.6-4.45l9.27-28.5a38.12,38.12,0,0,1,4.45-9.45,1.3,1.3,0,0,1,1.25-.71,20.13,20.13,0,0,0,3.92,9.09c0-3-.89-5.35-1.25-7.66,1.6-.54,3-.89,4.28-2.14,1.78-2.14,5-1.25,7.3,1.42a9.71,9.71,0,0,1,2,6.95,30.34,30.34,0,0,0,.89,8.91c.71,2.32.54,5,.54,7.48-.36,11.76,0,23.52.35,35.1a105.76,105.76,0,0,1-.89,15c-.89.36-1.07-1.07-2.14-.89-.35.54-.17,1.07-.35,1.61-.71,1.24-1.25,2.67-3.39,2.67-1.42,0-2.49,1.42-4.45,0-1.25-1.25-2.32.71-2.67,2.14-3.74-1.43-5-4.64-5.88-8a51.48,51.48,0,0,1-1.43-12.83c0-10.87-.35-21.73,0-32.42,0-.54-.18-.89-.18-1.43-.17.18-.53.36-.53.54a195.42,195.42,0,0,1-10.51,28,10.55,10.55,0,0,0-1.07,6.23c.18,1.43-.54,2-1.78,1.25-.89-.36-1.61-1.07-2.85-.89-.36,2,.71,4.1,0,6.06-4.81.53-8.38-1.78-10.34-6.24-2.31-5.17-4.09-10.51-6.41-15.68a51,51,0,0,1-4.45-16,15.78,15.78,0,0,0-2-6.23c.53,10.86-.18,20.84-.89,30.81-.36,5.17-.54,10.34-.72,15.33-.17,3.92-1.24,7.83-2,11.75a1.58,1.58,0,0,1-2-.35c-3.2-4.46-3.2-4.46-3.38-10.34,0-1.17,0-2.34,0-3.52-.3.21-.59.41-.87.65a4.42,4.42,0,0,0-1.05,1.24c-1.78,1.78-8.55,6.06-9.26,6.42-3.92,2-2.32.89-5.88,3.56-.89.53-3.56,2-4.45,2.67-2.69,1.85-5.51,2-7,2.86l-.29.17c-3.38,2.49-8.73,2.49-12.82,2.67l-.5,0a11.54,11.54,0,0,1-7.52-3.18c-4.28-4.1-7.48-7.84-9.26-13.37a9.34,9.34,0,0,1-.54-1.78c-.71-2.85-1.42-4.09-1.6-6.94,0-.41,0-1.1,0-1.95a14.92,14.92,0,0,0-4,4.81c-.54.71-1.61,2.49-2.5,2.67-2.49.53-3.2,2-4.81,3.74-1.25,1.43-2.85,2.32-3.92,3.92a17.43,17.43,0,0,1-4.45,4.45c-4.63,3-1.25.36-5.7,3.92-1.07.89-2,1.43-3.21,1.07l-1.25-.18c-1.06,0-1.6,1.79-2.67.89-1.6-1.24-3.56-2.13-4.45-4.09-.18-.54-.54-.89-.71-1.43-1.07-4.27-2.5-8.55-2-13.18.35-3.56.71-7.31,1.24-10.87a24.67,24.67,0,0,0-.18-7.3c-1.24-5.88-.35-11.58-.17-17.46.17-6.24,1.24-10.87,2.14-17.1.35-1.43.35-2.85-1.07-3.57-1.07-.53-2.14-1.07-3.21-.53a6.08,6.08,0,0,0-2.14,1.6l-3.21,2.85c-.35.36-.71.36-1.42,1.07-1.78,1.6-3.21,3.56-5.17,5.34a2.87,2.87,0,0,0-1.07,1.61,28.34,28.34,0,0,0-2.67,12.65,78.66,78.66,0,0,0,1.25,13,45.06,45.06,0,0,1-.18,16.21,20.29,20.29,0,0,0,.18,7.31,22.72,22.72,0,0,1-.54,7c-.17,1.24-.35,2.67-2.31,2.67-1.43,0-.71,2.14-2.32,2.14-1.42-.72-2.85-1.61-4.63-.36a1.15,1.15,0,0,1-1.6-.36,26.85,26.85,0,0,1-2.24-2.44,8.91,8.91,0,0,1-2.22-5.75c-.09-.58-.14-1.21-.27-1.8-2.49,1.58-3.39,3.63-5.46,5-2.67,1.78-2.85,2.67-5.7,3.74a8.13,8.13,0,0,0-2.5,1.25c-3.74,3-6.23,3.2-11.4,2.85-1.07,0-2-.89-3.21.18-.53.53-1.06-.36-1.42-.9-.71-1.42-1.25-2.85-2-4.27-.36-.89-.53-1.78-1.78-1.25-.72.36-.89,0-1.25-.53a25.17,25.17,0,0,1-4.63-10.69,113.28,113.28,0,0,1-.71-15.5c.17-8.73-.36-17.64.17-26.37.54-7.3.89-14.43,1.25-21.73,0-1.07.36-2.32-.36-3.74-2.49.53-9.08.71-9.08-.36,1.78-.18,5-1.25,7.13-1.42-2.68-.89-6.42.17-8.56.35-3.74,0-4.81-.18-4.81-4.27C830,341.31,836.05,339.88,840,339.53ZM590.12,293.31c2.93-11.21,32.14-36.75,47.4-46.65-.07-1-.15-2-.24-3-.3-1.77,0-3-.3-4.13s-5.43-1.77-5.73-2.95c.61-2.06,5.13-1.77,5.73-4.42.3-1.48,3.32-3,4.82-2.36,2.72,1.47,6.64,0,9.05,2.95a2,2,0,0,0,1.81,1.18c4.82-1.18,9.64.59,14.47.29,9-.29,18.08-1.18,26.82,0,10.25.89,20.5,1.48,29.24,7.67a64.33,64.33,0,0,1,12.36,11.5c3.32,4.13,3.62,8.56,5.73,12.69.3.88,0,2.06.3,2.94.13.57.24,1.16.34,1.77a51.63,51.63,0,0,1,12,1.46c3.72.91,26.45,6.45,33.35,26.26.88,2.52,6.08,18.38-3.54,29.81a28.65,28.65,0,0,1-9.5,7.18c.19,1.14.38,2.26.58,3.37,3.74-.36,5.16,0,7.12-.54,1.25-.18,8-1.07,4.1,0,0,.54,6.06-.71,7.48-.71,2.14,0,8.2,1.42,5,2.85-1.25.53,2.32,1.07,3.21,2-2.5,2.67-8,2.67-11.94,3.38-1.25.18-3.38-.17-5.7.18a27.67,27.67,0,0,1-5.88.71c-2.67-.35-2.85.18-2.67,2.85.18,6.6,1.25,12.83,1.6,19.25.36,5.52.89,11,.54,16.39-.18,6.59,1.07,12.82,1.6,19.24.18,3.74.71,7.48,1.07,11.22.36,2.67,2.14,4.28,4.1,5.7a1.36,1.36,0,0,0,1.78.18l3.56-1.78c5-2.5,9.27-6.06,11.58-6.06,1.43,0,.71,3.92-2.14,5.52-2.67,1.61-3.56,3.74-5.7,5.17-2.67,1.78-2.85,2.67-5.7,3.74a8.09,8.09,0,0,0-2.49,1.25c-3.74,3-6.24,3.2-11.4,2.85-1.07,0-2-.89-3.21.18-.53.53-1.07-.36-1.43-.9-.71-1.42-1.24-2.85-2-4.27-.35-.89-.53-1.78-1.78-1.25-.71.36-.89,0-1.24-.53a26.24,26.24,0,0,1-3.67-7c-1.31.84-2.35,1.48-2.6,1.61-3.92,2-2.32.89-5.88,3.56-.89.53-3.56,2-4.45,2.67-2.86,2-5.88,2-7.31,3-3.38,2.5-8.73,2.5-12.83,2.67a11.59,11.59,0,0,1-8-3.2c-4.28-4.1-7.49-7.84-9.27-13.36a10.32,10.32,0,0,1-.53-1.79c-.71-2.85-1.43-4.09-1.6-6.94,0-1.43-.18-6.42-.36-9.45a78.86,78.86,0,0,1,1.6-19.41c1.43-6.42,2.85-12.83,6.95-18.18a14.44,14.44,0,0,1,8.55-5.52c.54,0,2.32-.53,2.67.18-.35,1.25-3.38.89-3.74,2.14.72.71,1.61.35,2.32-.18,3.92-2.14,6.95-3,11.76-1.25.89.36,2,.71,2.67,1.07a32.71,32.71,0,0,1,3.56,1.78l2,1.25c2.5,1.6,5.88,8.91,6.42,14.61a25.26,25.26,0,0,1-1.43,11.4c-.71,1.78-1.07,3.92-3.38,4.63-.72.18-.72.71-.9,1.25-2.85,1.6-4.27,3.38-8.37,5-2,.71-3.56,1.78-5.34,2.49-2.5.89-4.46,2.49-7.31,4.1,1.43,4.1,2.14,8,4.46,11.4,1.42,2,2.67,2.32,4.09,4.28,2,2.67,3.74,3.2,6.77,2.13,8.3-3.15,11.5-2.91,18.37-7.31a126.37,126.37,0,0,1-.52-13.88c.18-8.73-.35-17.64.18-26.37.53-7.3.89-14.43,1.25-21.73,0-1.07.35-2.32-.36-3.74-2.49.53-9.08.71-9.08-.36,1.78-.18,5-1.25,7.12-1.42-2.67-.89-6.41.17-8.55.35-3.74,0-4.81-.18-4.81-4.27,3.74-.36,9.8-1.79,13.72-2.14,1.24,0,1.07-.18,1.07-1.43l0-.55a8.26,8.26,0,0,1-2.77-1.47c-4.17-3.49-.71-9.05-5-23.42-2.1-7.09-3.72-12.3-8.25-15.42a36.05,36.05,0,0,1-1.92,11.55l-2.11,3.84c-4.82,8.26-6.93,14.15-12.06,16.81-5.42,2.65-9.94,6.49-14.77,9.73a9.85,9.85,0,0,1-3,1.77c-9.35,3.84-17.48,9.73-26.23,14.75l-3.92,2.06c-6,2.95-6.33,5.9-6.33,7.08l-.3,5.9c1.81,10.91-.9,21.83.3,32.44a23.51,23.51,0,0,1-.21,6.16c1.27-2.83,2.28-5.13,4.44-5.21,4.09-.15,9.32,7.79,9.78,15h.35a12.42,12.42,0,1,1-12.36,13.44c-.75.22-1.52.42-2.32.59.25,1.71.55,3.42.93,5.12.3,1.48.6,2.66,0,3.84-.3,2.06-1.51,3.24-3.62,2.36-5.13-1.77-14.77,2.06-18.69-7.38a22.07,22.07,0,0,1-.58-5c-.85-.27-1.69-.57-2.53-.89-.56,3.81-1,8.26-1.71,8.26-5.13,0-8.14-2.36-8.44-7.37-.19-2.35-.37-4.58-.35-6.84a41,41,0,0,1-4.31-3.89c-1.57-1.63-15-15.58-10.94-26.92,2.08-5.78,8.5-10.32,12.06-8.57,4,2,1.36,10.61,3.79,19-.11-3.53-.25-7-.25-10.27V379c0-2.36-.91-3.54-3.92-2.95-3,.88-3.92-.59-3-3.25.91-1.76,2.11-4.12,3.62-4.12,3.92-.59,3-2.95,3-5.31-.56-13.38-1.63-26.52-2-39.86-7.38,6.53-18.11,9.75-28.46,5.86C592.54,323.78,586.62,306.68,590.12,293.31Z"/><path class="cls-10" d="M1227.44,411.91a2.68,2.68,0,0,1,.53-.72,61.64,61.64,0,0,0-4.27-5.34c-1.78-1.78-2-4.28-3.39-6.41a3.51,3.51,0,0,0-.18,4.45C1222.09,407.1,1223.88,410.3,1227.44,411.91Z"/><path class="cls-10" d="M1227.08,380.37c2.68-1.78,4.63-3.74,7-5.16,3-2,2.67-4.64,3.56-8.73.18-.54.18-2,.36-2.5a17.51,17.51,0,0,0-.54-7.66,42.67,42.67,0,0,1-1.78-6.05c-.35-1.43-1.07-3.21-2.13-3.75-3.92-1.78-4.64-.71-7.13,2.68-2,2.49-2.67,7.3-2.85,10.33-.54,6.24.36,12.83-.36,18.88a18.89,18.89,0,0,0,.18,4.46C1224.59,382.69,1226.37,380.73,1227.08,380.37Z"/><path class="cls-10" d="M1165.4,397.83a5,5,0,0,0,1.07,3.56,48.6,48.6,0,0,0,7.48,8.38,9.59,9.59,0,0,0,4.28,2A1.54,1.54,0,0,0,1180,411a42.18,42.18,0,0,0,6.06-19.59v-8c.53-6.95-1.25-13.72-1.25-20.67,0-3.38-1.07-6.77-1.6-10.15-.36-2.14-2-3.56-3.21-3.21a18.25,18.25,0,0,0-6.23,2c-4.46,2.32-7,6.77-9.45,10.87a1.73,1.73,0,0,0-.35,1.25c.71,6.41,1.07,12.65,1.24,19.06C1165.4,387.5,1165.94,392.66,1165.4,397.83Z"/><path class="cls-10" d="M858.68,368.75c.35,5.52.89,11,.53,16.39-.18,6.59,1.07,12.82,1.61,19.24.17,3.74.71,7.48,1.06,11.22.36,2.67,2.14,4.28,4.1,5.7a1.36,1.36,0,0,0,1.78.18l3.57-1.78c2.71-1.36,5.21-3,7.3-4.27a15.3,15.3,0,0,1-.32-3.75c0-7.66-.18-15.15,0-22.81,0-5.88-.36-11.75-.89-17.63-.89-7.31-.71-14.61-.71-21.92V345c-1.85.29-3.76.47-5.38.76-1.25.18-3.39-.17-5.7.18a27.84,27.84,0,0,1-5.88.71c-2.68-.35-2.85.18-2.68,2.85C857.25,356.1,858.32,362.33,858.68,368.75Z"/><path class="cls-10" d="M972.88,396c2.67-1.78,4.63-3.74,7-5.17a5.92,5.92,0,0,0,1.71-1.61c1.22-1.77,1.18-4,1.85-7.12.18-.53.18-2,.36-2.49a17.65,17.65,0,0,0-.53-7.66,42,42,0,0,1-1.79-6.06c-.35-1.43-1.07-3.21-2.13-3.74a7.43,7.43,0,0,0-2.94-.82c-1.61,0-2.5,1.2-4.19,3.49-2,2.5-2.67,7.31-2.85,10.33-.54,6.24.36,12.83-.36,18.89a18.79,18.79,0,0,0,.18,4.45C970.39,398.3,972.17,396.34,972.88,396Z"/><path class="cls-10" d="M729,393.86c2.67-1.78,4.63-3.74,6.95-5.17,3-2,2.67-4.63,3.56-8.73.18-.53.18-2,.36-2.49a17.5,17.5,0,0,0-.54-7.66,42.75,42.75,0,0,1-1.78-6.06c-.36-1.42-1.07-3.21-2.14-3.74-3.92-1.78-4.63-.71-7.12,2.67-2,2.5-2.68,7.31-2.85,10.33-.54,6.24.35,12.83-.36,18.89a18.79,18.79,0,0,0,.18,4.45C726.45,396.17,728.24,394.22,729,393.86Z"/><path class="cls-10" d="M730.73,422.54a3.45,3.45,0,0,0,2.85,2.49A3.59,3.59,0,0,0,730.73,422.54Z"/><path class="cls-10" d="M776.55,420.94c.53,1.25,4.63,2.5,2.32.18-2-2-3.75-6.59-4.46-6.59-.36,0,1.07,5,1.07,5.35C775.48,420.59,776.37,420.41,776.55,420.94Z"/><path class="cls-10" d="M722.18,412.92a3.5,3.5,0,0,0-.18,4.45c2,3.21,3.74,6.42,7.31,8a2.25,2.25,0,0,1,.53-.71,61.51,61.51,0,0,0-4.28-5.35C723.78,417.55,723.6,415.06,722.18,412.92Z"/><path class="cls-10" d="M858.14,420.94c.54,1.25,4.64,2.5,2.32.18-2-2-3.74-6.59-4.45-6.59-.36,0,1.06,5,1.06,5.35C857.07,420.59,858,420.41,858.14,420.94Z"/><path class="cls-10" d="M1482.5,525.61c3.41-1.22,5.22-2.52,5.27-3.9,0-1.11-1.07-2.05-3.08-3a6.81,6.81,0,0,1,.18,1.57A7.24,7.24,0,0,1,1482.5,525.61Z"/><path class="cls-10" d="M970.43,425.64a10.55,10.55,0,0,0,2.81,1.88,2.41,2.41,0,0,1,.53-.71c-1.2-1.51-2.29-3.13-3.56-4.57-.24-.26-.46-.53-.71-.78-1.78-1.78-2-4.27-3.39-6.41a3.5,3.5,0,0,0-.18,4.45A27.47,27.47,0,0,0,970.43,425.64Z"/><path class="cls-10" d="M977.51,427.16a3.59,3.59,0,0,0-2.85-2.49A3.46,3.46,0,0,0,977.51,427.16Z"/><path class="cls-11" d="M759.48,337.55l0,.55c0,1.25.17,1.43-1.07,1.43-3.92.35-10,1.78-13.72,2.14,0,4.09,1.07,4.27,4.81,4.27,2.14-.18,5.88-1.24,8.55-.35-2.14.17-5.34,1.24-7.12,1.42,0,1.07,6.59.89,9.08.36.71,1.42.36,2.67.36,3.74-.36,7.3-.72,14.43-1.25,21.73-.53,8.73,0,17.64-.18,26.37a126.37,126.37,0,0,0,.52,13.88c-6.87,4.4-10.07,4.16-18.37,7.31-3,1.07-4.81.54-6.77-2.13-1.42-2-2.67-2.32-4.09-4.28-2.32-3.38-3-7.3-4.46-11.4,2.85-1.61,4.81-3.21,7.31-4.1,1.78-.71,3.38-1.78,5.34-2.49,4.1-1.61,5.52-3.39,8.37-5,.18-.54.18-1.07.9-1.25,2.31-.71,2.67-2.85,3.38-4.63a25.26,25.26,0,0,0,1.43-11.4c-.54-5.7-3.92-13-6.42-14.61l-2-1.25a32.71,32.71,0,0,0-3.56-1.78c-.71-.36-1.78-.71-2.67-1.07-4.81-1.78-7.84-.89-11.76,1.25-.71.53-1.6.89-2.32.18.36-1.25,3.39-.89,3.74-2.14-.35-.71-2.13-.18-2.67-.18a14.44,14.44,0,0,0-8.55,5.52c-4.1,5.35-5.52,11.76-6.95,18.18a78.86,78.86,0,0,0-1.6,19.41c.18,3,.36,8,.36,9.45.17,2.85.89,4.09,1.6,6.94a10.32,10.32,0,0,0,.53,1.79c1.78,5.52,5,9.26,9.27,13.36a11.59,11.59,0,0,0,8,3.2c4.1-.17,9.45-.17,12.83-2.67,1.43-1.07,4.45-1.07,7.31-3,.89-.71,3.56-2.14,4.45-2.67,3.56-2.67,2-1.6,5.88-3.56.25-.13,1.29-.77,2.6-1.61a26.24,26.24,0,0,0,3.67,7c.35.53.53.89,1.24.53,1.25-.53,1.43.36,1.78,1.25.72,1.42,1.25,2.85,2,4.27.36.54.9,1.43,1.43.9,1.25-1.07,2.14-.18,3.21-.18,5.16.35,7.66.18,11.4-2.85a8.09,8.09,0,0,1,2.49-1.25c2.85-1.07,3-2,5.7-3.74,2.14-1.43,3-3.56,5.7-5.17,2.85-1.6,3.57-5.52,2.14-5.52-2.31,0-6.59,3.56-11.58,6.06l-3.56,1.78a1.36,1.36,0,0,1-1.78-.18c-2-1.42-3.74-3-4.1-5.7-.36-3.74-.89-7.48-1.07-11.22-.53-6.42-1.78-12.65-1.6-19.24.35-5.35-.18-10.87-.54-16.39-.35-6.42-1.42-12.65-1.6-19.25-.18-2.67,0-3.2,2.67-2.85a27.67,27.67,0,0,0,5.88-.71c2.32-.35,4.45,0,5.7-.18,3.92-.71,9.44-.71,11.94-3.38-.89-.89-4.46-1.43-3.21-2,3.21-1.43-2.85-2.85-5-2.85-1.42,0-7.48,1.25-7.48.71,3.92-1.07-2.85-.18-4.1,0-2,.54-3.38.18-7.12.54-.2-1.11-.39-2.23-.58-3.37C769,337.94,763.41,338.8,759.48,337.55ZM725,391.9c.71-6.06-.18-12.65.36-18.89.17-3,.89-7.83,2.85-10.33,2.49-3.38,3.2-4.45,7.12-2.67,1.07.53,1.78,2.32,2.14,3.74a42.75,42.75,0,0,0,1.78,6.06,17.5,17.5,0,0,1,.54,7.66c-.18.53-.18,2-.36,2.49-.89,4.1-.53,6.77-3.56,8.73-2.32,1.43-4.28,3.39-6.95,5.17-.71.36-2.5,2.31-3.74,2.49A18.79,18.79,0,0,1,725,391.9Zm4.28,33.49c-3.57-1.6-5.35-4.81-7.31-8a3.5,3.5,0,0,1,.18-4.45c1.42,2.14,1.6,4.63,3.38,6.41a61.51,61.51,0,0,1,4.28,5.35A2.25,2.25,0,0,0,729.31,425.39Zm1.42-2.85a3.59,3.59,0,0,1,2.85,2.49A3.45,3.45,0,0,1,730.73,422.54Zm43.68-8c.71,0,2.49,4.63,4.46,6.59,2.31,2.32-1.79,1.07-2.32-.18-.18-.53-1.07-.35-1.07-1.06C775.48,419.52,774.05,414.53,774.41,414.53Z"/><path class="cls-12" d="M765.64,284.53c13.79,13.69,12.05,35.2,11.81,37.6l-5-.5c.22-2.16,1.8-21.5-10.36-33.57a29.08,29.08,0,0,0-19.51-8.35c.11,2.82.21,5.71.46,8.44a83,83,0,0,1,.41,9.09c4.53,3.12,6.15,8.33,8.25,15.42,4.25,14.37.79,19.93,5,23.42a8.26,8.26,0,0,0,2.77,1.47c3.93,1.25,9.51.39,14.71-2.1a28.65,28.65,0,0,0,9.5-7.18c9.62-11.43,4.42-27.29,3.54-29.81-6.9-19.81-29.63-25.35-33.35-26.26a51.63,51.63,0,0,0-12-1.46c.2,1.26.34,2.6.44,4C751.66,275.13,759.49,278.42,765.64,284.53Z"/><path class="cls-13" d="M772.5,321.63l5,.5c.24-2.4,2-23.91-11.81-37.6-6.15-6.11-14-9.4-23.28-9.8.12,1.61.2,3.28.27,5a29.08,29.08,0,0,1,19.51,8.35C774.3,300.13,772.72,319.47,772.5,321.63Z"/><path class="cls-11" d="M831.06,345.94c2.14-.18,5.88-1.24,8.56-.35-2.14.17-5.35,1.24-7.13,1.42,0,1.07,6.59.89,9.08.36.72,1.42.36,2.67.36,3.74-.36,7.3-.71,14.43-1.25,21.73-.53,8.73,0,17.64-.17,26.37a113.28,113.28,0,0,0,.71,15.5,25.17,25.17,0,0,0,4.63,10.69c.36.53.53.89,1.25.53,1.25-.53,1.42.36,1.78,1.25.71,1.42,1.25,2.85,2,4.27.36.54.89,1.43,1.42.9,1.25-1.07,2.14-.18,3.21-.18,5.17.35,7.66.18,11.4-2.85a8.13,8.13,0,0,1,2.5-1.25c2.85-1.07,3-2,5.7-3.74,2.07-1.38,3-3.43,5.46-5,.13.59.18,1.22.27,1.8a8.91,8.91,0,0,0,2.22,5.75,26.85,26.85,0,0,0,2.24,2.44,1.15,1.15,0,0,0,1.6.36c1.78-1.25,3.21-.36,4.63.36,1.61,0,.89-2.14,2.32-2.14,2,0,2.14-1.43,2.31-2.67a22.72,22.72,0,0,0,.54-7,20.29,20.29,0,0,1-.18-7.31,45.06,45.06,0,0,0,.18-16.21,78.66,78.66,0,0,1-1.25-13,28.34,28.34,0,0,1,2.67-12.65,2.87,2.87,0,0,1,1.07-1.61c2-1.78,3.39-3.74,5.17-5.34.71-.71,1.07-.71,1.42-1.07l3.21-2.85a6.08,6.08,0,0,1,2.14-1.6c1.07-.54,2.14,0,3.21.53,1.42.72,1.42,2.14,1.07,3.57-.9,6.23-2,10.86-2.14,17.1-.18,5.88-1.07,11.58.17,17.46a24.67,24.67,0,0,1,.18,7.3c-.53,3.56-.89,7.31-1.24,10.87-.54,4.63.89,8.91,2,13.18.17.54.53.89.71,1.43.89,2,2.85,2.85,4.45,4.09,1.07.9,1.61-.89,2.67-.89l1.25.18c1.25.36,2.14-.18,3.21-1.07,4.45-3.56,1.07-.89,5.7-3.92a17.43,17.43,0,0,0,4.45-4.45c1.07-1.6,2.67-2.49,3.92-3.92,1.61-1.78,2.32-3.21,4.81-3.74.89-.18,2-2,2.5-2.67a14.92,14.92,0,0,1,4-4.81c0,.85,0,1.54,0,1.95.18,2.85.89,4.09,1.6,6.94a9.34,9.34,0,0,0,.54,1.78c1.78,5.53,5,9.27,9.26,13.37a11.54,11.54,0,0,0,7.52,3.18l.5,0c4.09-.18,9.44-.18,12.82-2.67l.29-.17c1.51-.9,4.33-1,7-2.86.89-.71,3.56-2.14,4.45-2.67,3.56-2.67,2-1.6,5.88-3.56.71-.36,7.48-4.64,9.26-6.42a4.42,4.42,0,0,1,1.05-1.24c.28-.24.57-.44.87-.65,0,1.18,0,2.35,0,3.52.18,5.88.18,5.88,3.38,10.34a1.58,1.58,0,0,0,2,.35c.72-3.92,1.79-7.83,2-11.75.18-5,.36-10.16.72-15.33.71-10,1.42-19.95.89-30.81a15.78,15.78,0,0,1,2,6.23,51,51,0,0,0,4.45,16c2.32,5.17,4.1,10.51,6.41,15.68,2,4.46,5.53,6.77,10.34,6.24.71-2-.36-4.1,0-6.06,1.24-.18,2,.53,2.85.89,1.24.71,2,.18,1.78-1.25a10.55,10.55,0,0,1,1.07-6.23,195.42,195.42,0,0,0,10.51-28c0-.18.36-.36.53-.54,0,.54.18.89.18,1.43-.35,10.69,0,21.55,0,32.42a51.48,51.48,0,0,0,1.43,12.83c.89,3.38,2.14,6.59,5.88,8,.35-1.43,1.42-3.39,2.67-2.14,2,1.42,3,0,4.45,0,2.14,0,2.68-1.43,3.39-2.67.18-.54,0-1.07.35-1.61,1.07-.18,1.25,1.25,2.14.89a105.76,105.76,0,0,0,.89-15c-.35-11.58-.71-23.34-.35-35.1,0-2.49.17-5.16-.54-7.48a30.34,30.34,0,0,1-.89-8.91,9.71,9.71,0,0,0-2-6.95c-2.32-2.67-5.52-3.56-7.3-1.42-1.25,1.25-2.68,1.6-4.28,2.14.36,2.31,1.25,4.63,1.25,7.66a20.13,20.13,0,0,1-3.92-9.09,1.3,1.3,0,0,0-1.25.71,38.12,38.12,0,0,0-4.45,9.45l-9.27,28.5c-.53,1.43-.35,3-1.6,4.45-.53-2-.36-3.74-1.07-5.34-2.31-4.45-3.74-8.91-5.52-13.54-1.78-4.28-3.92-8.19-4.81-12.65a12.89,12.89,0,0,0-3-6.23c-1.07-.89-2-1.43-1.25-3,.18-.71-.53-.89-1.24-1.07a9.3,9.3,0,0,0-7.31,1.25,4,4,0,0,1-3.92.35,6.8,6.8,0,0,0-5.34.54c-1.25.71-.72,2.85-.72,4.45-.35,6.95.72,13.9.18,21-.35,4.63-.18,9.27-.53,13.9-.5,6.24-.91,12.39-1.05,18.52-.29.19-.6.37-.92.55a10.72,10.72,0,0,1-1.4.67c-3.21.9-3.21,1.61-5.88,3.39-8,5.52-11.05,5-20,8.37l-.67.2c-2.62.76-4.29.13-6.1-2.34-1.43-1.95-2.68-2.31-4.1-4.27-2.32-3.39-3-7.3-4.45-11.4,2.85-1.61,4.81-3.21,7.3-4.1,1.78-.71,3.38-1.78,5.34-2.49l.28-.12c3.87-1.57,5.31-3.31,8.1-4.87.18-.54.18-1.07.89-1.25,2.31-.71,2.67-2.85,3.38-4.63a25.26,25.26,0,0,0,1.43-11.4c-.54-5.7-3.92-13-6.41-14.61L988,360a32.71,32.71,0,0,0-3.56-1.78c-.71-.36-1.78-.71-2.67-1.07a12,12,0,0,0-6.68-.75,17.38,17.38,0,0,0-5.08,2c-.71.53-1.6.89-2.31.18.35-1.25,3.38-.89,3.74-2.14-.36-.71-2.14-.18-2.68-.18a13,13,0,0,0-5.35,2.41,18,18,0,0,0-3.2,3.11c-4.09,5.35-5.52,11.76-6.94,18.17a79,79,0,0,0-1.61,19.42c.06,1,.12,2.27.17,3.53a49,49,0,0,0-5.49,4c-4.09,3.56-7.48,4.45-11,8-3.39,3.21-2.5,1.25-3.57,1.78-.53.36-1.07.9-1.6.54a3.93,3.93,0,0,1-1.07-3.56c.54-2.5.18-5.17.36-7.66a57,57,0,0,0-.18-7.84c-.53-5-1.25-10-1.07-15.15,0-3.91.71-7.66.71-11.58,0-1.78-.53-3.56-.53-5.34.18-2,.18-3.74.18-5.7a3,3,0,0,0-.36-2.49,57.22,57.22,0,0,0-4.82-4.58,15.29,15.29,0,0,0-3.73-2.2,13,13,0,0,0-3.07-.86,12.65,12.65,0,0,0-8.87,2.11,29.82,29.82,0,0,0-6.77,6.59c-1.6,2-2.85,4.1-5.34,5.88.36-3.56-.53-6.59-.53-9.62.35-5.16.89-10.33-.36-15.5-.36-2,.18-3.92,0-5.88-.54-3.91-2-7.48-2.85-11-.18-.54-.18-1.25-.89-1.43-1.78-.53-2-2-2.32-3.56,0-.71,0-1.6-1.07-1.78-1.24-.36-1.24.89-2,1.78a7.23,7.23,0,0,0-7.3-2.49,25.55,25.55,0,0,0-1.43,8.19c-.1,4.74-.14,9.47-.16,14.24a11.33,11.33,0,0,0-1.65-.16c-1.43,0-7.48,1.25-7.48.71,3.91-1.07-2.86-.18-4.1,0-2,.54-3.39.18-7.13.54a116,116,0,0,0-2.31-11.76c-1.25-4.1-2.85-8.38-7.13-10.69-2.14,1.25-2.67,2.85-2.49,5.16.35,2.68.53,5.35-.72,8.2-1.24-2-.53-6.59-1.78-5.7-.53,2.85-1.25,5.52-.89,8.19a32.08,32.08,0,0,1,0,5.88c0,1.25.18,1.43-1.07,1.43-3.92.35-10,1.78-13.72,2.14C826.25,345.76,827.32,345.94,831.06,345.94Zm146.45,81.22a3.46,3.46,0,0,1-2.85-2.49A3.59,3.59,0,0,1,977.51,427.16ZM969,394c.72-6.06-.18-12.65.36-18.89.18-3,.89-7.83,2.85-10.33,1.69-2.29,2.58-3.49,4.19-3.49a7.43,7.43,0,0,1,2.94.82c1.06.53,1.78,2.31,2.13,3.74a42,42,0,0,0,1.79,6.06,17.65,17.65,0,0,1,.53,7.66c-.18.53-.18,2-.36,2.49-.67,3.08-.63,5.35-1.85,7.12a5.92,5.92,0,0,1-1.71,1.61c-2.32,1.43-4.28,3.39-7,5.17-.71.35-2.49,2.31-3.74,2.49A18.79,18.79,0,0,1,969,394Zm-2.85,21c1.43,2.14,1.61,4.63,3.39,6.41.25.25.47.52.71.78,1.27,1.44,2.36,3.06,3.56,4.57a2.41,2.41,0,0,0-.53.71,10.55,10.55,0,0,1-2.81-1.88,27.47,27.47,0,0,1-4.5-6.14A3.5,3.5,0,0,1,966.11,415.05Zm-106.36-68.4a27.84,27.84,0,0,0,5.88-.71c2.31-.35,4.45,0,5.7-.18,1.62-.29,3.53-.47,5.38-.76v4.32c0,7.31-.18,14.61.71,21.92.53,5.88.89,11.75.89,17.63-.18,7.66,0,15.15,0,22.81a15.3,15.3,0,0,0,.32,3.75c-2.09,1.24-4.59,2.91-7.3,4.27l-3.57,1.78a1.36,1.36,0,0,1-1.78-.18c-2-1.42-3.74-3-4.1-5.7-.35-3.74-.89-7.48-1.06-11.22-.54-6.42-1.79-12.65-1.61-19.24.36-5.35-.18-10.87-.53-16.39-.36-6.42-1.43-12.65-1.61-19.25C856.9,346.83,857.07,346.3,859.75,346.65ZM856,414.53c.71,0,2.49,4.63,4.45,6.59,2.32,2.32-1.78,1.07-2.32-.18-.17-.53-1.07-.35-1.07-1.06C857.07,419.52,855.65,414.53,856,414.53Z"/><path class="cls-11" d="M1147.59,444.68a11.55,11.55,0,0,0,4.45,6.06c.36-1.42.71-2.67,1.43-4.81,1.07,4.81,5,5.34,7.3,7.66,1.07-1.07.89-2.14,1.07-3.21.18-1.42-.18-2.85.36-4.09,1.24-3.21,1.24-6.42,1.42-9.8.36-5.88-.36-11.76.18-17.64.53-3.74.36-7.48,1.25-11.4,2,2.32,3.56,4.28,5.34,6.24,2.67,3,5.7,5.16,10,5.34a18.58,18.58,0,0,0,5.52-.54c1.78-.35.53-2.13,1.25-3a3.36,3.36,0,0,1,.53-.89c2.85-1.43,3.92-4.46,5.88-6.77,1.25,3.2-3.74,4.09-2.49,7.48a16.13,16.13,0,0,0,3.74-2.85c3-4.28,3.74-4.63,5.34-8a37,37,0,0,0,2.32-5.7,24.28,24.28,0,0,0,2.14-8c.17-4.81-.36-9.62.53-14.25v-1.6a51.3,51.3,0,0,1-1.07-12.65c0-6.41-3.74-11.22-7.12-15.5a7.49,7.49,0,0,0-3.57-3c-8.37-2.31-16.39-2.85-23.69,5.52a64.91,64.91,0,0,1-6.24,5.88c-1.42-3-1.78-5.88-2.67-8.73-.53-2-1.43-3.38-3.74-3.56-.89,0-2-.18-2.14-1.25-.71-2-2.49-1.6-3.92-1.78-2.14,0-3.2,1.25-2.85,3.39a39.74,39.74,0,0,1,.18,8l-.53,7.66c-.36,9.09.53,18.18-.36,27.26-.54,6.24-.36,12.47-.89,18.71-.54,8.73-1.25,17.28-.18,26C1146.87,435.42,1146.34,440.05,1147.59,444.68Zm16.74-82.48c2.5-4.1,5-8.55,9.45-10.87a18.25,18.25,0,0,1,6.23-2c1.25-.35,2.85,1.07,3.21,3.21.53,3.38,1.6,6.77,1.6,10.15,0,6.95,1.78,13.72,1.25,20.67v8A42.18,42.18,0,0,1,1180,411a1.54,1.54,0,0,1-1.78.72,9.59,9.59,0,0,1-4.28-2,48.6,48.6,0,0,1-7.48-8.38,5,5,0,0,1-1.07-3.56c.54-5.17,0-10.33-.18-15.32-.17-6.41-.53-12.65-1.24-19.06A1.73,1.73,0,0,1,1164.33,362.2Z"/><path class="cls-11" d="M1206.24,393.2c.18,2.85.89,4.1,1.6,6.95a9.56,9.56,0,0,0,.54,1.78c1.78,5.52,5,9.26,9.26,13.36a11.58,11.58,0,0,0,8,3.21c4.1-.18,9.44-.18,12.82-2.67,1.43-1.07,4.46-1.07,7.31-3,.89-.72,3.56-2.14,4.45-2.67,3.56-2.68,2-1.61,5.88-3.57.71-.35,7.48-4.63,9.26-6.41a4.68,4.68,0,0,1,1.19-1.37c.1,1.29.24,2.58.41,3.86a25.13,25.13,0,0,0,4.64,10.69c.35.54.53.89,1.24.54,1.25-.54,1.43.35,1.79,1.24.71,1.43,1.24,2.85,2,4.28.35.53.89,1.42,1.42.89,1.25-1.07,2.14-.18,3.21-.18,5.16.36,7.66.18,11.4-2.85a8.32,8.32,0,0,1,2.49-1.25c2.85-1.07,3-2,5.7-3.74a11.27,11.27,0,0,0,2.1-1.9,16.37,16.37,0,0,0,3.25,2.26c5.16,2.85,4.27,2,3.38,2.14-1.42.35,3.39,1.42,5.35,2,2.85.89,7.48,1.07,9.26.35a14.39,14.39,0,0,0,2.14-.71c3.56-1.6,10.15-3,12.83-8.19,2-3.57,4.45-7.13,5.34-10.34.89-4.81-1.24-15.5-3.74-19.77a46.59,46.59,0,0,0-10-11.05c-1.78-1.24-6.94-6.23-7.3-8.19a18.16,18.16,0,0,0-.18-3.21c-.89-3.38,2.67-3.92,4.1-6.06,1.07-1.6,3.2-2,5.16-2.49a5.41,5.41,0,0,0,1.79-.89c2.49-1.07,4.63-2.67,3.38-2.67-3.38,0,2.14-3.21,1.43-3.21-2.5,0-5-1.43-7.13-.36a35.76,35.76,0,0,1-7.48,2.14c-3.21.53-6.24.53-9.09,2.67a3.33,3.33,0,0,1-2,1.25c-4.81,1.07-6.59,4.63-7.84,8.73a17.14,17.14,0,0,0,3,16.39c3.74,3.74,8.38,8,11.23,12.47,3,4.63,3.92,11.22,3.38,15.5-.35,2.32-2.14,4.1-4.1,5.88a28,28,0,0,1-9.93-1.4c.29-1.1.1-2-.58-2a5.39,5.39,0,0,0-2.08.6,13.45,13.45,0,0,0-1.66-.95c-1.78-.72-4.81-3.92-4.1-1.43,1,1.06,2.67,2.28,3.77,3.45l-1.37.83a4,4,0,0,0-1.33-.54c-.53,0-.35.36-1.07.18-1-.24,0,.58.69,1.41-1.38.85-2.87,1.73-4.43,2.51l-3.56,1.78a1.34,1.34,0,0,1-1.78-.18c-2-1.42-3.74-3-4.1-5.7-.36-3.74-.89-7.48-1.07-11.22-.53-6.41-1.78-12.65-1.6-19.24.35-5.35-.18-10.87-.54-16.39-.35-6.41-1.42-12.65-1.6-19.24-.18-2.67,0-3.21,2.67-2.85a28.33,28.33,0,0,0,5.88-.71c2.32-.36,4.46,0,5.7-.18,3.92-.71,9.44-.71,11.94-3.39-.89-.89-4.46-1.42-3.21-2,3.21-1.42-2.85-2.85-5-2.85-1.42,0-7.48,1.25-7.48.72,3.92-1.07-2.85-.18-4.1,0-2,.53-3.38.17-7.12.53a113.3,113.3,0,0,0-2.32-11.76c-1.25-4.1-2.85-8.37-7.12-10.69-2.14,1.25-2.68,2.85-2.5,5.17.36,2.67.54,5.34-.71,8.19-1.25-2-.54-6.59-1.78-5.7-.54,2.85-1.25,5.53-.89,8.2a34,34,0,0,1,0,5.88c0,1.24.17,1.42-1.07,1.42-3.92.36-10,1.78-13.72,2.14,0,4.1,1.07,4.28,4.81,4.28,2.14-.18,5.88-1.25,8.55-.36-2.14.18-5.34,1.25-7.12,1.43,0,1.06,6.59.89,9.08.35.71,1.43.36,2.67.36,3.74-.36,7.31-.72,14.43-1.25,21.74-.53,8.73,0,17.63-.18,26.36,0,2.47,0,4.93.08,7.39a10.11,10.11,0,0,1-1.32.63c-3.21.89-3.21,1.6-5.88,3.39-8,5.52-11.05,5-20,8.37-3,1.07-4.81.53-6.77-2.14-1.43-2-2.67-2.32-4.1-4.28-2.32-3.38-3-7.3-4.45-11.4,2.85-1.6,4.81-3.2,7.3-4.09,1.78-.72,3.38-1.79,5.34-2.5,4.1-1.6,5.53-3.38,8.38-5,.18-.53.18-1.07.89-1.24,2.31-.72,2.67-2.85,3.38-4.64a25.22,25.22,0,0,0,1.43-11.4c-.54-5.7-3.92-13-6.42-14.61l-2-1.24a34.54,34.54,0,0,0-3.56-1.79c-.71-.35-1.78-.71-2.67-1.06-4.81-1.78-7.84-.89-11.76,1.24-.71.54-1.6.89-2.31.18.35-1.25,3.38-.89,3.74-2.14-.36-.71-2.14-.17-2.68-.17a14.44,14.44,0,0,0-8.55,5.52c-4.09,5.34-5.52,11.76-6.94,18.17a79,79,0,0,0-1.61,19.42C1206.06,386.79,1206.24,391.78,1206.24,393.2Zm115.44-12.11-3.39-5.17c-.71-1.25-4.63-5.88-3.38-5.7l3.2,2.85,4.46,5.7a29.66,29.66,0,0,0,2,2.32c.35.71,0,1.6,0,2.31C1323.64,383.4,1322.57,382,1321.68,381.09Zm-39.91,21.37c.71,0,2.5,4.64,4.46,6.6,2.31,2.31-1.79,1.07-2.32-.18-.18-.54-1.07-.36-1.07-1.07C1282.84,407.45,1281.42,402.46,1281.77,402.46Zm-50.06,9.09a3.49,3.49,0,0,1-2.85-2.49C1230.11,409.23,1231,410,1231.71,411.55Zm-8.55-33.14c.72-6.05-.18-12.64.36-18.88.18-3,.89-7.84,2.85-10.33,2.49-3.39,3.21-4.46,7.13-2.68,1.06.54,1.78,2.32,2.13,3.75a42.67,42.67,0,0,0,1.78,6.05A17.51,17.51,0,0,1,1238,364c-.18.54-.18,2-.36,2.5-.89,4.09-.53,6.77-3.56,8.73-2.32,1.42-4.27,3.38-7,5.16-.71.36-2.49,2.32-3.74,2.5A18.89,18.89,0,0,1,1223.16,378.41Zm-2.85,21c1.43,2.13,1.61,4.63,3.39,6.41a61.64,61.64,0,0,1,4.27,5.34,2.68,2.68,0,0,0-.53.72c-3.56-1.61-5.35-4.81-7.31-8A3.51,3.51,0,0,1,1220.31,399.44Z"/><path class="cls-11" d="M1367.93,369.07a4.22,4.22,0,0,0-.37,1.38c-.6,3-.86,5.82.19,8.5a10.33,10.33,0,0,1,1,4.11c0,.73-.16,2.14,1.42,1.29.34-.13.58.45.5,1-.21,1.41.16,4.35,1.27,3.43.73-.61,1-2.19,1.71-1.72,1,.52,1.31-.17,1.73-.82,1.4-1.78,1.87-3.87,2.47-5.76,1.5-4.64,3.31-9.23,3.57-14.24a67.86,67.86,0,0,1,2.52-13.67,31.72,31.72,0,0,0,1-3.63c.33-4.46,1.15-8.84,1.67-13.44a140.59,140.59,0,0,1,4.54-19.68c2-6.18,2.34-12.44,2.15-18.77-.19-4.17-3-6-5.43-6.93-2.32-.71-5-1.28-5.06,2.49-.07,7-2.33,7-2.47,1.43-.11-1.46-1.82-1.89-2.58,0-1,2.37-4.29,2.78-4.34,5.29-.13,4.13-1.52,8.06-1.94,12l-.91,9.41a12.43,12.43,0,0,0-.19,3.4c.46,3.49-.39,7-.75,10.51-.6,6.22-.89,12.48-1.62,18.49-.42,2.82-1.76,5.33-.57,8.2C1368.69,364,1368.14,366.58,1367.93,369.07Z"/><path class="cls-11" d="M1361.33,412.39c.1,1.46-.53,3.53.42,4.75s2.82.6,4.56.85c3,1.71,5.84-1.29,8.84-1.92a2.85,2.85,0,0,0,2-2.94,5.44,5.44,0,0,1,.53-3.52,1.57,1.57,0,0,0-.27-1.48c-1.66-2.95-2.82-4.93-5.27-6.91a1.76,1.76,0,0,0-2.18-.51,26.46,26.46,0,0,0-6.71,3.87,5.27,5.27,0,0,0-2.21,5.07C1361.11,410.56,1361.3,411.49,1361.33,412.39Z"/><path class="cls-11" d="M646,245.61c-13.19,24.61,3.38,52.65-2.32,67a28.78,28.78,0,0,1-7.77,10.85c.4,13.34,1.47,26.48,2,39.86,0,2.36.9,4.72-3,5.31-1.51,0-2.71,2.36-3.62,4.12-.9,2.66,0,4.13,3,3.25,3-.59,3.92.59,3.92,2.95v15.63c0,3.26.14,6.74.25,10.27a20,20,0,0,0,2.68,5.78c5.55,8.1,17.47,11.8,24.86,7.7,3.87-2.15,5.57-5.91,7-9a23.51,23.51,0,0,0,.21-6.16c-1.2-10.61,1.51-21.53-.3-32.44l.3-5.9c0-1.18.31-4.13,6.33-7.08l3.92-2.06c8.75-5,16.88-10.91,26.23-14.75a9.85,9.85,0,0,0,3-1.77c4.83-3.24,9.35-7.08,14.77-9.73,5.13-2.66,7.24-8.55,12.06-16.81l2.11-3.84a36.05,36.05,0,0,0,1.92-11.55,83,83,0,0,0-.41-9.09c-.25-2.73-.35-5.62-.46-8.44-.07-1.7-.15-3.37-.27-5-.1-1.39-.24-2.73-.44-4-.1-.61-.21-1.2-.34-1.77-.3-.88,0-2.06-.3-2.94-2.11-4.13-2.41-8.56-5.73-12.69a64.33,64.33,0,0,0-12.36-11.5c-8.74-6.19-19-6.78-29.24-7.67-8.74-1.18-17.78-.29-26.82,0-4.83.3-9.65-1.47-14.47-.29a2,2,0,0,1-1.81-1.18c-2.41-2.95-6.33-1.48-9.05-2.95-1.5-.59-4.52.88-4.82,2.36-.6,2.65-5.12,2.36-5.73,4.42.3,1.18,5.43,1.77,5.73,2.95s0,2.36.3,4.13c.09,1,.17,2,.24,3C644.42,242.19,648.46,240.92,646,245.61Zm21.78-3.77c8.44.59,17.18-1.47,25.62.88a14.1,14.1,0,0,1,7.24,4.72c4.22,4.43,6.33,9.74,9,14.75,1.21,1.77,1.51,4.13,1.81,5.9a27.44,27.44,0,0,1,.6,8.55,39.42,39.42,0,0,1-1.2,8c-.31,1.77-.91,3.54.9,5.31,1.2-1.18,1.2-2.66,2.11-3.25.6,0,.9.3.9.59,2.72,8.85-4.82,28.32-7.83,28.32,0-.59-.3-.59,0-1.77,2.71-7.08,3.92-12.1,3.92-16.23-1.81.3-2.72,1.18-3,3.25-1.81,9.44-5.43,18-9.65,26.54-1.5,2.95-5.12,4.72-7.53,7.08-4.52,4.72-10.85,6.2-14.47,11.21a19.35,19.35,0,0,1-2.41,2.06,9,9,0,0,1-1.21-5.3,97.69,97.69,0,0,0-1.21-13.28c-1.8-8.25-.9-16.81-1.8-25.07-1.51-12.39-1.21-25.07-.91-37.45,0-4.13-.3-8.26,0-12.1.3-4.13-1.2-8-1.81-11.8C667.13,242.13,667.43,241.84,667.73,241.84Z"/><path class="cls-11" d="M650.87,432.08a22.07,22.07,0,0,0,.58,5c3.92,9.44,13.56,5.61,18.69,7.38,2.11.88,3.32-.3,3.62-2.36.6-1.18.3-2.36,0-3.84-.38-1.7-.68-3.41-.93-5.12A43.17,43.17,0,0,1,650.87,432.08Z"/><path class="cls-11" d="M638.19,432.08c.3,5,3.31,7.37,8.44,7.37.67,0,1.15-4.45,1.71-8.26a40.77,40.77,0,0,1-10.5-5.95C637.82,427.5,638,429.73,638.19,432.08Z"/><path class="cls-14" d="M607.4,329.36c10.35,3.89,21.08.67,28.46-5.86a28.78,28.78,0,0,0,7.77-10.85c5.7-14.39-10.87-42.43,2.32-67,2.51-4.69-1.53-3.42-8.43,1-15.26,9.9-44.47,35.44-47.4,46.65C586.62,306.68,592.54,323.78,607.4,329.36Z"/><path class="cls-15" d="M666,418.37c-7.39,4.1-19.31.4-24.86-7.7a20,20,0,0,1-2.68-5.78c-2.43-8.42.25-17-3.79-19-3.56-1.75-10,2.79-12.06,8.57-4.08,11.34,9.37,25.29,10.94,26.92a41,41,0,0,0,14.81,9.84c.84.32,1.68.62,2.53.89a43.17,43.17,0,0,0,22,1.07c.8-.17,1.57-.37,2.32-.59,0-.34-.06-.68-.06-1a12.43,12.43,0,0,1,12.07-12.41c-.46-7.22-5.69-15.16-9.78-15-2.16.08-3.17,2.38-4.44,5.21C671.55,412.46,669.85,416.22,666,418.37Z"/><path class="cls-16" d="M675.09,431.54c0,.34,0,.68.06,1a12.41,12.41,0,1,0,12.36-13.44h-.35A12.43,12.43,0,0,0,675.09,431.54Z"/><path class="cls-17" d="M496.87,195.76h-.07a7.16,7.16,0,0,0-4,1.25,7.25,7.25,0,0,0,4.08,13.25,7.26,7.26,0,1,0,0-14.51Z"/><path class="cls-17" d="M475.11,512.52a7.25,7.25,0,1,0-3.09,5.94A7.25,7.25,0,0,0,475.11,512.52Z"/><path class="cls-17" d="M1470.36,520.26a7.25,7.25,0,0,0,5.88,7.12,7.85,7.85,0,0,0,1.37.13,7.27,7.27,0,0,0,7.26-7.25,6.81,6.81,0,0,0-.18-1.57,7.25,7.25,0,0,0-14.33,1.57Z"/><path class="cls-17" d="M1493,201.38a7.25,7.25,0,0,0,14.15-2.18v0a7.25,7.25,0,1,0-14.15,2.23Z"/><path class="cls-17" d="M961.33,147a12,12,0,1,0,2.14,16.79A12,12,0,0,0,961.33,147Zm-2.11,15.48-12.34-9.55,1.91-2.47L961.13,160Z"/><rect class="cls-18" x="952.45" y="148.66" width="3.12" height="15.61" transform="translate(246.47 815.26) rotate(-52.27)"/><path class="cls-17" d="M936.41,549.4a12,12,0,1,0,22.26-8.78h0l-22.13-.29A11.91,11.91,0,0,0,936.41,549.4Zm17.82-8.7,1.14,2.9-14.51,5.73-1.15-2.91Z"/><rect class="cls-18" x="939.74" y="543.45" width="15.61" height="3.12" transform="translate(-133.9 385.79) rotate(-21.53)"/><path class="cls-6" d="M983.42,1041.8c-3.91,7.42-7.58,14.57-11,21.38-22.28,44-35,74.31-37,73.55s10.09-26.68,10.82-63.59c.43-22,1.38-69.84-27.06-85.23a39.28,39.28,0,0,0-9-3.49A49.59,49.59,0,0,0,898.58,983a67.33,67.33,0,0,0-15.56,1.7c-12.75,2.83-24.68,8.78-32.35,14.92-5.69,4.54-9.06,9.17-8.66,12.67.49,4.35,6.66,6.3,15.11,8,7.6,1.5,17,2.79,25.9,5.36,8.4,2.43,16.25,6,21.5,12.1a25.9,25.9,0,0,1,3.78,5.68,29.75,29.75,0,0,1,2.35,7.38c3.78,20.38-9.94,49.47-27.63,60.24a27.76,27.76,0,0,1-11.25,4.08c-9.63,1.1-20.56-4-31.26-13.26-32.71-28.28-63.34-95.42-48.56-143.67.68-2.23,3.68-8.93,9.29-21.09q2.29-5,5.19-11.23c1.39-3,2.87-6.18,4.46-9.62,28.61-61.66,36.11-72.73,33.82-74.41C838.37,837.12,767.24,884,759.48,950c-7.44,63.31,46.69,116.11,37.88,123.11-10.58,8.42-68.4-91.07-148.81-85.23-49.52,3.6-92.35,34.29-89.29,44.65,4.52,15.38,105.56-29.64,166.4,18.94,36.25,28.94,22.05,62.22,50.06,100.11,77.5,104.87,350.35,72.07,373.39-2.7,3.86-12.51,1.3-28.08-4.66-42.07a88.75,88.75,0,0,0-12.92-21.52,83.9,83.9,0,0,0-16.46-15c-11.58-8.13-24.22-13-33.38-13.58-4.91-.31-8.83.6-11,2.92-2.36,2.46-2.5,6.22-1.34,10.78a70.21,70.21,0,0,0,4.88,12.37c8.47,17.62,22.69,39.61,14,51.25-10.43,14-52.93,11.4-71.7-10.82a44.59,44.59,0,0,1-4.3-6.11c-12-20.42-10.77-53.31,0-86.17,1.89-5.74,4.06-11.48,6.51-17.15,13.54-31.41,35.39-60.73,62.2-76.63a93.86,93.86,0,0,1,15.41-7.4,92.49,92.49,0,0,1,9.16-2.83c23.41-6,45.48-3,50.66-8.67a4.24,4.24,0,0,0,1.06-2c.42-2.07-.58-4.63-2.66-7.33-7.22-9.42-27.58-20.67-47.4-19.73a46.88,46.88,0,0,0-18.35,4.73,61.7,61.7,0,0,0-10.31,6.36c-15.09,11.37-30,31.49-48.45,60.61q-4.82,7.59-9.39,15.11-4.32,7.08-8.44,14.07C1001.57,1008.12,992,1025.6,983.42,1041.8Z"/><path class="cls-19" d="M1629.41,132.14a37.67,37.67,0,0,1,9.56,1.23A37.84,37.84,0,0,1,1712.14,144a26,26,0,0,1,0,51.94,37.86,37.86,0,0,1-42.6,31.54V222a12.72,12.72,0,0,0,1.54.1,11.28,11.28,0,0,0,3.72-.62,12.86,12.86,0,0,0,8.41-11.8l-1.6-.06a11.25,11.25,0,0,1-7.33,10.34,10,10,0,0,1-4.74.41V182.24a17.38,17.38,0,0,0,7.54,1.82,14.6,14.6,0,0,0,4.81-.8A16.6,16.6,0,0,0,1692.78,168l-2.07-.08a14.53,14.53,0,0,1-9.45,13.35c-5.12,1.75-9.77-.33-11.68-1.41V161.78h-5.8v36.77a14.22,14.22,0,0,1-10.73.92,14.53,14.53,0,0,1-9.45-13.35l-2.07.08a16.62,16.62,0,0,0,10.85,15.23,14.81,14.81,0,0,0,4.8.8,17.05,17.05,0,0,0,6.6-1.39v18.82l-.09.13.09.06v6.37a38,38,0,0,1-23.21-20.08,37.84,37.84,0,1,1-11.16-74Z"/><path class="cls-20" d="M1663.69,219.79l.09-.13V200.84a17.05,17.05,0,0,1-6.6,1.39,14.81,14.81,0,0,1-4.8-.8,16.62,16.62,0,0,1-10.85-15.23l2.07-.08a14.53,14.53,0,0,0,9.45,13.35,14.22,14.22,0,0,0,10.73-.92V161.78h5.8v18.11c1.91,1.08,6.56,3.16,11.68,1.41a14.53,14.53,0,0,0,9.45-13.35l2.07.08a16.6,16.6,0,0,1-10.85,15.23,14.6,14.6,0,0,1-4.81.8,17.38,17.38,0,0,1-7.54-1.82v38.14a10,10,0,0,0,4.74-.41,11.25,11.25,0,0,0,7.33-10.34l1.6.06a12.86,12.86,0,0,1-8.41,11.8,11.28,11.28,0,0,1-3.72.62,12.72,12.72,0,0,1-1.54-.1v52.86h-5.8v-55Z"/><path class="cls-2" d="M1792.61,56.25a49.43,49.43,0,0,0-12.49,1.6,49.4,49.4,0,0,0-95.53,13.89,33.91,33.91,0,0,0,0,67.81,49.43,49.43,0,0,0,55.62,41.19v-7.16a16.42,16.42,0,0,1-2,.13,14.88,14.88,0,0,1-4.86-.8,16.8,16.8,0,0,1-11-15.42l2.09-.08a14.7,14.7,0,0,0,9.56,13.51,13,13,0,0,0,6.2.53V121.66a22.71,22.71,0,0,1-9.85,2.37,19.19,19.19,0,0,1-6.27-1c-8.14-2.77-13.83-10.76-14.17-19.88l2.7-.1c.3,8,5.26,15,12.34,17.43,6.68,2.28,12.75-.44,15.25-1.85V94.94h7.57v48a18.55,18.55,0,0,0,14,1.2c7.08-2.41,12-9.42,12.34-17.43l2.7.1c-.34,9.12-6,17.12-14.17,19.89a19.19,19.19,0,0,1-6.27,1,22.26,22.26,0,0,1-8.61-1.81v24.57l.11.17-.11.08v8.32a49.56,49.56,0,0,0,30.3-26.22,49.4,49.4,0,1,0,14.58-96.61Z"/><path class="cls-20" d="M1747.84,170.68l-.11-.17V145.94a22.26,22.26,0,0,0,8.61,1.81,19.19,19.19,0,0,0,6.27-1c8.14-2.77,13.83-10.77,14.17-19.89l-2.7-.1c-.3,8-5.26,15-12.34,17.43a18.55,18.55,0,0,1-14-1.2v-48h-7.57v23.65c-2.5,1.41-8.57,4.13-15.25,1.85-7.08-2.42-12-9.43-12.34-17.43l-2.7.1c.34,9.12,6,17.11,14.17,19.88a19.19,19.19,0,0,0,6.27,1,22.71,22.71,0,0,0,9.85-2.37v49.79a13,13,0,0,1-6.2-.53,14.7,14.7,0,0,1-9.56-13.51l-2.09.08a16.8,16.8,0,0,0,11,15.42,14.88,14.88,0,0,0,4.86.8,16.42,16.42,0,0,0,2-.13v69h7.57V170.76Z"/></svg>
