<svg id="Layer_1" data-name="Layer 1" xmlns="http://www.w3.org/2000/svg" width="370" height="160" viewBox="0 0 370 160"><defs><style>.cls-1{fill:#fff635;}</style></defs><title>assets</title><rect class="cls-1" x="6.81" y="3.72" width="361" height="155" rx="50.62"/><path d="M54.93,109.36c-1.32.52-1.76-1.06-2.12-1.85C54.13,107.6,54.31,108.65,54.93,109.36ZM76.66,55.94a5.13,5.13,0,0,1,4,3.7l1.59,5c.52,1.41,0,2.73-.18,4-.09.62-1,.62-1.32,1.23-.35.88-1,1.68-1.41,2.56-.53-.18-.44-.8-.79-1.06-.62.18-.26,1-.79,1.23-.09.09-.18.09-.27-.09a7.68,7.68,0,0,1-1.76-6.24,7.17,7.17,0,0,0-.26-3.61C75,61.05,72.7,59,71.12,59.64c-.88.26-1.76.7-2.64,1A4.49,4.49,0,0,0,66.54,63c-.44.88-.79,2.47-1.32,3.26-.88,1-.88,3.52.18,4.31,2.64,2.2,4.4,5.1,6.42,7.66a35.61,35.61,0,0,0,5.46,5.45,29.66,29.66,0,0,1,4.31,5,13.23,13.23,0,0,0,1.67,2.11c2.11,2,2,4.84,2.82,7.48a24.7,24.7,0,0,1,.44,5.72,2.39,2.39,0,0,1-1.06,2.38c-.53.26-.44.7-.53,1.14a18,18,0,0,1-2.64,6.33,3.08,3.08,0,0,1-2.2,1.59,1.84,1.84,0,0,0-1,.61,9.45,9.45,0,0,1-3.44,2.47c-.35.17-.7.44-1,.26a3.19,3.19,0,0,0-2.82.44c-2.64,1.5-7,.35-10.82-1.93-.35-.27-5.55-5.2-5.72-5.46-1.85-2.55,2.81,2.11,1-.62a4.7,4.7,0,0,1-.7-2.46c0-1-.88-1.58-1.32-2.37-.18-.36-.62-.53-.7-1.06.35-.27,1.23-.7,1.76-.18.7.79.88.36,1.4.62s.62.53,1.32,1.06c1,.79,1.15,1.58,1.76,2.28.88,1.24,1.85,1.5,3.17,2.11,3.08,1.24,6.16,3.88,8.89,1.06a7.65,7.65,0,0,0,2-5.81,30.73,30.73,0,0,0-1.05-6.51,3,3,0,0,0-.62-1.32C68.92,94,66.19,90,62,86.3c-2.2-1.76-4.84-4.84-5.64-7.57-.35-1.4-1.23-2.64-1.4-4A5,5,0,0,1,55,72.4c.71-2.47,1.06-5.11,2-7.48A16.75,16.75,0,0,1,63.73,57a3.91,3.91,0,0,1,3-.62c1.58.27,3.08-.35,4.66-.53A18,18,0,0,1,76.66,55.94ZM67.25,87.45c.26-.09-.71-1.94-1.32-2.64-.88-1.24-1.85-1.59-2-2.2-1.23-.8-2.2-1.94-3.61-2.29C61.88,83,65.05,85.69,67.25,87.45Z"/><path d="M103.5,58.05a.74.74,0,0,0,.62,0c3.69-.61,7.48-.52,11.17-1.14,1-.09,1.94-.35,2.91-.35a5.2,5.2,0,0,1,4.57,3.08,24.09,24.09,0,0,1-6.07,1c-2-.09-4-.18-6-.09-1.85.09-3.7.61-5.55.7-.52,0-.79.35-1,.88-.62,2.55-.09,5,.26,7.57.09.88,0,1.76,0,2.73a82.41,82.41,0,0,0,0,11.44c2.9-.44,5.72.35,8.54-.09,1.4-.26,2.2,1,3.34,1.76a3.53,3.53,0,0,1-1.94,1.06,8.77,8.77,0,0,0-2.55.61,21.43,21.43,0,0,1-6.33.88c-1.15.09-1.15.09-1.06,1.23.09,2.12.09,4.23,0,6.43a60.61,60.61,0,0,0-.26,7,8,8,0,0,1-.27,2.46,18,18,0,0,0-.44,6.51c.18.88.53,1.15,1.32,1.06a7.25,7.25,0,0,1,1.94-.09.61.61,0,0,1,.44.62c-1,.88-2.73-.09-3.79,1.23a2,2,0,0,0,1.76-.09c3.08-.79,6.16-1.23,9.24-2.11,1.59-.44,3.26-.18,4.84-.53a1.61,1.61,0,0,1,1.24.35,20.26,20.26,0,0,0,1.58,1.41c-.53.7-1.5.35-2.11.79-.18.53.35.79.53,1.24.44.61.26,1.14-.53,1.14a12.3,12.3,0,0,0-4,.88,17.21,17.21,0,0,1-2.91.44,40.22,40.22,0,0,0-8,.53c-.71.17-1.32.17-1.5,1.23-.09.7-.62.79-1.23.26s-1.32-.26-2-.17a56.88,56.88,0,0,1-10.29.7c-.53,0-1-.44-1.5-.62a.83.83,0,0,1-.53-.88c0-.52.27-.7.71-.79a24.72,24.72,0,0,0,4.4-1.41c0-2-.09-4,0-6.16.53-6.51.17-12.67.7-19.18.44-6.33.62-12.76.79-19.09.09-3.17-.17-6.34-.17-9.42,0-.79-.35-1.14-1.06-1.14-1.14,0-1-.62-2.11-.8A1.39,1.39,0,0,1,90,60.25a26.76,26.76,0,0,1,4.22-1,8.64,8.64,0,0,0,.18-1.41c0-.88.09-1.59,1.23-1.41.09,0,.26,0,.26-.09,1.59-1.49,3.08-.61,4.67-.09C101.74,56.73,102.8,57,103.5,58.05Zm-9.33,58.7c1.41-.18,1.41-.18,1.24-1.14-.09-.62.08-2.12-.44-2.73C94,113.76,94.35,115.69,94.17,116.75Z"/><path d="M170.82,56.38c.44.71,5-.17,6.86-.09a37,37,0,0,0,7-.17,26.66,26.66,0,0,1,7.92.26c.61.44.08,1.76-1.5,2.11a7.76,7.76,0,0,0-2.82.62c-.61.35-1.67,0-2.46-.09a6.72,6.72,0,0,0-2.9.35,8.87,8.87,0,0,1-3.08.09c-.62,0-2.56.53-.88.71,1,.26,3.6.17,3.6.35-.26.7-1.23,1.32-1.58,1-1.94-.61-2.46,0-4.58,0-1.32,0-1.23.44-2.37.44-.62-.08-1.06-.44-1.32.09-.18.35.44.88.61,1.23,1.5,3,.71-2.72,2.64,1.85.71.71,1.24,4.67,1.41,5.72.71,3.26-.09,6.6.27,9.95.88,6.86,1.23,13.72,1.84,20.68a22.22,22.22,0,0,1-1.14,7.56c-.09.36.18,3.35.18,3.7,0,6.86-1.68,2.55-1.85,5.19a1,1,0,0,1-.18.62c-1.14.61-1,1.85-1.49,2.9-.44.26-.71-1.5-1.59-.62,0,.09-.61-.43-.88-.61-1.41-.79-2.2-2.82-3.69-2.29s-1.85-2.9-2.2-4.4a11,11,0,0,1-.09-3.43c.35-5,.35-10,.35-15.05,0-2.29,0-4.66.18-6.95.26-3.26-.27-6.42-.27-9.68.09-3.43.18-7,.09-10.38-.09-1.68.26-3.26.09-4.93-.09-.53.26-.71.17-1.32-2.19,0-4,.09-6.24-.09a29.51,29.51,0,0,0-6.78-.09,10.48,10.48,0,0,1-4-.26c-2.11-.53-4.22.17-6.33.17l-4.58.36a21.79,21.79,0,0,1-5.37.61c-.35,0-1,.27-1.23.27-1.85.7-3.69.08-5.54.08a26,26,0,0,0-3.52-1.49c-.79-.18-.79-.18-1.41-1.23.35-.53,1.06-.62,1.5-1.15A2.6,2.6,0,0,1,125.41,58a20.82,20.82,0,0,1,4.05-.53c2.2,0,3.43.09,4.84.09,1.67,0,2.73-.27,4.14-.27,2.64-.09,4.57.53,5.89-.26.88-.53,2.47-.18,7.57-.44,2.11-.09,4.23.09,6.25,0,2.29-.09,4.22,0,6.16-.27a5.9,5.9,0,0,1,2.11.27c.7.26,1.14.26,1.23-.09a7.59,7.59,0,0,1,.71-1.94C168.62,54.09,169.85,54.8,170.82,56.38ZM143,66c.53-.52.09-1,.18-1.4,0-.27-.09-.53.26-.62s.71,0,.71.18c.17,1.14,1.05,1.23,1.76,1.4,1.32.18,1.84,1,2.29,2.12a23.75,23.75,0,0,1,.7,7c0,2.46,0,5,.09,7.56.09,2.73.09,5.46,0,8.28-.18,1.84-.09,3.78-.09,5.71.09,3.09,0,6.17.18,9.16.26,3.52.35,6.95.43,10.38,0,1.76.18,3.61.27,5.37a2.35,2.35,0,0,1-.7,2.11c-.62.53-.62,1.58-1.59,2-.26-1.67-1.85-2.11-2.9-3.08a10,10,0,0,1-1.59-1.75c-.17-.27-.52-.62-.61-.27-.27,1-1,.09-1.06-.18-.79-1.67-1-3.6-1.67-3.6-.26,0-.62,3.08-.44,4.75-1-.18-1-.79-1.06-1.41-.7-3.43-1.58-6.95-1.23-10.47s-.17-7,0-10.47c.18-4.58.18-9.07.53-13.64.18-2.11.09-4.23.35-6.25v-.35c-1.14-3.52-.09-7.22-.09-10.47.71.35.27,2.55.88,4,.44-.62.27-1.24.44-1.76a18.1,18.1,0,0,0,.09-4.93c0-.27-.09-.53-.09-.79.18-1,.62-1.15,1.5-.88A6.15,6.15,0,0,1,143,66Zm42.86-5.36c-.35.79-1.06.61-1.76.88-.35-.53-.79-.62-.27-1.06C184.55,60.25,185.25,59.9,185.87,60.61Z"/><path d="M204.53,58.85a9.47,9.47,0,0,1,2.37,5.8c.18,3.88.18,8.63.53,12.76.26,3,.26,6,.62,9a19.12,19.12,0,0,0,.52,3.26,19.21,19.21,0,0,1,0,7.48c-.52,3.52-.44,7-.61,10.47-.09,1.58.09,3.16-.71,4.66a2.46,2.46,0,0,0,.09,1.76c.09.53.44,1.06-.26,1.5-.27.17-.09.52.09.7.44.53.17,1-.09,1.5-.71,1.14-.71,1.14-1.76.44-.71-.44-1.5-.53-1.85,0-1.94,3-2.64.26-4.84.52a1.1,1.1,0,0,1-1.14-.88,8.9,8.9,0,0,1-.62-3.08c0-2.37.09-4.75.09-7,0-2.56-.53-4.93-.71-7.4-.52-6-.17-11.88-.52-17.77-.18-3.08.08-6.25,0-9.24-.18-3.61.08-8.19.17-11.79.09-1.32.09-1.32,1.5-1.32a1.66,1.66,0,0,1,.61-.09c.27-.62-.17-1.15,0-1.76.27-.44.88-.18,1.24-.62.17-.17.52-.35.7-.26C201.53,57.7,203.29,57.53,204.53,58.85Zm.7,28.33v2c0,.35.53,1.49.61,1.93l.18,1.94a10.26,10.26,0,0,0,.35-1.06,7.86,7.86,0,0,0,.09-2.46c0-.53-.26-1.76-.35-2.38l-.44-3.69A18,18,0,0,0,205.23,87.18Z"/><path d="M229.52,57.44c.26,1.23,1.32,1.93,1.76,3.17,1.14,3.43,1.32,7,2.64,10.47,1.93,5.28,3.34,10.82,5.28,16.1.7,2,1.14,4.14,1.76,6.16,1,3.43,2,6.86,3,10.3.09.17.17.44.44.44A43.82,43.82,0,0,0,244,91c-.44.61-.09,1.23-.18,1.84a14,14,0,0,1-.09,1.94c-.61-.18-.52-.62-.52-1,0-2.2-.09-4.49-.27-6.77,0-1.32.27-2.73.27-4.14,0-1.76-.18-3.43-.27-5.1a35.85,35.85,0,0,1-.17-5.28c.17-4.23.26-8.36.08-12.59a3.35,3.35,0,0,1,.88-1.85c.18-.26.62-.26.88-.26a4.14,4.14,0,0,1,2.56,2.29c.08,2.64.79,5.28.61,8s0,5.45-.09,8.27c0,2.11.27,4.22.09,6.42-.17,3.87.09,7.75,0,11.71,0,2.37.62,4.84.79,7.3.18,3.08.88,6.07,1.06,9.15,0,.88.26,2-.26,2.38-1.15.79-.44,1.58-.44,2.37,0,.44.08.8.08,1.23a2.54,2.54,0,0,1-1.58,2.56.66.66,0,0,1-1-.36c-.53-.7-1.14-.61-1.85-.7-1.67-.26-3.34.26-4.84-.62-1.05.53-1.84-.43-2.81-.52-1.15-.09-1.59-.79-1.85-1.76-.62-2.2-1.32-4.32-1.85-6.52-.79-3.43-2-6.59-2.81-10-1-4.66-2.56-9.15-4-13.72a93.59,93.59,0,0,1-2.91-10.83c-.35-2.2-1-4.4-1.41-6.6-.61.18-.44.53-.44.71-.17,7.3-.35,14.52-.35,21.82,0,5.19.53,10.38.62,15.66.09,2.91.61,5.81.79,8.71a47.15,47.15,0,0,1,.09,5.11c-1.23-.53-1.94-1.5-3.17-1.76-.44-.09-.7-.7-.62-1.23a4.84,4.84,0,0,0-.61-2.2,3.53,3.53,0,0,1-.44-1.94c-.35-4.13-.35-8.27-.53-12.5a17.48,17.48,0,0,0-.35-3.6,3.49,3.49,0,0,1,0-1c.35-5-.27-10.12-.18-15.14.09-5.72.09-11.35.09-17.07,0-1.14-.09-2.37-.18-3.61,0-.7,0-1.05,1-1.32a5.65,5.65,0,0,1,3.61-.08,2,2,0,0,0,1.41-.27c2-1,4.13-.7,6.16-1C229.16,57.17,229.52,57.26,229.52,57.44ZM245.36,116c-.36-.71-.44-1.5-1.5-1.41C243.77,116.13,243.77,116.13,245.36,116Z"/><path d="M274.31,56.65a10.61,10.61,0,0,0,4.13-.27,6.5,6.5,0,0,1,2.56-.09,7.52,7.52,0,0,1,3.43,1.32,5,5,0,0,1,2.37,4,19.25,19.25,0,0,1-.26,5l-.27,2.73c-.08.44-.08.88-.35,1-1.14.71-.88,1.94-1.41,3-.52,0-1.05-.26-1.58,0a2.35,2.35,0,0,1-3.17-1.67,5,5,0,0,1-.26-1.93c-.18-2-.26-4-.35-6.16-.09-1.06-.44-2.12-.62-3.17a1.5,1.5,0,0,0-1.14-1.32,5.18,5.18,0,0,0-6.51,2.55,34.88,34.88,0,0,0-2.47,5.54c-.79,3-1.58,6-1.23,9.16.26,2.28,0,4.57.09,6.77,0,1.85.17,3.61.09,5.46-.27,5.45,1.23,10.91,1.23,16.45,0,.27.09.53.09.79-.88,2.73.44,4.93,1.58,7.22.7,1.41,1.06,1.5,2.46.79,2.2-1.14,3.7-2.73,6.16-3.52a1.07,1.07,0,0,0,.8-1.14c-.18-5.28.44-10.65.35-15.93a.94.94,0,0,0-.09-.44c-1.85-.53-3.52-1.32-5.54-1.05-.88.08-1-.88-1.24-1.41a.84.84,0,0,1,.88-.53c2.38,0,4.67-.88,7-1.14h.35c1-1.24,1.32-.36,1.76.52.09.09.35.09.52.18.53-.79.18-1.76.8-2.55.79.09,1.41.7,2.29.7.52,0,.52.53.52,1a47.21,47.21,0,0,1,.53,5c.09,1.84,0,3.6.18,5.45.35,3.7.09,7.48.26,11.18.18,1.93.09,3.87.26,5.8a4.93,4.93,0,0,1-2.37,4.67c-.26.17-.26.62-.71.7-1.67-1.76-2.72-4-4.48-5.72-.71-.61-.62-1.67-1-2.46-.62,0-.88.44-1.14.79-1.24,1.5-2.38,3-4.32,3.43-.88,1.23-1.85,1.06-3,1.5a8.48,8.48,0,0,1-4.22.26c-1.23-.09-2.38-.26-3.61-.44-1.76-.26-4.14-1-4.84-3.34a44.65,44.65,0,0,0-1.5-4.93,11.84,11.84,0,0,1-.7-4.93c0-3.43-.62-6.16-.79-9.5a54.39,54.39,0,0,1,.53-6.69c0-1,.17-1.93.08-2.81-.26-2.2.44-4.4.27-6.6-.27-3.08.88-5.9,1.49-8.89a6.06,6.06,0,0,0,.44-1.23c.53-3.88,2.73-6.78,5.37-9.42a26.81,26.81,0,0,1,2.91-2.38,1.58,1.58,0,0,1,.44-.17c2.55,0,4.4-1.85,6.51-2.73,1.14-.35,2.29-.09,3.6-.26C276.77,56.21,275.36,55.77,274.31,56.65ZM258.47,77.5c-.18,2.11-.35,4.31-.44,6.51,0,.27.09.53.61.53a38.6,38.6,0,0,1,.8-7.83c0-.09-.18-.26-.27-.44A1.23,1.23,0,0,0,258.47,77.5Z"/><path d="M293.67,109.36c-1.32.52-1.76-1.06-2.11-1.85C292.88,107.6,293.05,108.65,293.67,109.36ZM315.4,55.94a5.13,5.13,0,0,1,4,3.7l1.59,5c.52,1.41,0,2.73-.18,4-.09.62-1,.62-1.32,1.23-.35.88-1,1.68-1.41,2.56-.53-.18-.44-.8-.79-1.06-.62.18-.26,1-.79,1.23-.09.09-.18.09-.27-.09a7.71,7.71,0,0,1-1.76-6.24,7.17,7.17,0,0,0-.26-3.61c-.44-1.67-2.73-3.7-4.31-3.08-.88.26-1.76.7-2.64,1A4.49,4.49,0,0,0,305.28,63c-.44.88-.79,2.47-1.32,3.26-.88,1-.88,3.52.18,4.31,2.64,2.2,4.4,5.1,6.42,7.66A35.61,35.61,0,0,0,316,83.66a29.66,29.66,0,0,1,4.31,5A13.23,13.23,0,0,0,322,90.79c2.11,2,2,4.84,2.82,7.48a24.7,24.7,0,0,1,.44,5.72,2.39,2.39,0,0,1-1.06,2.38c-.52.26-.44.7-.52,1.14a18.25,18.25,0,0,1-2.65,6.33,3.09,3.09,0,0,1-2.19,1.59,1.83,1.83,0,0,0-1,.61,9.45,9.45,0,0,1-3.44,2.47c-.35.17-.7.44-1.05.26a3.19,3.19,0,0,0-2.82.44c-2.64,1.5-7,.35-10.82-1.93-.35-.27-5.54-5.2-5.72-5.46-1.85-2.55,2.82,2.11,1.06-.62a4.62,4.62,0,0,1-.71-2.46c0-1-.88-1.58-1.32-2.37-.17-.36-.61-.53-.7-1.06.35-.27,1.23-.7,1.76-.18.7.79.88.36,1.41.62s.61.53,1.32,1.06c1,.79,1.14,1.58,1.76,2.28.88,1.24,1.84,1.5,3.16,2.11,3.08,1.24,6.16,3.88,8.89,1.06a7.65,7.65,0,0,0,2-5.81,31.39,31.39,0,0,0-1.06-6.51,3,3,0,0,0-.62-1.32C307.66,94,304.93,90,300.71,86.3c-2.2-1.76-4.84-4.84-5.63-7.57-.36-1.4-1.24-2.64-1.41-4a4.88,4.88,0,0,1,.09-2.29c.7-2.47,1.05-5.11,2-7.48A16.8,16.8,0,0,1,302.47,57a3.91,3.91,0,0,1,3-.62c1.58.27,3.08-.35,4.66-.53A18,18,0,0,1,315.4,55.94ZM306,87.45c.26-.09-.71-1.94-1.32-2.64-.88-1.24-1.85-1.59-2-2.2-1.23-.8-2.2-1.94-3.6-2.29C300.62,83,303.79,85.69,306,87.45Z"/></svg>
