<svg id="Layer_1" data-name="Layer 1" xmlns="http://www.w3.org/2000/svg" width="230" height="230" viewBox="0 0 230 230"><defs><style>.cls-1{fill:#e2feef;}.cls-2{fill:#cce9f7;}.cls-3{fill:#fff;}.cls-4{fill:#9dcbef;}.cls-5{fill:#f0d582;}.cls-6{fill:#fceee4;}.cls-7{fill:#ffb4c0;}.cls-8{fill:#593f1f;}</style></defs><title>assets</title><path class="cls-1" d="M115,2.5A112.5,112.5,0,1,0,227.5,115,112.5,112.5,0,0,0,115,2.5Zm64.74,105.93a16.14,16.14,0,0,1-5.89-4.69c-3.14,8.17-9.22,15.85-17.44,22.2,10,12,15.85,27.88,13.37,39.83C163.48,196,102,209.06,87.8,187c-6.22-9.72-5.07-29,1.68-46a58.77,58.77,0,0,1-20.71-8.57c-4.61,7.36-13.46,10.85-21.39,7.9-9.17-3.41-13.64-14.14-10-24,1.58-4.25,4.69-7.19,8.62-9.44-8.18-10.78-5.78-30.57,6.59-47.36,12.23-16.6,30.16-24.76,42.86-20.46,8.55-10,28.75-13.67,50.13-8.11,25.83,6.71,43.6,24.36,39.68,39.43a15.51,15.51,0,0,1-1,2.75,46.4,46.4,0,0,1,10.4,3.19c9.51,4.42,13.86,15.2,9.72,24.07S189.24,112.86,179.74,108.43Z"/><path class="cls-2" d="M155.31,135.45a18.05,18.05,0,0,1-26.87,15.75,7.19,7.19,0,0,1-3.81,1.1,7.1,7.1,0,0,1-2-.28A18,18,0,0,1,91,141.26l-1.48-.3c-6.75,17-7.9,36.28-1.68,46,14.15,22.1,75.68,9.06,82-21.19,2.48-12-3.38-27.86-13.37-39.83-.89.69-1.8,1.36-2.73,2A18,18,0,0,1,155.31,135.45Z"/><path class="cls-3" d="M109,158.32a18,18,0,0,0,13.68-6.3,7.22,7.22,0,0,1-4.4-10.34,81.52,81.52,0,0,1-27.3-.42A18.06,18.06,0,0,0,109,158.32Z"/><path class="cls-3" d="M131.84,145.08a7.22,7.22,0,0,1-3.4,6.12A18,18,0,0,0,153.68,128,81.1,81.1,0,0,1,129,139.38,7.17,7.17,0,0,1,131.84,145.08Z"/><path class="cls-4" d="M122.66,152a7.1,7.1,0,0,0,2,.28A7.21,7.21,0,0,0,129,139.38q-2.73.76-5.58,1.37c-1.74.36-3.48.67-5.2.93a7.22,7.22,0,0,0,4.4,10.34Z"/><path class="cls-5" d="M194.7,76.32a46.4,46.4,0,0,0-10.4-3.19,15.51,15.51,0,0,0,1-2.75C189.2,55.31,171.43,37.66,145.6,31c-21.38-5.56-41.58-1.87-50.13,8.11-12.7-4.3-30.63,3.86-42.86,20.46C40.24,76.31,37.84,96.1,46,106.88c-3.93,2.25-7,5.19-8.62,9.44-3.66,9.83.81,20.56,10,24,7.93,3,16.78-.54,21.39-7.9a20,20,0,0,0,1.83-3.71,49.45,49.45,0,0,0,2.64-16.19,49.39,49.39,0,0,0,14.69-8.74c.83-3.66,3.31-6.31,6.23-6.31h.19C95.61,96,96.83,94.54,98,93a61.13,61.13,0,0,0,9.33-18.32,75.08,75.08,0,0,0,24.11,10.87,82.09,82.09,0,0,0,13.24,2.3c1-3.12,3.3-5.3,5.94-5.3s4.95,2.2,6,5.35a45.17,45.17,0,0,0,18.53-5.25c.18.65.34,1.3.48,2a33.67,33.67,0,0,1-1.74,19.16,16.14,16.14,0,0,0,5.89,4.69c9.5,4.43,20.55.83,24.68-8S204.21,80.74,194.7,76.32Z"/><path class="cls-6" d="M175.59,84.58c-.14-.67-.3-1.32-.48-2a45.17,45.17,0,0,1-18.53,5.25,12.12,12.12,0,0,1,.57,3.68,11.26,11.26,0,0,1-1.53,5.79,4.46,4.46,0,0,1,2.09,3.48c0,3.19-4.58,5.77-10.22,5.77s-10.23-2.58-10.23-5.77c0-2.63,3.13-4.85,7.41-5.54a12.09,12.09,0,0,1,0-7.46,82.09,82.09,0,0,1-13.24-2.3,75.08,75.08,0,0,1-24.11-10.87A61.13,61.13,0,0,1,98,93c-1.16,1.58-2.38,3.07-3.64,4.49,3.52.14,6.35,4.12,6.35,9a11.2,11.2,0,0,1-1.53,5.79,4.49,4.49,0,0,1,2.1,3.49c0,3.18-4.58,5.76-10.23,5.76s-10.23-2.58-10.23-5.76c0-2.64,3.13-4.85,7.41-5.54a11.82,11.82,0,0,1-.59-3.74,12.57,12.57,0,0,1,.3-2.71,49.39,49.39,0,0,1-14.69,8.74,49.45,49.45,0,0,1-2.64,16.19,20,20,0,0,1-1.83,3.71A58.77,58.77,0,0,0,89.48,141l1.48.3a81.52,81.52,0,0,0,27.3.42c1.72-.26,3.46-.57,5.2-.93q2.85-.6,5.58-1.37A81.1,81.1,0,0,0,153.68,128c.93-.66,1.84-1.33,2.73-2,8.22-6.35,14.3-14,17.44-22.2A33.67,33.67,0,0,0,175.59,84.58Zm-50.41,46.28a3.22,3.22,0,0,1-4-2.22,2.89,2.89,0,0,1,.36-2.17,3.81,3.81,0,0,0,3.75,1.2,3.77,3.77,0,0,0,2.12-1.34,2.65,2.65,0,0,1,.31.78A3.21,3.21,0,0,1,125.18,130.86Z"/><path class="cls-7" d="M150.61,100.56c-2.64,0-4.91-2.17-5.94-5.29-4.28.69-7.41,2.91-7.41,5.54,0,3.19,4.58,5.77,10.23,5.77s10.22-2.58,10.22-5.77a4.46,4.46,0,0,0-2.09-3.48A6,6,0,0,1,150.61,100.56Z"/><path class="cls-8" d="M144.67,95.27c1,3.12,3.3,5.29,5.94,5.29a6,6,0,0,0,5-3.23,11.26,11.26,0,0,0,1.53-5.79,12.12,12.12,0,0,0-.57-3.68c-1-3.15-3.31-5.35-6-5.35s-4.92,2.18-5.94,5.3a12.09,12.09,0,0,0,0,7.46Z"/><path class="cls-7" d="M94.16,115.49c-2.64,0-4.91-2.17-5.94-5.29-4.28.69-7.41,2.9-7.41,5.54,0,3.18,4.58,5.76,10.23,5.76s10.23-2.58,10.23-5.76a4.49,4.49,0,0,0-2.1-3.49A6,6,0,0,1,94.16,115.49Z"/><path class="cls-8" d="M88.22,110.2c1,3.12,3.3,5.29,5.94,5.29a6,6,0,0,0,5-3.24,11.2,11.2,0,0,0,1.53-5.79c0-4.89-2.83-8.87-6.35-9h-.19c-2.92,0-5.4,2.65-6.23,6.31a12.57,12.57,0,0,0-.3,2.71A11.82,11.82,0,0,0,88.22,110.2Z"/><path class="cls-7" d="M127.44,126.33a3.77,3.77,0,0,1-2.12,1.34,3.81,3.81,0,0,1-3.75-1.2,2.89,2.89,0,0,0-.36,2.17,3.37,3.37,0,0,0,6.54-1.53A2.65,2.65,0,0,0,127.44,126.33Z"/></svg>
