<svg id="Layer_1" data-name="Layer 1" xmlns="http://www.w3.org/2000/svg" width="220" height="240" viewBox="0 0 220 240"><defs><style>.cls-1{fill:#fff;}.cls-2{fill:#ffaac6;}.cls-3{fill:#cce9f7;}.cls-4{fill:#9dcbef;}.cls-5{fill:#f0d582;}.cls-6{fill:#fceee4;}.cls-7{fill:#dab4ff;}.cls-8{fill:#e6e6e6;}.cls-9{fill:#ccc;}.cls-10{fill:#cc82ff;}.cls-11{fill:#ff6cd3;}.cls-12{fill:#ffb39d;}.cls-13{fill:#593f1f;}.cls-14{fill:#ffb4c0;}.cls-15{fill:#6ad7ff;}</style></defs><title>assets_bad_end_alice</title><path class="cls-1" d="M86.55,136.76A17.63,17.63,0,0,0,99.7,152.84a18,18,0,0,0,4.43.56,17.51,17.51,0,0,0,13.34-6.14,7,7,0,0,1-4.29-10.09q-4.12.62-8.15.82A77,77,0,0,1,86.55,136.76Z"/><path class="cls-2" d="M110,1.4A109.74,109.74,0,0,0,31.51,187.84c-8.1,13.33-12.83,27.14-13.38,36.85,0,.95,0,1.89,0,2.84.13,3.78,1,6.72,2.79,8.46,7.69,7.63,36.9-2.4,63.79-18A109.75,109.75,0,1,0,110,1.4ZM49,25.31l1.15.24c-.55,2.6-.65,4.68-.27,5.56.17.39.52.48,1.85.64a7.68,7.68,0,0,0,1,.07c.59,0,1.15,0,1.5.75s.62,2-.18,6.28l-1.16-.21c.72-3.88.49-5.14.28-5.55,0-.06,0-.07,0-.07l-.43,0c-.28,0-.66,0-1.16-.08-1.36-.17-2.34-.29-2.79-1.34C48.15,30.13,48.53,27.37,49,25.31Zm-4.52,11,1,.58c-.42.74-.5,1.28-.35,1.4a6.33,6.33,0,0,0,1.9.22c.46,0,.8,0,1.06,0a2,2,0,0,1,1.3.27c1,.76.21,2.35-.05,2.87l-1-.52c.55-1.12.4-1.4.4-1.41a3,3,0,0,0-.61,0l-1.1,0c-1.43-.07-2.15-.1-2.62-.5S43.47,38,44.45,36.29Zm-9.19-1.13,1.07.48c-.65,1.45-2,5-.69,6.41.62.67,2.21.79,5.47,1,1.18.07,2.06.09,2.77.09,1.48,0,2.22,0,2.88.66C48,45,47.87,47.5,46.32,51.46L45.22,51c1.31-3.32,1.57-5.6.73-6.4-.31-.3-.72-.31-2.09-.33-.71,0-1.61,0-2.82-.09-3.42-.2-5.3-.31-6.27-1.37C33,41,34.33,37.22,35.26,35.16Zm137.89,69.58a15.83,15.83,0,0,1-5.74-4.58c-3.07,8-9,15.47-17,21.66,9.75,11.67,15.46,27.2,13,38.86-6.14,29.51-66.16,42.22-80,20.66-3-4.62-4.21-11.47-4-19.19a78.47,78.47,0,0,1,5.59-25.68,57.14,57.14,0,0,1-20.2-8.36,18.78,18.78,0,0,1-9.09,7.57,16.51,16.51,0,0,1-11.79.14c-8.94-3.33-13.3-13.8-9.73-23.38,1.54-4.15,4.58-7,8.41-9.21-5.17-6.81-6-17.3-2.68-28.29-1.92-7.16,2.58-17.5,11.53-26.84-.78-2.28.29-5.6,2.81-8.33l.06-.07c2.24-2.6,5-4,6.75-3.7a4.47,4.47,0,0,1,3.72,1.1l.1.11c13-8.13,26.39-10.47,33.36-5.84,10-5.21,25.42-6.39,41.5-2.22,25.19,6.55,42.52,23.77,38.7,38.47a16.84,16.84,0,0,1-.95,2.69,44.6,44.6,0,0,1,10.14,3.1c9.27,4.32,13.52,14.84,9.48,23.49S182.42,109.06,173.15,104.74Z"/><path class="cls-3" d="M149.32,131.1a17.6,17.6,0,0,1-26.21,15.36,6.94,6.94,0,0,1-3.72,1.07,7.12,7.12,0,0,1-1.92-.27,17.51,17.51,0,0,1-13.34,6.14,18,18,0,0,1-4.43-.56,17.63,17.63,0,0,1-13.15-16.08l-1.44-.29a78.47,78.47,0,0,0-5.59,25.68c-.26,7.72,1,14.57,4,19.19,13.8,21.56,73.82,8.85,80-20.66,2.43-11.66-3.28-27.19-13-38.86-.87.67-1.76,1.33-2.67,2A17.51,17.51,0,0,1,149.32,131.1Z"/><path class="cls-1" d="M126.43,140.49a7,7,0,0,1-3.32,6,17.6,17.6,0,0,0,24.62-22.67,79.09,79.09,0,0,1-24,11.14A7,7,0,0,1,126.43,140.49Z"/><path class="cls-4" d="M117.47,147.26a7.12,7.12,0,0,0,1.92.27,6.94,6.94,0,0,0,3.72-1.07,7,7,0,0,0,.59-11.53q-2.67.75-5.45,1.34-2.55.53-5.07.9a7,7,0,0,0,4.29,10.09Z"/><path class="cls-5" d="M187.75,73.41a44.6,44.6,0,0,0-10.14-3.1,16.84,16.84,0,0,0,.95-2.69c3.82-14.7-13.51-31.92-38.7-38.47-16.08-4.17-31.47-3-41.5,2.22a10.41,10.41,0,0,1,2.56,2.39c6.42,8.47-1.6,25.37-17.92,37.76S48.23,87.08,41.8,78.61A10.68,10.68,0,0,1,40,74.94c-3.32,11-2.49,21.48,2.68,28.29-3.83,2.19-6.87,5.06-8.41,9.21-3.57,9.58.79,20.05,9.73,23.38a16.51,16.51,0,0,0,11.79-.14,18.78,18.78,0,0,0,9.09-7.57,19.87,19.87,0,0,0,1.78-3.61,43.16,43.16,0,0,0,2.08-8.72,48.24,48.24,0,0,0,.49-7.08,43.22,43.22,0,0,0,6.44-3v-1h1.74c.7-.44,1.41-.89,2.11-1.38A59.62,59.62,0,0,0,93.4,89.65,61.38,61.38,0,0,0,101,76.15c.58-1.46,1.1-2.92,1.53-4.37A73.37,73.37,0,0,0,126,82.38l1.36.34c11.86,2.86,23.27,2.82,32.34.4a37.52,37.52,0,0,0,8.91-3.57c.17.63.33,1.27.47,1.92a32.83,32.83,0,0,1-1.7,18.69,15.83,15.83,0,0,0,5.74,4.58c9.27,4.32,20,.81,24.08-7.84S197,77.73,187.75,73.41Zm-133,26.69a2.19,2.19,0,0,1-2.2-2.2c0-1.22,1.69-6.05,2.24-4.6.18.48.38.84.39.89.23,1,1.78,2.33,1.78,3.71A2.2,2.2,0,0,1,54.71,100.1Zm12.2,16.8A5.26,5.26,0,0,1,64,119.09a5.37,5.37,0,0,1-1.57.24,5.28,5.28,0,0,1-5.27-5.28c0-2.91,4.06-14.44,5.36-11,.45,1.16.91,2,.94,2.14.54,2.4,4.25,5.57,4.25,8.85A5.24,5.24,0,0,1,66.91,116.9Zm-2.07-16.66a4.4,4.4,0,0,1-4.4-4.4c0-2.43,3.39-12,4.48-9.18.37,1,.75,1.69.78,1.79.44,2,3.54,4.65,3.54,7.39A4.4,4.4,0,0,1,64.84,100.24Z"/><path class="cls-6" d="M79.55,103.27c-.7.49-1.41.94-2.11,1.38h4.45A17.11,17.11,0,0,1,79.55,103.27Z"/><path class="cls-6" d="M169.11,81.47c-.14-.65-.3-1.29-.47-1.92a37.52,37.52,0,0,1-8.91,3.57,17.27,17.27,0,0,1-1.52,15.08h2.59v3.52h-5.47a17.31,17.31,0,0,1-27.94-19L126,82.38a73.37,73.37,0,0,1-23.53-10.6c-.43,1.45-1,2.91-1.53,4.37a17.31,17.31,0,0,1-3.87,28.5h6.18v3.53H75.7V105.7a43.22,43.22,0,0,1-6.44,3,48.24,48.24,0,0,1-.49,7.08A24.65,24.65,0,0,1,105,137.52c0,.16,0,.31,0,.47q4-.21,8.15-.82,2.52-.37,5.07-.9,2.77-.59,5.45-1.34a79.09,79.09,0,0,0,24-11.14c.91-.64,1.8-1.3,2.67-2,8-6.19,13.94-13.69,17-21.66A32.83,32.83,0,0,0,169.11,81.47Zm-43,48.42a6.78,6.78,0,0,0-13.55,0,7.82,7.82,0,0,1,6.77-11.74,7.82,7.82,0,0,1,6.78,11.74Z"/><path class="cls-7" d="M83,71.52c16.32-12.39,24.34-29.29,17.92-37.76a10.41,10.41,0,0,0-2.56-2.39C91.39,26.74,78,29.08,65,37.21a4.83,4.83,0,0,1,.9,4.32,11.66,11.66,0,0,1-3.28,5.74c-2.55,2.55-5.7,3.76-8.06,3.34a3.91,3.91,0,0,1-2.1-1.06,3.77,3.77,0,0,1-.9-1.45c-9,9.34-13.45,19.68-11.53,26.84a10.68,10.68,0,0,0,1.77,3.67C48.23,87.08,66.67,83.9,83,71.52ZM81,33.09a23.14,23.14,0,0,1,12.67,1.36,12.33,12.33,0,0,1,1.55.79l-.61,1a11.83,11.83,0,0,0-1.94-.93,22.74,22.74,0,0,0-11.51-1.06,29.92,29.92,0,0,0-11.92,4.46l-.65-1A31.06,31.06,0,0,1,81,33.09ZM64.71,47.21a31,31,0,0,1,11.65,6.31C82.67,59,83.9,64.58,84.08,65.65l-1.15.2c-.17-1-1.33-6.27-7.33-11.44a29.73,29.73,0,0,0-11.2-6.07ZM46.84,65.27a26.17,26.17,0,0,1,2-7.85A17.81,17.81,0,0,1,52.4,52l.44.46.38.38c-.72.71-4.39,4.67-5.21,12.55a30,30,0,0,0,1.4,12.66l-1.1.39A31.12,31.12,0,0,1,46.84,65.27Z"/><path class="cls-8" d="M54.56,50.61c2.36.42,5.51-.79,8.06-3.34a11.66,11.66,0,0,0,3.28-5.74,4.83,4.83,0,0,0-.9-4.32l-.1-.11A4.47,4.47,0,0,0,61.18,36a2.07,2.07,0,0,1,1,.44c1.55,1.34.63,5-2.07,8.11s-6.15,4.59-7.71,3.25-.64-4.91,2-8c-2.52,2.73-3.59,6-2.81,8.33a3.77,3.77,0,0,0,.9,1.45A3.91,3.91,0,0,0,54.56,50.61Z"/><path class="cls-9" d="M52.36,47.8c1.56,1.34,5-.12,7.71-3.25s3.62-6.77,2.07-8.11a2.07,2.07,0,0,0-1-.44c-1.76-.34-4.51,1.1-6.75,3.7l-.06.07C51.72,42.89,50.82,46.48,52.36,47.8Z"/><path class="cls-10" d="M49.41,78.05A30,30,0,0,1,48,65.39c.82-7.88,4.49-11.84,5.21-12.55l-.38-.38L52.4,52a17.81,17.81,0,0,0-3.54,5.42,26.17,26.17,0,0,0-2,7.85,31.12,31.12,0,0,0,1.47,13.17Z"/><path class="cls-10" d="M82.93,65.85l1.15-.2c-.18-1.07-1.41-6.69-7.72-12.13a31,31,0,0,0-11.65-6.31l-.31,1.13a29.73,29.73,0,0,1,11.2,6.07C81.6,59.58,82.76,64.85,82.93,65.85Z"/><path class="cls-10" d="M81.13,34.25a22.74,22.74,0,0,1,11.51,1.06,11.83,11.83,0,0,1,1.94.93l.61-1a12.33,12.33,0,0,0-1.55-.79A23.14,23.14,0,0,0,81,33.09a31.06,31.06,0,0,0-12.41,4.64l.65,1A29.92,29.92,0,0,1,81.13,34.25Z"/><path class="cls-11" d="M41,44.21c1.21.07,2.11.08,2.82.09,1.37,0,1.78,0,2.09.33.84.8.58,3.08-.73,6.4l1.1.43c1.55-4,1.7-6.47.44-7.68-.66-.63-1.4-.64-2.88-.66-.71,0-1.59,0-2.77-.09-3.26-.19-4.85-.31-5.47-1-1.33-1.44,0-5,.69-6.41l-1.07-.48c-.93,2.06-2.22,5.8-.49,7.68C35.74,43.9,37.62,44,41,44.21Z"/><path class="cls-11" d="M47,39.66l1.1,0a3,3,0,0,1,.61,0s.15.29-.4,1.41l1,.52c.26-.52,1.05-2.11.05-2.87a2,2,0,0,0-1.3-.27c-.26,0-.6,0-1.06,0a6.33,6.33,0,0,1-1.9-.22c-.15-.12-.07-.66.35-1.4l-1-.58c-1,1.73-.48,2.54-.1,2.87S45.54,39.59,47,39.66Z"/><path class="cls-11" d="M51.56,32.92c.5.06.88.07,1.16.08l.43,0s0,0,0,.07c.21.41.44,1.67-.28,5.55l1.16.21c.8-4.33.48-5.66.18-6.28s-.91-.73-1.5-.75a7.68,7.68,0,0,1-1-.07c-1.33-.16-1.68-.25-1.85-.64-.38-.88-.28-3,.27-5.56L49,25.31c-.44,2.06-.82,4.82-.2,6.27C49.22,32.63,50.2,32.75,51.56,32.92Z"/><path class="cls-12" d="M105,138c0-.16,0-.31,0-.47a24.65,24.65,0,0,0-36.27-21.74,43.16,43.16,0,0,1-2.08,8.72,19.87,19.87,0,0,1-1.78,3.61,57.14,57.14,0,0,0,20.2,8.36l1.44.29A77,77,0,0,0,105,138Z"/><path class="cls-12" d="M97.1,104.65A17.31,17.31,0,0,0,101,76.15a61.38,61.38,0,0,1-7.57,13.5,59.62,59.62,0,0,1-13.85,13.62,17.11,17.11,0,0,0,2.34,1.38Z"/><path class="cls-12" d="M143.48,106.42a17.25,17.25,0,0,0,11.85-4.7H133.21V98.2h25a17.27,17.27,0,0,0,1.52-15.08c-9.07,2.42-20.48,2.46-32.34-.4a17.32,17.32,0,0,0,16.09,23.7Z"/><polygon class="cls-13" points="103.28 108.18 103.28 104.66 97.1 104.66 81.89 104.66 77.44 104.66 75.7 104.66 75.7 105.7 75.7 108.18 103.28 108.18"/><polygon class="cls-13" points="133.21 101.72 155.33 101.72 160.79 101.72 160.79 98.2 158.21 98.2 133.21 98.2 133.21 101.72"/><path class="cls-14" d="M119.32,118.15a7.82,7.82,0,0,0-6.77,11.74,6.78,6.78,0,0,1,13.55,0,7.82,7.82,0,0,0-6.78-11.74Z"/><path class="cls-15" d="M64.92,86.66c-1.09-2.87-4.48,6.75-4.48,9.18a4.4,4.4,0,1,0,8.8,0c0-2.74-3.1-5.39-3.54-7.39C65.67,88.35,65.29,87.64,64.92,86.66Zm2,8.46c-.26.1-1-.91-2.93-4.89a4.37,4.37,0,0,1,2,1.3C67.21,93,67.3,95,67,95.12Z"/><path class="cls-1" d="M67,95.12c.34-.13.25-2.16-1-3.59a4.37,4.37,0,0,0-2-1.3C65.94,94.21,66.7,95.22,67,95.12Z"/><path class="cls-15" d="M62.56,103.06c-1.3-3.45-5.36,8.08-5.36,11a5.28,5.28,0,0,0,5.27,5.28,5.37,5.37,0,0,0,1.57-.24,5.29,5.29,0,0,0,3.71-5c0-3.28-3.71-6.45-4.25-8.85C63.47,105.08,63,104.22,62.56,103.06ZM65,113.19c-.31.11-1.22-1.1-3.51-5.86a5.23,5.23,0,0,1,2.34,1.56C65.31,110.61,65.42,113,65,113.19Z"/><path class="cls-1" d="M65,113.19c.41-.15.3-2.58-1.17-4.3a5.23,5.23,0,0,0-2.34-1.56C63.79,112.09,64.7,113.3,65,113.19Z"/><path class="cls-15" d="M54.75,93.3c-.55-1.45-2.24,3.38-2.24,4.6a2.21,2.21,0,0,0,4.41,0c0-1.38-1.55-2.7-1.78-3.71C55.13,94.14,54.93,93.78,54.75,93.3Zm1,4.23c-.13,0-.51-.45-1.47-2.45a2.24,2.24,0,0,1,1,.66C55.9,96.45,55.94,97.47,55.77,97.53Z"/><path class="cls-1" d="M55.77,97.53c.17-.06.13-1.08-.49-1.79a2.24,2.24,0,0,0-1-.66C55.26,97.08,55.64,97.58,55.77,97.53Z"/></svg>
