<svg id="Layer_1" data-name="Layer 1" xmlns="http://www.w3.org/2000/svg" width="290" height="270" viewBox="0 0 290 270"><defs><style>.cls-1{fill:#e49e71;}.cls-2{fill:#c97b5f;}.cls-3{fill:#644e3b;}.cls-4{fill:#ffb4c0;}</style></defs><title>assets</title><path class="cls-1" d="M247.29,141.41l-.28.29c-.18.21-.37.4-.56.6l-.59.59c-.46.45-.93.86-1.4,1.27-.72.6-1.44,1.17-2.16,1.69-.38.26-.75.52-1.12.76-.59.39-1.18.74-1.76,1.07l-.27.16a38.35,38.35,0,0,1-7.89,3.33,32.16,32.16,0,0,1-3.42.78,34.38,34.38,0,0,1-16.7-1.37l1-2.85a30.9,30.9,0,0,0,18.33.55,34.89,34.89,0,0,0,8.58-3.84,29,29,0,0,0,4.76-3.71q.71-.67,1.38-1.44c.17-.19.34-.39.5-.59a22.78,22.78,0,0,0,2.87-4.41A22,22,0,0,0,250,130.5a24.18,24.18,0,0,0,.77-9.45A27.14,27.14,0,0,0,246,108.57c-9.86,3.6-20.91,4.27-24.38-.76-3.19-4.63-1.78-16.73,4.45-24.87-15.78-10.67-37.61-17.28-61.74-17.28-3.56,0-7.08.15-10.53.43-15.15,65.62-35.68,111.6-50.82,110.07-10.71-1.08-19.23-26-24.15-63.11q-.21.72-.39,1.44c-25.93,14.84-48.27,37.88-52.71,61.26-9.12,48.09,56.74,101.18,102.62,76,21.6-11.85,37-40.07,43.48-69,35.94-2.06,65.64-18.81,75.83-41.29l-.18-.19Zm-93.51-28a7.46,7.46,0,1,1,7.46-7.45A7.46,7.46,0,0,1,153.78,113.45Z"/><path class="cls-2" d="M102.94,176.16c15.14,1.53,35.67-44.45,50.82-110.07l0-.09-79-.34c.74,17.16,2.09,33.17,4,47.39C83.71,150.19,92.23,175.08,102.94,176.16Z"/><circle class="cls-3" cx="153.78" cy="106" r="7.46"/><path class="cls-4" d="M280.55,141.59c-2.08-5.31-7.94-9-19.66-16.27a43.93,43.93,0,0,0-7.06-3.81,27.15,27.15,0,0,1-.73,9.06l-.21.76a25.78,25.78,0,0,1-1.66,4.27,23.62,23.62,0,0,1-1.17,2.1,26,26,0,0,1-1.66,2.39c-.31.39-.64.77-1,1.15l.18.19a12.63,12.63,0,0,1,3.44,4.9c2.19,5.62-.54,8.32,1,12.2,2.54,6.34,14.87,11.75,23.39,6.44C283.73,159.83,283,147.94,280.55,141.59Z"/><path class="cls-3" d="M221.58,107.81c3.47,5,14.52,4.36,24.38.76a27.14,27.14,0,0,1,4.81,12.48,24.18,24.18,0,0,1-.77,9.45,22,22,0,0,1-1.48,3.79,22.78,22.78,0,0,1-2.87,4.41c-.16.2-.33.4-.5.59q-.68.77-1.38,1.44a29,29,0,0,1-4.76,3.71,34.89,34.89,0,0,1-8.58,3.84,30.9,30.9,0,0,1-18.33-.55l-1,2.85a34.38,34.38,0,0,0,16.7,1.37,32.16,32.16,0,0,0,3.42-.78,38.35,38.35,0,0,0,7.89-3.33l.27-.16c.58-.33,1.17-.68,1.76-1.07.37-.24.74-.5,1.12-.76.72-.52,1.44-1.09,2.16-1.69.47-.41.94-.82,1.4-1.27l.59-.59c.19-.2.38-.39.56-.6l.28-.29.15-.17c.32-.38.65-.76,1-1.15a26,26,0,0,0,1.66-2.39,23.62,23.62,0,0,0,1.17-2.1,25.78,25.78,0,0,0,1.66-4.27l.21-.76a27.15,27.15,0,0,0,.73-9.06c-.05-.51-.1-1-.17-1.52a30,30,0,0,0-4.11-11.42c-.24-.38-.48-.77-.73-1.14l.49-.22a42.74,42.74,0,0,0,5.38-2.86c4.89-3.09,8.36-6.9,8.56-10.86.28-5.79-6.33-14-14.94-17.16a19.57,19.57,0,0,0-10.77-1l-.76.17A19.52,19.52,0,0,0,226,82.94C219.8,91.08,218.39,103.18,221.58,107.81Z"/><path class="cls-4" d="M201.52,48.91c3.12,1.22,7.83,3.07,13.76,2.21,2.46-.37,9-1.33,11.38-6.61s-.57-13.31-7.25-19.29l-2.72,3c5.94,5.31,7.66,11.49,6.26,14.6s-6.4,4-8.26,4.24c-4.86.71-8.8-.84-11.68-2-2.68-1-5.2-2-7-.12s-2.31,5.75,6.16,20.7l3.53-2C199.42,52.61,198.91,49,199,48A22.9,22.9,0,0,1,201.52,48.91Z"/></svg>
