<svg id="Layer_1" data-name="Layer 1" xmlns="http://www.w3.org/2000/svg" width="170" height="170" viewBox="0 0 170 170"><defs><style>.cls-1{fill:#e1dddc;}.cls-2{fill:#b4a299;}</style></defs><title>assets</title><path class="cls-1" d="M151.57,68.1H140.13l15.1-13.95A14.42,14.42,0,0,0,156,33.76l-5.73-6.2a14.43,14.43,0,0,0-20.38-.81L114.1,41.37A52.2,52.2,0,0,0,103.65,36V18.43A14.43,14.43,0,0,0,89.22,4H80.78A14.43,14.43,0,0,0,66.35,18.43V36A53.62,53.62,0,0,0,61,38.36L50.7,27.22a14.41,14.41,0,0,0-20.38-.81l-6.2,5.72a14.43,14.43,0,0,0-.82,20.39L36,66.27q-.34.9-.66,1.83H18.43A14.43,14.43,0,0,0,4,82.53V91A14.43,14.43,0,0,0,18.43,105.4H35.11L23.56,116.06a14.43,14.43,0,0,0-.81,20.39l5.73,6.2a14.43,14.43,0,0,0,20.38.81l12.56-11.6c1.6.8,3.25,1.53,4.93,2.17v17.54A14.43,14.43,0,0,0,80.78,166h8.44a14.43,14.43,0,0,0,14.43-14.43V134c1.33-.51,2.63-1.06,3.9-1.67l14.13,15.3a14.43,14.43,0,0,0,20.38.81l6.21-5.73a14.44,14.44,0,0,0,.81-20.39L133.41,105.4h18.16A14.43,14.43,0,0,0,166,91V82.53A14.43,14.43,0,0,0,151.57,68.1ZM84.71,118.8A31.76,31.76,0,1,1,116.47,87,31.76,31.76,0,0,1,84.71,118.8Z"/><circle class="cls-2" cx="84.71" cy="87.04" r="31.76"/></svg>
