<svg id="Layer_1" data-name="Layer 1" xmlns="http://www.w3.org/2000/svg" width="190" height="80" viewBox="0 0 190 80"><defs><style>.cls-1{fill:#fff635;}</style></defs><title>assets</title><path class="cls-1" d="M79,58.08c-.48.43-.31,1.39-.39,1.91.69-.09.69-.09.6-.56C79.12,59.12,79.21,58.38,79,58.08Z"/><path class="cls-1" d="M70.42,41.28a3.32,3.32,0,0,0-.09-2.83C69.89,39.45,70.37,40.28,70.42,41.28Z"/><path class="cls-1" d="M159.22,2.57H32.8A24.63,24.63,0,0,0,8.17,27.2V53.37A24.63,24.63,0,0,0,32.8,78H159.22a24.63,24.63,0,0,0,24.63-24.63V27.2A24.63,24.63,0,0,0,159.22,2.57ZM72.55,60.69c-.22.13-.13.35-.17.52a.65.65,0,0,1-.83.35,5.68,5.68,0,0,1-2.35-1.18,2.25,2.25,0,0,1-1-2.13,27.46,27.46,0,0,1,0-3.74,10,10,0,0,0-.08-2.26c-.26-2.75-.22-5.44-.44-8.18-.22-2.57-.17-5.14-.52-7.71L67,36a4.88,4.88,0,0,0-.61,1.53c-.31,1.09-.74,2.17-1,3.26a35.07,35.07,0,0,0-1,6.66c0,.48-.13,1-.17,1.48a4.31,4.31,0,0,0-.13,2.22c.26.74-.35,1.13-.65,1.61-.09.17-.31.09-.44,0a1.79,1.79,0,0,0-.82-.22c-.09.31-.09.57.34.57s.57.65.79.91c-.18.26-.35.22-.61.26-.74.09-1.61,0-1.87-.3s-.44-.39-.92-.66a3.73,3.73,0,0,1-1.52-1.95c-1-2.66-2.05-5.36-2.83-8.1-.39-1.48-.78-3-1.22-4.48a11,11,0,0,0-.48-1.48c.18.87-.26,1.7-.08,2.57a25.7,25.7,0,0,1,0,3.17c.09,1.74,0,3.57.17,5.31.14,1.53.22,3.05.44,4.53a10.43,10.43,0,0,1,.17,2.61,35.13,35.13,0,0,0-.08,4.35.88.88,0,0,1-.09.65c-.35.48-.65.57-1.31.22-.17.09-.13.35-.39.39,0-.08-.17-.13-.17-.26l-.13-2.43.08-5a31.72,31.72,0,0,0-.21-4.57,74.53,74.53,0,0,1-.26-9.45c0-2.21-.05-4.87,0-7.13a3.44,3.44,0,0,0-.05-1c0-.35.18-.52.48-.65a2,2,0,0,1,1.44,0c.3-.13.3-.43.48-.61.61-.61.69-.69,1.52-.35a1.77,1.77,0,0,1,1.22,1,.25.25,0,0,0,.3.13c.09-.4-.08-.83.13-1.18.22,0,.31,0,.35.17A9.16,9.16,0,0,0,59,31.66a4.36,4.36,0,0,1,.69,1.74c.83,3.18,1.66,6.79,2.44,10,.22,1,.43,2,.78,3.18a13.91,13.91,0,0,0,.57-2.75c.22-1.35.3-2.69.56-4,.26-1.48.53-3,.87-4.4a16.47,16.47,0,0,1,1-3.78c.31-.57.79-1,1.4-.91l1,.21a1.27,1.27,0,0,1,.65.31c.53.52.61.48.92-.26,0,0,0,0,.13-.13.22.08.39.39.7.13.13-.13.39,0,.6,0s.22.17.35.22c1.53.48,1.61,1.69,1.66,3,0,.17,0,.35,0,.48a56,56,0,0,1-.22,6.74c0,1.78,0,3.61.22,5.4.18,1.48.18,3,.35,4.52.22,2,0,3.92.13,5.88,0,.82.22,1.61.18,2.43S73.51,60.91,72.55,60.69Zm11.1-24c0,.44,0,.87,0,1.35a39.6,39.6,0,0,0,0,5.66c1.43-.22,2.83.17,4.22,0,.69-.13,1.09.48,1.65.87a1.79,1.79,0,0,1-1,.53,4.53,4.53,0,0,0-1.26.3,10.81,10.81,0,0,1-3.13.44c-.57,0-.57,0-.52.6,0,1.05,0,2.09,0,3.18a28.61,28.61,0,0,0-.13,3.48,4.23,4.23,0,0,1-.13,1.22,8.72,8.72,0,0,0-.22,3.22c.09.44.26.57.65.52a3.37,3.37,0,0,1,1,0,.3.3,0,0,1,.22.3c-.48.44-1.35,0-1.88.61a1,1,0,0,0,.88,0c1.52-.39,3-.61,4.56-1,.79-.22,1.61-.09,2.4-.26a.76.76,0,0,1,.61.17c.26.26.52.48.78.7-.26.34-.74.17-1,.39-.09.26.17.39.26.61s.13.56-.26.56a6,6,0,0,0-2,.44,9,9,0,0,1-1.44.22,20.08,20.08,0,0,0-4,.26c-.35.08-.65.08-.74.6,0,.35-.3.4-.61.14s-.65-.14-1-.09a28.78,28.78,0,0,1-5.09.35c-.26,0-.48-.22-.74-.31a.41.41,0,0,1-.26-.43c0-.26.13-.35.35-.39a12.92,12.92,0,0,0,2.17-.7c0-1,0-2,0-3,.26-3.22.09-6.26.35-9.48s.31-6.31.39-9.45c0-1.56-.08-3.13-.08-4.65,0-.39-.18-.57-.53-.57-.56,0-.47-.3-1-.39a.69.69,0,0,1-.61-.44,13,13,0,0,1,2.09-.47,5,5,0,0,0,.09-.7c0-.44,0-.78.6-.7,0,0,.14,0,.14,0,.78-.74,1.52-.31,2.3,0a2.51,2.51,0,0,1,1.44.87.39.39,0,0,0,.3,0c1.83-.31,3.7-.26,5.53-.57.48,0,1-.17,1.44-.17a2.57,2.57,0,0,1,2.26,1.52,12,12,0,0,1-3,.48c-1,0-2-.09-3,0s-1.83.3-2.74.34c-.27,0-.4.18-.48.44A9.62,9.62,0,0,0,83.65,36.71Zm27.28,21.58c-.56.4-.22.79-.22,1.18,0,.22.05.39.05.61a1.25,1.25,0,0,1-.79,1.26.32.32,0,0,1-.47-.17c-.27-.35-.57-.31-.92-.35-.83-.13-1.65.13-2.39-.31-.52.27-.92-.21-1.39-.26s-.79-.39-.92-.87c-.3-1.09-.65-2.13-.91-3.22-.39-1.69-1-3.26-1.39-5-.48-2.3-1.27-4.52-2-6.79a45.43,45.43,0,0,1-1.44-5.35C98,38,97.7,36.88,97.49,35.8c-.31.08-.22.26-.22.35-.09,3.61-.18,7.18-.18,10.79,0,2.56.26,5.13.31,7.74,0,1.44.3,2.88.39,4.31a23,23,0,0,1,0,2.52c-.61-.26-1-.73-1.56-.86A.54.54,0,0,1,96,60a2.44,2.44,0,0,0-.3-1.09,1.69,1.69,0,0,1-.22-1c-.17-2.05-.17-4.09-.26-6.18A8,8,0,0,0,95,50a1.92,1.92,0,0,1,0-.48c.18-2.48-.13-5-.08-7.49,0-2.83,0-5.61,0-8.44,0-.56,0-1.17-.09-1.78,0-.35,0-.53.48-.66a2.81,2.81,0,0,1,1.79,0,.93.93,0,0,0,.69-.13,9.25,9.25,0,0,1,3-.48c.09,0,.26,0,.26.13.13.61.65,1,.87,1.57.57,1.7.65,3.48,1.31,5.18,1,2.61,1.65,5.35,2.61,8,.35,1,.56,2.05.87,3.05.48,1.69,1,3.39,1.48,5.09,0,.09.08.22.21.22a21.8,21.8,0,0,0-.21-6.49c-.22.31,0,.61-.09.92a7.55,7.55,0,0,1,0,1c-.31-.08-.26-.3-.26-.48,0-1.08,0-2.22-.14-3.35,0-.65.14-1.35.14-2,0-.87-.09-1.7-.14-2.53a17.52,17.52,0,0,1-.08-2.61c.08-2.09.13-4.13,0-6.22a1.6,1.6,0,0,1,.44-.91c.08-.13.3-.13.43-.13A2,2,0,0,1,109.84,32a36.68,36.68,0,0,1,.31,4c-.09,1.35,0,2.7,0,4.09,0,1,.13,2.09,0,3.17-.09,1.92,0,3.83,0,5.79,0,1.18.3,2.4.39,3.61.09,1.53.43,3,.52,4.53C111.06,57.56,111.19,58.12,110.93,58.29Zm18.37-9.83c.08,1.65-.05,3.31-.09,5a10.71,10.71,0,0,1-.35,2,2.53,2.53,0,0,0,0,1.39A3.54,3.54,0,0,1,128,60a1.68,1.68,0,0,1-1,.52,9.79,9.79,0,0,0-1.57.43,2.41,2.41,0,0,1-1,.22c-.13,0-.35-.09-.43.09-.22.48-.66.35-1,.3a2.39,2.39,0,0,0-1.27,0A4.09,4.09,0,0,1,119,61c-.82-.48-1.61-1-2.43-1.53a4.13,4.13,0,0,1-1.83-3c-.09-.57-.18-1.18-.31-1.74-.08-.4.13-.74.09-1.13a56.61,56.61,0,0,1,0-6c.09-2.3,0-4.61-.09-6.92a41.87,41.87,0,0,1,.31-6.61c.09-.83.26-1.65.3-2.48s.35-1.22,1.18-1.44a.44.44,0,0,1,.39,0c.3.31.7.22,1,.18s.57.13.66-.35a1.29,1.29,0,0,1,.78-.39.39.39,0,0,1,.52.35,9.78,9.78,0,0,1,.39,3,16.61,16.61,0,0,0,.22,3.22,28.49,28.49,0,0,1,0,3.92c0,1.26-.13,2.52-.17,3.78a29,29,0,0,1-.35,3.87,13.39,13.39,0,0,0,0,2.61l.13,2.49a5.62,5.62,0,0,0,.26,1.52c.35,1,.65,2,1.05,3a9.61,9.61,0,0,0,1,1.48,1.16,1.16,0,0,0,1.26.65,2.3,2.3,0,0,0,1.52-.3,3.9,3.9,0,0,0,1.74-3.44,30.51,30.51,0,0,1,.26-4,2.12,2.12,0,0,0,0-.74,37.07,37.07,0,0,1,.3-5.39,12.19,12.19,0,0,0-.13-2.83A24.35,24.35,0,0,1,127,38.1c0-1.17-.09-2.3-.13-3.48,0-.56-.17-1.09.26-1.61.13-.17,0-.61,0-.87s0-.56.39-.61c.57,0,.79,0,.92.48a1.94,1.94,0,0,1,.13.87v1.31c.61-1-.09-2,.26-3.09.22-.05.35,0,.35.21a1.27,1.27,0,0,1,0,.57c-.13,1.31.09,2.57,0,3.87,0,.44,0,.83-.08,1.27a9.08,9.08,0,0,0,0,1.95,28.7,28.7,0,0,1,.34,4.36C129.43,45,129.21,46.76,129.3,48.46Z"/><path class="cls-1" d="M108.23,58.9c0,.79,0,.79.74.7C108.8,59.25,108.76,58.86,108.23,58.9Z"/><path d="M73.68,51.33c-.17-1.48-.17-3-.35-4.52-.17-1.79-.22-3.62-.22-5.4a56,56,0,0,0,.22-6.74c0-.13,0-.31,0-.48,0-1.27-.13-2.48-1.66-3-.13-.05-.22-.18-.35-.22s-.47-.17-.6,0c-.31.26-.48,0-.7-.13-.09.08-.13.08-.13.13-.31.74-.39.78-.92.26a1.27,1.27,0,0,0-.65-.31l-1-.21c-.61-.13-1.09.34-1.4.91a16.47,16.47,0,0,0-1,3.78c-.34,1.44-.61,2.92-.87,4.4-.26,1.31-.34,2.65-.56,4a13.91,13.91,0,0,1-.57,2.75c-.35-1.18-.56-2.18-.78-3.18-.78-3.18-1.61-6.79-2.44-10A4.36,4.36,0,0,0,59,31.66,9.16,9.16,0,0,1,58,29.83c0-.13-.13-.21-.35-.17-.21.35,0,.78-.13,1.18a.25.25,0,0,1-.3-.13,1.77,1.77,0,0,0-1.22-1c-.83-.34-.91-.26-1.52.35-.18.18-.18.48-.48.61a2,2,0,0,0-1.44,0c-.3.13-.52.3-.48.65a3.44,3.44,0,0,1,.05,1c-.05,2.26,0,4.92,0,7.13a74.53,74.53,0,0,0,.26,9.45,31.72,31.72,0,0,1,.21,4.57l-.08,5,.13,2.43c0,.13.13.18.17.26.26,0,.22-.3.39-.39.66.35,1,.26,1.31-.22a.88.88,0,0,0,.09-.65,35.13,35.13,0,0,1,.08-4.35,10.43,10.43,0,0,0-.17-2.61c-.22-1.48-.3-3-.44-4.53-.13-1.74-.08-3.57-.17-5.31a25.7,25.7,0,0,0,0-3.17c-.18-.87.26-1.7.08-2.57a11,11,0,0,1,.48,1.48c.44,1.48.83,3,1.22,4.48.78,2.74,1.79,5.44,2.83,8.1A3.73,3.73,0,0,0,60,53.33c.48.27.57.22.92.66s1.13.39,1.87.3c.26,0,.43,0,.61-.26-.22-.26-.35-.87-.79-.91s-.43-.26-.34-.57a1.79,1.79,0,0,1,.82.22c.13.09.35.17.44,0,.3-.48.91-.87.65-1.61a4.31,4.31,0,0,1,.13-2.22c0-.52.17-1,.17-1.48a35.07,35.07,0,0,1,1-6.66c.22-1.09.65-2.17,1-3.26A4.88,4.88,0,0,1,67,36l.13.35c.35,2.57.3,5.14.52,7.71.22,2.74.18,5.43.44,8.18a10,10,0,0,1,.08,2.26,27.46,27.46,0,0,0,0,3.74,2.25,2.25,0,0,0,1,2.13,5.68,5.68,0,0,0,2.35,1.18.65.65,0,0,0,.83-.35c0-.17,0-.39.17-.52,1,.22,1.35-.13,1.44-1s-.14-1.61-.18-2.43C73.72,55.25,73.9,53.29,73.68,51.33Zm-3.26-10c0-1-.53-1.83-.09-2.83A3.32,3.32,0,0,1,70.42,41.28Z"/><path d="M84,32.53c.91,0,1.82-.3,2.74-.34s2,0,3,0a12,12,0,0,0,3-.48,2.57,2.57,0,0,0-2.26-1.52c-.48,0-1,.13-1.44.17-1.83.31-3.7.26-5.53.57a.39.39,0,0,1-.3,0,2.51,2.51,0,0,0-1.44-.87c-.78-.27-1.52-.7-2.3,0,0,0-.09,0-.14,0-.56-.08-.6.26-.6.7a5,5,0,0,1-.09.7,13,13,0,0,0-2.09.47.69.69,0,0,0,.61.44c.57.09.48.39,1,.39.35,0,.53.18.53.57,0,1.52.13,3.09.08,4.65-.08,3.14-.17,6.31-.39,9.45S78.29,53.81,78,57c0,1,0,2,0,3a12.92,12.92,0,0,1-2.17.7c-.22,0-.35.13-.35.39a.41.41,0,0,0,.26.43c.26.09.48.31.74.31a28.78,28.78,0,0,0,5.09-.35c.35-.05.65-.18,1,.09s.57.21.61-.14c.09-.52.39-.52.74-.6a20.08,20.08,0,0,1,4-.26,9,9,0,0,0,1.44-.22,6,6,0,0,1,2-.44c.39,0,.47-.26.26-.56s-.35-.35-.26-.61c.3-.22.78,0,1-.39-.26-.22-.52-.44-.78-.7a.76.76,0,0,0-.61-.17c-.79.17-1.61,0-2.4.26-1.52.43-3,.65-4.56,1a1,1,0,0,1-.88,0c.53-.65,1.4-.17,1.88-.61a.3.3,0,0,0-.22-.3,3.37,3.37,0,0,0-1,0c-.39,0-.56-.08-.65-.52a8.72,8.72,0,0,1,.22-3.22,4.23,4.23,0,0,0,.13-1.22,28.61,28.61,0,0,1,.13-3.48c0-1.09,0-2.13,0-3.18-.05-.56-.05-.56.52-.6a10.81,10.81,0,0,0,3.13-.44,4.53,4.53,0,0,1,1.26-.3,1.79,1.79,0,0,0,1-.53c-.56-.39-1-1-1.65-.87-1.39.22-2.79-.17-4.22,0a39.6,39.6,0,0,1,0-5.66c0-.48,0-.91,0-1.35A9.62,9.62,0,0,1,83.52,33C83.6,32.71,83.73,32.53,84,32.53ZM78.56,60c.08-.52-.09-1.48.39-1.91.26.3.17,1,.21,1.35C79.25,59.9,79.25,59.9,78.56,60Z"/><path d="M110.54,52.59c-.09-1.21-.39-2.43-.39-3.61,0-2-.09-3.87,0-5.79.09-1.08,0-2.13,0-3.17,0-1.39,0-2.74,0-4.09a36.68,36.68,0,0,0-.31-4,2,2,0,0,0-1.26-1.13c-.13,0-.35,0-.43.13a1.6,1.6,0,0,0-.44.91c.09,2.09,0,4.13,0,6.22a17.52,17.52,0,0,0,.08,2.61c0,.83.14,1.66.14,2.53,0,.69-.14,1.39-.14,2,.09,1.13.14,2.27.14,3.35,0,.18,0,.4.26.48a7.55,7.55,0,0,0,0-1c0-.31-.13-.61.09-.92a21.8,21.8,0,0,1,.21,6.49c-.13,0-.17-.13-.21-.22-.48-1.7-1-3.4-1.48-5.09-.31-1-.52-2.05-.87-3.05-1-2.61-1.66-5.35-2.61-8-.66-1.7-.74-3.48-1.31-5.18-.22-.61-.74-1-.87-1.57,0-.08-.17-.13-.26-.13a9.25,9.25,0,0,0-3,.48.93.93,0,0,1-.69.13,2.81,2.81,0,0,0-1.79,0c-.48.13-.48.31-.48.66,0,.61.09,1.22.09,1.78,0,2.83,0,5.61,0,8.44,0,2.48.26,5,.08,7.49A1.92,1.92,0,0,0,95,50a8,8,0,0,1,.18,1.78c.09,2.09.09,4.13.26,6.18a1.69,1.69,0,0,0,.22,1A2.44,2.44,0,0,1,96,60a.54.54,0,0,0,.31.61c.61.13,1,.6,1.56.86a23,23,0,0,0,0-2.52c-.09-1.43-.35-2.87-.39-4.31-.05-2.61-.31-5.18-.31-7.74,0-3.61.09-7.18.18-10.79,0-.09-.09-.27.22-.35.21,1.08.52,2.17.69,3.26a45.43,45.43,0,0,0,1.44,5.35c.69,2.27,1.48,4.49,2,6.79.39,1.7,1,3.27,1.39,5,.26,1.09.61,2.13.91,3.22.13.48.35.83.92.87s.87.53,1.39.26c.74.44,1.56.18,2.39.31.35,0,.65,0,.92.35a.32.32,0,0,0,.47.17,1.25,1.25,0,0,0,.79-1.26c0-.22-.05-.39-.05-.61,0-.39-.34-.78.22-1.18.26-.17.13-.73.13-1.17C111,55.6,110.63,54.12,110.54,52.59Zm-2.31,6.31c.53,0,.57.35.74.7C108.19,59.69,108.19,59.69,108.23,58.9Z"/><path d="M129.17,39a9.08,9.08,0,0,1,0-1.95c0-.44.08-.83.08-1.27.09-1.3-.13-2.56,0-3.87a1.27,1.27,0,0,0,0-.57c0-.17-.13-.26-.35-.21-.35,1,.35,2.13-.26,3.09V32.88a1.94,1.94,0,0,0-.13-.87c-.13-.43-.35-.52-.92-.48-.39,0-.39.31-.39.61s.09.7,0,.87c-.43.52-.26,1.05-.26,1.61,0,1.18.17,2.31.13,3.48a24.35,24.35,0,0,0,.13,4.75,12.19,12.19,0,0,1,.13,2.83,37.07,37.07,0,0,0-.3,5.39,2.12,2.12,0,0,1,0,.74,30.51,30.51,0,0,0-.26,4,3.9,3.9,0,0,1-1.74,3.44,2.3,2.3,0,0,1-1.52.3,1.16,1.16,0,0,1-1.26-.65,9.61,9.61,0,0,1-1-1.48c-.4-1-.7-2-1.05-3a5.62,5.62,0,0,1-.26-1.52l-.13-2.49a13.39,13.39,0,0,1,0-2.61,29,29,0,0,0,.35-3.87c0-1.26.13-2.52.17-3.78a28.49,28.49,0,0,0,0-3.92A16.61,16.61,0,0,1,120,33a9.78,9.78,0,0,0-.39-3,.39.39,0,0,0-.52-.35,1.29,1.29,0,0,0-.78.39c-.09.48-.35.35-.66.35s-.74.13-1-.18a.44.44,0,0,0-.39,0c-.83.22-1.13.48-1.18,1.44s-.21,1.65-.3,2.48a41.87,41.87,0,0,0-.31,6.61c.13,2.31.18,4.62.09,6.92a56.61,56.61,0,0,0,0,6c0,.39-.17.73-.09,1.13.13.56.22,1.17.31,1.74a4.13,4.13,0,0,0,1.83,3c.82.48,1.61,1.05,2.43,1.53a4.09,4.09,0,0,0,2.74.61,2.39,2.39,0,0,1,1.27,0c.34,0,.78.18,1-.3.08-.18.3-.13.43-.09a2.41,2.41,0,0,0,1-.22,9.79,9.79,0,0,1,1.57-.43,1.68,1.68,0,0,0,1-.52,3.54,3.54,0,0,0,.91-3.18,2.53,2.53,0,0,1,0-1.39,10.71,10.71,0,0,0,.35-2c0-1.65.17-3.31.09-5s.13-3.44.21-5.13A28.7,28.7,0,0,0,129.17,39Z"/></svg>
