<svg id="Layer_1" data-name="Layer 1" xmlns="http://www.w3.org/2000/svg" width="440" height="440" viewBox="0 0 440 440"><defs><style>.cls-1{fill:#593f1f;}.cls-2{fill:#644e3b;}.cls-3{fill:#e1dddc;}.cls-4{fill:#ff8349;}.cls-5{fill:#b4a299;}</style></defs><title>assets</title><path class="cls-1" d="M117.9,157.21c5.14-6.13,10.54-12.17,15.8-17.53,1.18-9.26.48-16.18-3-18.5-11.18-7.35-46.85,34-65.17,59.77A164.46,164.46,0,0,1,114,158.25C115.3,157.89,116.59,157.54,117.9,157.21Z"/><path class="cls-1" d="M343.76,280.35c27.16,5.16,67.5-9.79,74.1-20.33,6.94-11.07-25.67-13.53-50.34-24.89-8.06,15.08-16.78,29.9-26.15,44.09C342.15,279.6,343,280,343.76,280.35Z"/><path class="cls-2" d="M33.35,406.4c10.37,10.37,35.48,2.06,56.09-18.55.71-.71,1.4-1.42,2.08-2.14-17.16-6.55-33.78-15.25-48-26C29.24,378.07,24.53,397.58,33.35,406.4Z"/><path class="cls-1" d="M253,226.38c14.94-5.79,13.57-45.25-3.05-88.12-2.45-6.3-5.08-12.33-7.85-18-18,10.8-35.31,19.79-51.06,25.4,1.43,4.46,3,9,4.8,13.58C212.49,202.11,238.08,232.18,253,226.38Z"/><path class="cls-1" d="M310.21,163.81c13.92-7.21,10.65-41.16-7.3-75.83-1.05-2-2.13-4-3.23-6C284,93.14,268,104.1,252.39,113.94l.09.17C270.43,148.77,296.28,171,310.21,163.81Z"/><path class="cls-1" d="M365.15,96.38c11.9-6.16,11.24-31.85-.41-60.82-13.87,9.61-29,20.59-44.64,31.87C336.1,89.66,354.27,102,365.15,96.38Z"/><path class="cls-1" d="M420.92,45.79a30.73,30.73,0,0,0,15.42-4.17,161.66,161.66,0,0,0,2.48-24.84c0-22.12-19.93-15.87-49.86,2.73C393,34.7,405.8,45.79,420.92,45.79Z"/><path class="cls-3" d="M145.46,230.94c0-.51-.06-1-.11-1.55,0-.31-.08-.62-.11-.93-.06-.46-.11-.91-.18-1.37s-.11-.65-.16-1-.15-.86-.23-1.28l-.21-1c-.09-.4-.19-.81-.29-1.21s-.17-.68-.26-1l-.33-1.17c-.11-.34-.21-.68-.32-1l-.38-1.11-.37-1-.42-1.07c-.14-.34-.28-.68-.43-1l-.45-1c-.16-.34-.32-.68-.49-1s-.32-.63-.48-.94-.36-.7-.55-1l-.48-.85c-.21-.36-.42-.72-.64-1.08l-.43-.68-.77-1.18-.08-.11c-.52-.76-1.07-1.51-1.64-2.25s-1.33-1.65-2-2.45c-.07-.07-.13-.15-.2-.23-.38-.42-.77-.83-1.16-1.23l-.33-.35-1.18-1.15-.38-.36c-.39-.37-.8-.73-1.21-1.09l-.4-.34c-.42-.36-.85-.7-1.28-1l-.4-.31c-.44-.35-.89-.68-1.34-1l-.38-.28c-.47-.33-.94-.65-1.43-1l-.33-.22-1.53-.94-.26-.15-1.67-.92-.12-.06c-.65-.34-1.31-.66-2-1l-.79-.35c-.41-.18-.81-.36-1.23-.53l-.93-.37-1.14-.43-1-.33c-.37-.12-.75-.25-1.13-.36l-1-.29-1.14-.31-1-.25-1.17-.25-1-.2-1.2-.19c-.35-.06-.71-.11-1.06-.15-.61-.08-1.22-.16-1.84-.21s-1-.09-1.51-.12l-.71,0c-.67,0-1.35,0-2,0a47.53,47.53,0,0,0-47.53,47.54q0,1.17.06,2.34c0,.62.08,1.24.13,1.86l0,.39c.07.69.15,1.36.25,2,0,.17.05.33.07.49.08.51.16,1,.26,1.51,0,.2.07.4.11.6.11.56.22,1.11.35,1.67a2.44,2.44,0,0,1,.06.26c.15.59.3,1.17.46,1.74,0,.11.06.22.1.33.16.57.33,1.14.52,1.7,0,.1.07.2.1.3.2.58.4,1.15.61,1.71a1.66,1.66,0,0,1,.06.16c.39,1,.81,2,1.26,2.92a47.22,47.22,0,0,0,3.19,5.79l.18.29c.3.45.61.89.92,1.33.1.14.19.28.3.42.3.42.6.83.92,1.23l.36.46.95,1.17.39.44c.33.39.66.76,1,1.14.11.12.24.24.35.37a49,49,0,0,0,3.85,3.64l.26.23,1,.83c.22.17.43.35.65.51l1,.73.77.54c.32.22.64.44,1,.65l.84.54,1,.59.92.53,1,.53c.33.18.67.35,1,.52s.61.31.92.45l1.2.55.78.34c.65.28,1.32.54,2,.79l.69.23c.46.17.93.33,1.4.48l.85.25,1.28.37.91.22,1.28.3.92.18c.44.09.87.17,1.31.24l.92.14,1.38.18.88.1c.51.05,1,.08,1.53.11l.76.05q1.15.06,2.31.06a47.53,47.53,0,0,0,47.54-47.53c0-.8,0-1.58-.06-2.37C145.51,231.46,145.48,231.2,145.46,230.94ZM97.12,260.63A23.17,23.17,0,0,1,75.65,228.8l-5.88,1.93-3.08-9.38,50.44-16.57,3.09,9.39-11,3.6a23.15,23.15,0,0,1-12.13,42.86Z"/><path class="cls-4" d="M135.65,205c.57.74,1.12,1.49,1.64,2.25C136.77,206.5,136.22,205.76,135.65,205Z"/><path class="cls-4" d="M51.31,242.71c-.1-.5-.18-1-.26-1.51C51.13,241.71,51.21,242.21,51.31,242.71Z"/><path class="cls-4" d="M51.77,245c-.13-.56-.24-1.11-.35-1.67C51.53,243.87,51.64,244.42,51.77,245Z"/><path class="cls-4" d="M51,240.71c-.1-.67-.18-1.34-.25-2C50.8,239.37,50.88,240,51,240.71Z"/><path class="cls-4" d="M108.61,187.75l1,.25Z"/><path class="cls-4" d="M110.8,188.31l1,.29Z"/><path class="cls-4" d="M104.13,187c.35,0,.71.09,1.06.15C104.84,187.05,104.48,187,104.13,187Z"/><path class="cls-4" d="M113,189l1,.33Z"/><path class="cls-4" d="M117.25,190.62l.79.35Z"/><path class="cls-4" d="M106.39,187.3l1,.2Z"/><path class="cls-4" d="M115.09,189.72l.93.37Z"/><path class="cls-4" d="M58.13,259.89a47.22,47.22,0,0,1-3.19-5.79A47.22,47.22,0,0,0,58.13,259.89Z"/><path class="cls-1" d="M109.25,217.77l11-3.6-3.09-9.39L66.69,221.35l3.08,9.38,5.88-1.93a23.16,23.16,0,1,0,33.6-11Z"/><path class="cls-1" d="M31,308.15,1.2,286.76c0,1.23.08,2.54.18,3.92l27.85,20Z"/><path class="cls-5" d="M420.92,45.79c-15.12,0-27.88-11.09-32-26.28-7.5,4.66-15.62,10.09-24.22,16.05,11.65,29,12.31,54.66.41,60.82-10.88,5.64-29-6.72-45-28.95-6.72,4.84-13.54,9.74-20.42,14.6,1.1,1.94,2.18,3.93,3.23,6,17.95,34.67,21.22,68.62,7.3,75.83s-39.78-15-57.73-49.7l-.09-.17q-5.16,3.24-10.27,6.32c2.77,5.67,5.4,11.7,7.85,18,16.62,42.87,18,82.33,3.05,88.12s-40.53-24.27-57.16-67.14c-1.77-4.58-3.37-9.12-4.8-13.58a104.36,104.36,0,0,1-25.53,6.06c3.53-15.08,4.13-27.36-.81-30.61-5.76-3.78-18,5.33-31,18.57-5.26,5.36-10.66,11.4-15.8,17.53-1.31.33-2.6.68-3.88,1a165.2,165.2,0,0,0-79.69,50.4C18.89,226.4,8.39,246.34,3.74,265.4A8,8,0,0,1,1.29,281c-.09,1.63-.14,3.57-.09,5.76L31,308.15l-1.8,2.51-27.85-20A79.79,79.79,0,0,0,4.2,306.93c6,20.91,20.52,38.63,39.34,52.82,14.2,10.71,30.82,19.41,48,26l2,.76c-14.14,18.24-18.76,37.6-10,46.38,10.37,10.36,35.48,2.06,56.1-18.56a99.42,99.42,0,0,0,12.1-14.59q4.25.35,8.33.45c58.47,1.62,108.36-31,149.09-78.13,25.73,12.8,77.05-4.93,84.57-16.94,6.91-11-25.37-13.51-50-24.73-.81-.37-1.61-.75-2.39-1.13,9.37-14.19,18.09-29,26.15-44.09,38.2-71.44,61.53-148.78,68.82-193.51A30.73,30.73,0,0,1,420.92,45.79ZM98,281.62q-1.16,0-2.31-.06l-.76-.05c-.51,0-1-.06-1.53-.11l-.88-.1-1.38-.18-.92-.14c-.44-.07-.87-.15-1.31-.24l-.92-.18-1.28-.3-.91-.22-1.28-.37-.85-.25c-.47-.15-.94-.31-1.4-.48l-.69-.23c-.67-.25-1.34-.51-2-.79l-.78-.34-1.2-.55c-.31-.14-.61-.3-.92-.45s-.68-.34-1-.52l-1-.53-.92-.53-1-.59-.84-.54c-.33-.21-.65-.43-1-.65l-.77-.54-1-.73c-.22-.16-.43-.34-.65-.51l-1-.83-.26-.23a49,49,0,0,1-3.85-3.64c-.11-.13-.24-.25-.35-.37-.35-.38-.68-.75-1-1.14l-.39-.44-.95-1.17-.36-.46c-.32-.4-.62-.81-.92-1.23-.11-.14-.2-.28-.3-.42-.31-.44-.62-.88-.92-1.33l-.18-.29a47.22,47.22,0,0,1-3.19-5.79c-.45-1-.87-1.93-1.26-2.92a1.66,1.66,0,0,0-.06-.16c-.21-.56-.41-1.13-.61-1.71,0-.1-.07-.2-.1-.3-.19-.56-.36-1.13-.52-1.7,0-.11-.07-.22-.1-.33-.16-.57-.31-1.15-.46-1.74a2.44,2.44,0,0,0-.06-.26c-.13-.56-.24-1.11-.35-1.67,0-.2-.08-.4-.11-.6-.1-.5-.18-1-.26-1.51,0-.16,0-.32-.07-.49-.1-.67-.18-1.34-.25-2l0-.39c-.05-.62-.1-1.24-.13-1.86q-.06-1.17-.06-2.34A47.53,47.53,0,0,1,98,186.55c.68,0,1.36,0,2,0l.71,0c.51,0,1,.07,1.51.12s1.23.13,1.84.21c.35,0,.71.09,1.06.15l1.2.19,1,.2,1.17.25,1,.25,1.14.31,1,.29c.38.11.76.24,1.13.36l1,.33,1.14.43.93.37c.42.17.82.35,1.23.53l.79.35c.67.31,1.33.63,2,1l.12.06,1.67.92.26.15,1.53.94.33.22c.49.31,1,.63,1.43,1l.38.28c.45.32.9.65,1.34,1l.4.31c.43.34.86.68,1.28,1l.4.34c.41.36.82.72,1.21,1.09l.38.36,1.18,1.15.33.35c.39.4.78.81,1.16,1.23.07.08.13.16.2.23.7.8,1.38,1.61,2,2.45s1.12,1.48,1.64,2.25l.08.11.77,1.18.43.68c.22.36.43.72.64,1.08l.48.85c.19.34.37.69.55,1s.33.62.48.94.33.68.49,1l.45,1c.15.34.29.68.43,1l.42,1.07.37,1,.38,1.11c.11.34.21.68.32,1l.33,1.17c.09.34.18.67.26,1s.2.81.29,1.21l.21,1c.08.42.16.85.23,1.28s.11.65.16,1,.12.91.18,1.37c0,.31.07.62.11.93.05.52.08,1,.11,1.55,0,.26,0,.52.06.78,0,.79.06,1.57.06,2.37A47.53,47.53,0,0,1,98,281.62Z"/><path class="cls-1" d="M9.14,273a8,8,0,0,0-5.4-7.58,96.37,96.37,0,0,0-2,10.67c-.13.94-.33,2.63-.45,4.93A8,8,0,0,0,9.14,273Z"/></svg>
