<svg id="Layer_1" data-name="Layer 1" xmlns="http://www.w3.org/2000/svg" width="640" height="870" viewBox="0 0 640 870"><defs><style>.cls-1{fill:#fff;}.cls-2{fill:#f0d582;}.cls-3{fill:#fceee4;}.cls-4{fill:#cce9f7;}.cls-5{fill:#9dcbef;}.cls-6{fill:#ffb4c0;}.cls-7{fill:#593f1f;}</style></defs><title>assets</title><path class="cls-1" d="M284.88,434.79A27.16,27.16,0,0,1,287,448.44c1.6.14,3.23.22,4.87.22a54.77,54.77,0,0,0,50.32-33.14,7,7,0,0,1,1-8.92,292.47,292.47,0,0,1-69.45,16.67C278.71,426.18,282.65,430,284.88,434.79Z"/><path class="cls-1" d="M355.11,411.67a5.68,5.68,0,0,1,0,.59,54.75,54.75,0,0,0,71.38-22c-.35-.49-.69-1-1-1.49a26.89,26.89,0,0,1-3.57-14.12,44.39,44.39,0,0,1,2.1-12.81q-8.53,6.66-17.81,12.81a306.9,306.9,0,0,1-45.31,24.76q-6.25,2.76-12.53,5.21A7,7,0,0,1,355.11,411.67Z"/><path class="cls-2" d="M557.74,127.18c-10.24-2.36-24-3.62-37.89-3.32a58.18,58.18,0,0,0,1.34-10.13C523.63,59.34,450,11.87,356.76,7.69,279.57,4.23,213.12,31.54,191.15,71.9c-46.58-5.47-102,35.51-131.76,101.19C29.29,239.5,35.46,309,71.31,339.91,59.5,350.47,51,362.78,48.66,378.48c-5.36,36.27,17.73,69.73,51.59,74.74,29.29,4.33,57-14.07,67.45-42.6a71,71,0,0,0,3.56-14c2.26-15.28,1.56-37.85-2.77-57.31C196.1,322,221.8,292.36,239,254.48A213.39,213.39,0,0,0,257.56,185c25.83,11,56.84,18.12,90.39,19.62,61.74,2.77,116.6-14.15,147.34-41.69,1.08,2.09,2.12,4.22,3.08,6.39,9.29,21,11.63,43.77,8,66.81a56.52,56.52,0,0,0,23.55,11.78c35.73,8.24,70.92-12.11,78.61-45.46S593.47,135.42,557.74,127.18Z"/><path class="cls-3" d="M498.37,169.35c-1-2.17-2-4.3-3.08-6.39-30.74,27.54-85.6,44.46-147.34,41.69-33.55-1.5-64.56-8.61-90.39-19.62A213.39,213.39,0,0,1,239,254.48C221.8,292.36,196.1,322,168.49,339.3c4.33,19.46,5,42,2.77,57.31a71,71,0,0,1-3.56,14,192.44,192.44,0,0,0,51.39,12.78c13.32-9.21,39-9.36,54.7-.13a292.47,292.47,0,0,0,69.45-16.67,7,7,0,0,1,4.85-2h.25q6.27-2.46,12.53-5.21a306.9,306.9,0,0,0,45.31-24.76q9.26-6.15,17.81-12.81c5.68-18.29,21.81-35.83,36.26-35.45.39,0,.78,0,1.17.07,24.31-28.14,40-59.47,44.92-90.34C510,213.12,507.66,190.34,498.37,169.35ZM253.44,349.19c-15.9,6.87-30.91,7.51-33.54,1.43-2.48-5.74,7-15.42,21.44-22.26l-.38-.46a51.51,51.51,0,0,1-6.43-11c-6.46-14.95-5.15-29.9,2.92-33.39s19.85,5.81,26.31,20.77a48.78,48.78,0,0,1,4,15.55c.05.6.08,1.2.09,1.79,4.94.13,8.47,1.49,9.62,4.15C280.09,331.84,269.33,342.33,253.44,349.19Zm94.65,17.07A16.36,16.36,0,0,1,332.82,344a18.24,18.24,0,0,0,30.53,0,16.19,16.19,0,0,1,1.12,5.92A16.38,16.38,0,0,1,348.09,366.26ZM426.49,267c-15.89,6.86-30.9,7.5-33.53,1.42-2.48-5.74,7-15.41,21.44-22.26-.13-.15-.26-.3-.38-.46a51.51,51.51,0,0,1-6.43-11c-6.46-15-5.15-29.9,2.92-33.39s19.85,5.81,26.31,20.77a49.12,49.12,0,0,1,4,15.55c.05.61.08,1.2.09,1.79,4.94.13,8.47,1.49,9.62,4.15C453.14,249.66,442.39,260.15,426.49,267Z"/><path class="cls-3" d="M417.89,757.61q-10,2.45-20.25,4.15c2.41,52.85,15.78,93.3,31.91,93.3,17.85,0,32.31-49.47,32.31-110.5,0-.76,0-1.51,0-2.27q-7,3.3-14.23,6.1A241.79,241.79,0,0,1,417.89,757.61Z"/><path class="cls-3" d="M321.67,766.11c2.11,54.39,16.27,96.44,33.44,96.44,17.48,0,31.85-43.6,33.54-99.43-8.64,1.2-17.34,2.07-26,2.6A400.07,400.07,0,0,1,321.67,766.11Z"/><path class="cls-4" d="M432.82,593.92a5.41,5.41,0,0,1-1.14,3,6.57,6.57,0,0,1-4.8,2.09,5.29,5.29,0,0,1-2.84.37,5.14,5.14,0,0,1-1.61-.59c-18.59-2.81-59.49-27.34-102.56-62.66-12.7-10.41-24.43-20.81-34.84-30.77,1.09,18.11-1,36.52-9.34,54.73C241.54,634.35,119.38,676,119.34,678.7c-.6,40.91,102,71.16,107.74,72.79,25.78,7.39,59.11,13.18,94.59,14.62a400.07,400.07,0,0,0,40.93-.39c8.71-.53,17.41-1.4,26-2.6,1.3-.18,2.61-.34,3.91-.54,1.7-.26,3.39-.54,5.08-.82q10.23-1.72,20.25-4.15a241.79,241.79,0,0,0,29.73-9.22q7.26-2.8,14.23-6.1c28.06-13.3,52.21-32.89,68.67-60.71,47.74-80.73,9.49-194.53-54.86-268.39A563.33,563.33,0,0,1,468.25,480C459.19,534,444.86,578.82,432.82,593.92Z"/><path class="cls-4" d="M379,417.76a54.43,54.43,0,0,1-23.91-5.5,7,7,0,0,1-12.86,3.26,54.77,54.77,0,0,1-50.32,33.14c-1.64,0-3.27-.08-4.87-.22a40.52,40.52,0,0,1-.76,5.15c18.66,11,41,26.78,63.87,45.56,26.32,21.58,48.53,43.14,63.29,60.69-.47-23,2.06-54,7.72-87.75,4.6-27.45,10.57-52.51,16.9-72.51a29.86,29.86,0,0,1-11.59-9.28A54.73,54.73,0,0,1,379,417.76Z"/><path class="cls-3" d="M431.68,596.87a5.41,5.41,0,0,0,1.14-3c-2.06,2.59-4.05,4.3-5.94,5A6.57,6.57,0,0,0,431.68,596.87Z"/><path class="cls-3" d="M422.43,598.74c-5.53-3.13-8.57-17.52-9-38.9-14.76-17.55-37-39.11-63.29-60.69-22.91-18.78-45.21-34.52-63.87-45.56-2.58,12.2-10.73,24.78-20.9,31.77,5.82,6.33,12.42,13,19.66,19.95,10.41,10,22.14,20.36,34.84,30.77C362.94,571.4,403.84,595.93,422.43,598.74Z"/><path class="cls-4" d="M286.27,453.59a40.52,40.52,0,0,0,.76-5.15,27.16,27.16,0,0,0-2.15-13.65c-2.23-4.78-6.17-8.61-11.09-11.52-15.66-9.23-41.38-9.08-54.7.13a21.15,21.15,0,0,0-6.14,6.31c-11.45,18.82,11.28,61.78,36.81,61.21,5.41-.12,10.74-2.21,15.61-5.56C275.54,478.37,283.69,465.79,286.27,453.59Z"/><path class="cls-3" d="M438.05,399.58c-6.33,20-12.3,45.06-16.9,72.51-5.66,33.76-8.19,64.78-7.72,87.75.43,21.38,3.47,35.77,9,38.9a5.14,5.14,0,0,0,1.61.59,5.29,5.29,0,0,0,2.84-.37c1.89-.74,3.88-2.45,5.94-5,12-15.1,26.37-59.9,35.43-113.94a563.33,563.33,0,0,0,7.41-66.79c.18-3.9.29-7.67.34-11.27C464.14,405.74,449.17,404.93,438.05,399.58Z"/><path class="cls-4" d="M424,361.88a44.39,44.39,0,0,0-2.1,12.81,26.89,26.89,0,0,0,3.57,14.12c.31.51.65,1,1,1.49a29.86,29.86,0,0,0,11.59,9.28c11.12,5.35,26.09,6.16,37.95,2.34,6.54-2.11,12.15-5.62,15.63-10.57,14.26-20.28-8.2-62.82-30.21-64.85-.39,0-.78-.06-1.17-.07C445.8,326.05,429.67,343.59,424,361.88Z"/><path class="cls-5" d="M342.22,415.52a7,7,0,0,0,12.86-3.26,5.68,5.68,0,0,0,0-.59,7,7,0,0,0-6.77-7h-.25a7,7,0,0,0-5.87,10.87Z"/><path class="cls-6" d="M267.84,321.61c.22,7.8-2.18,14-7,16.05-5.71,2.46-13.27-1.48-19.5-9.3-14.45,6.84-23.92,16.52-21.44,22.26,2.63,6.08,17.64,5.44,33.54-1.43s26.65-17.35,24-23.43C276.31,323.1,272.78,321.74,267.84,321.61Z"/><path class="cls-7" d="M260.84,337.66c4.82-2.08,7.22-8.25,7-16.05,0-.59,0-1.19-.09-1.79a48.78,48.78,0,0,0-4-15.55c-6.46-15-18.24-24.26-26.31-20.77s-9.38,18.44-2.92,33.39a51.51,51.51,0,0,0,6.43,11l.38.46C247.57,336.18,255.13,340.12,260.84,337.66Z"/><path class="cls-6" d="M440.9,239.43c.21,7.81-2.18,14-7,16-5.71,2.47-13.28-1.48-19.5-9.3C400,253,390.48,262.7,393,268.44c2.63,6.08,17.64,5.44,33.53-1.42s26.65-17.36,24-23.44C449.37,240.92,445.84,239.56,440.9,239.43Z"/><path class="cls-7" d="M433.9,255.48c4.82-2.08,7.21-8.24,7-16,0-.59,0-1.18-.09-1.79a49.12,49.12,0,0,0-4-15.55c-6.46-15-18.24-24.25-26.31-20.77s-9.38,18.44-2.92,33.39a51.51,51.51,0,0,0,6.43,11c.12.16.25.31.38.46C420.62,254,428.19,258,433.9,255.48Z"/><path class="cls-6" d="M348.09,352.21A18.24,18.24,0,0,1,332.82,344a16.38,16.38,0,1,0,31.65,5.92,16.19,16.19,0,0,0-1.12-5.92A18.22,18.22,0,0,1,348.09,352.21Z"/></svg>
