<svg id="Layer_1" data-name="Layer 1" xmlns="http://www.w3.org/2000/svg" width="180" height="80" viewBox="0 0 180 80"><defs><style>.cls-1{fill:#fff635;}</style></defs><title>assets</title><rect class="cls-1" x="0.51" y="1.57" width="178.99" height="76.85" rx="25.1"/><path d="M30.15,27.11a.45.45,0,0,1-.18.65c-.38.28-.56.74-.93,1s0,.24,0,.42a2.2,2.2,0,0,1-1.21.24c-.79-.05-1.63-.1-2.42-.1a8,8,0,0,0-1.82.1.9.9,0,0,0-.93.7,3.34,3.34,0,0,0-1.21-.28c.28.6.09,1.35.88,1.72.19.09.19.42.19.65a17.18,17.18,0,0,0,.23,3,41.86,41.86,0,0,1,.1,4.19c0,2.1-.1,4.15,0,6.25,0,.83.13,1.63.23,2.42a30.46,30.46,0,0,1,.14,4.05c0,.51-.09,1.07-.05,1.63C23.26,55,23,56.22,23,57.48a21.33,21.33,0,0,1-.69,2.38c0,.09,0,.14,0,.18a12.92,12.92,0,0,0-1.31.38c-.13.09-.32,0-.51-.1s-.65-.37-1-.56a.83.83,0,0,0-.79.05c-.65.37-1.58-.33-1.54-1.12.05-1.16-.09-2.37-.13-3.54A11.61,11.61,0,0,1,17.25,52a6.26,6.26,0,0,0-.05-2.79,4.5,4.5,0,0,1-.14-1.54A19.15,19.15,0,0,0,17,45.41c0-1.67,0-3.35,0-5a27,27,0,0,1,.23-5.4,10.61,10.61,0,0,0,.05-2.19,5.32,5.32,0,0,1,.19-1.72c.14-.28,0-.61-.05-.93a.63.63,0,0,0-.51-.42,12.83,12.83,0,0,0-2.7,0c-.93.14-1.87,0-2.8.09a.89.89,0,0,1-.79-.28.74.74,0,0,1,.42-.28c.28-.09.42-.19.32-.56s.14-.42.47-.51a12.14,12.14,0,0,1,2.61-.24c1.68-.09,3.26-.46,4.85-.69a31.75,31.75,0,0,1,6-.56A27.21,27.21,0,0,0,29,26.64h.51C29.87,26.64,30,26.83,30.15,27.11Zm-12,2.79c-.18.28-.18,1.31.14,1.35l.28.05c-.14-.37.05-1.16-.28-1.44C18.27,29.81,18.18,29.86,18.13,29.9Z"/><path d="M40,27.57a7.67,7.67,0,0,1,3.92.89,8,8,0,0,0,2.14,1.12A2.31,2.31,0,0,1,47.34,31a9.43,9.43,0,0,1,1,4.38c0,.52.23.93.23,1.45a6.13,6.13,0,0,1-2.28,4.79A18.6,18.6,0,0,1,44,43.09a1.9,1.9,0,0,1-.79.46c0-.42.51-.51.51-.93a3.23,3.23,0,0,0-1.4.93c-.18.19,0,.47.24.61.65.56,1.25,1.21,1.86,1.82a8.53,8.53,0,0,1,2,3.3c.75,2,1.54,3.91,2.43,5.78a3.57,3.57,0,0,1,.32,1,12.07,12.07,0,0,0,.79,2.1,1.43,1.43,0,0,1,.1,1.07c-.05.42-.14.65-.61.7,0,0-.14.14-.19.23-.18.28-.41.33-.65.1-.46-.42-.88-.65-1.44-.24a.47.47,0,0,1-.51,0,4.67,4.67,0,0,1-2-1.67A8.84,8.84,0,0,0,44,57.2c-1.49-3.07-2.79-6.19-4-9.36a8.77,8.77,0,0,0-.65-1.35c-.61.32-1,.74-.89,1.49v.37c-.37,1.72,0,3.45,0,5.22a29.11,29.11,0,0,1,0,4.94c-.1.42.09,1-.7.88-.14,0-.23.14-.23.28a3.64,3.64,0,0,0-.19.7A6.83,6.83,0,0,1,35.46,59a1.38,1.38,0,0,1-1.86.28,2.15,2.15,0,0,1-1.17-1.91c0-.75.19-1.45.14-2.19-.09-2.1-.09-4.24-.19-6.34a10,10,0,0,0-.14-1.21,29.06,29.06,0,0,1-.37-7.22c.14-2.47.14-4.89.24-7.36a31,31,0,0,0,.09-3.49,1.3,1.3,0,0,0-.09-.7c-.52,0-1,.32-1.5.28-.14-.24.28-.38.05-.56-.37-.37-.14-.56.23-.7a11.65,11.65,0,0,1,5.22-.61C37.42,27.48,38.72,27.48,40,27.57ZM38,43.13a1.78,1.78,0,0,0,.42-.23,38.53,38.53,0,0,0,4.38-4.75,9.62,9.62,0,0,0,1.36-4,1.19,1.19,0,0,0-.15-.6,2.16,2.16,0,0,1-.23-1.17.61.61,0,0,0-.42-.7,4.76,4.76,0,0,1-.65-.42,8.21,8.21,0,0,0-2.79-1.72,7.35,7.35,0,0,0-2-.14A136.65,136.65,0,0,1,38,43.13Z"/><path d="M65.59,28.55c-.46,1.26-.74,2.56-1.3,3.77a1.1,1.1,0,0,0-.09.38c0,1.91-1,3.54-1.54,5.31a30.05,30.05,0,0,1-1.35,4.05,4.49,4.49,0,0,0-.47,2.47c0,1.17.23,2.33.19,3.5,0,2.79,0,5.63-.05,8.47v.61A4.46,4.46,0,0,1,60.56,60c-.6-.37-.6-.37-1.16.09s-.51.47-1,.14a4.92,4.92,0,0,1-.6-.47c-.24-.18-.37-.46-.75-.32a.17.17,0,0,1-.14,0c-.23-.09-.23-.6-.65-.42s-.19.51-.37.75a.84.84,0,0,1-.19.14,1.6,1.6,0,0,1-.37-.8,33.74,33.74,0,0,1-.1-7.78,17.88,17.88,0,0,0-.13-4.51,5.78,5.78,0,0,0-1-3.12,5.48,5.48,0,0,1-.8-2.24c-.74-2.7-1.34-5.5-1.95-8.25A20.89,20.89,0,0,0,50,28.74c-.24-.51,0-.93.23-1.4a.23.23,0,0,1,.28-.09,4.78,4.78,0,0,1,4,2.23,20.93,20.93,0,0,0,1.21,1.77,2,2,0,0,0-.23-1.39c-.14-.28-.14-.28.18-.8a1.61,1.61,0,0,1,.75,1.12,1.79,1.79,0,0,0,.46,1.07,3.58,3.58,0,0,1,.56,1.49c.38,1.77.93,3.54,1.35,5.31a25,25,0,0,0,1,2.61,105.77,105.77,0,0,1,5.17-13.74A1.17,1.17,0,0,1,65.59,28.55Zm-10.52-.09c.09.18.13.6-.19.37a.45.45,0,0,1-.33-.42c0-.14.05-.23.19-.23S55.07,28.27,55.07,28.46Z"/><path d="M85.8,26.6c.28-.1.7,1.16.8,1.58,0-1.17.18-2,.84-.24a24.71,24.71,0,0,1,1,2.57,30,30,0,0,1,.79,3c.1.79.19.56.57,1.25.65,1.17.6,2.52.93,3.78a56.21,56.21,0,0,0,2.09,6.1A26.18,26.18,0,0,1,94,49.42c.09.42,0,.89.09,1.35a41.75,41.75,0,0,0,1.72,5.13,6.93,6.93,0,0,1,.7,3.31c0,.55-.09,1.16-.88,1.25a.41.41,0,0,1-.42.51c-.23-.23-.56-.27-.79-.74-.1-.19-.42-.09-.47-.33-.18-.51-.84-.65-.93-.23-.19.84-1.07.33-1.63.47a.47.47,0,0,1-.7-.38c-.51-1.53-1-3-1.4-4.51-.32-1.26-1-2.43-1.21-3.73a.73.73,0,0,0-.84-.61c-1.81.1-3.21,0-5.08.19-.41,0-1.21-.14-1.49.18s-.23.8-.37,1.22c-.18.88-.46,1.67-.56,2.56l-.37,3.21a9.82,9.82,0,0,1-.19,1.17c-.09.56-.32.7-1,.51-.19-.05-.52-1.07-.7-.32-.09.41-.47-.75-.42-1.22a37.68,37.68,0,0,1,1.12-6.1l.14-.7c.09-.65.09-.6-.51-.79-.33-.09-.7-.14-.89-.51.19-.42.61-.33.93-.37,1.07-.29.93,0,1.07-1.12.24-1.59.84-3.59,1-5.17a50.22,50.22,0,0,1,1.21-6.43,31.5,31.5,0,0,0,.79-4.1c.23-1.4.47-2.8.65-4.15a1.9,1.9,0,0,0,0-1c-.09-.32-.14-.79.32-1s.93-.75,1.49-.42A2.39,2.39,0,0,0,85.8,26.6Zm-2.32,7.82a8.84,8.84,0,0,1-.42,2.89c-.33,1.16-.19,2.42-.61,3.59a17.59,17.59,0,0,0-.74,3.59c-.19,1.58-.47,3.16-.75,4.75,1.54-.1,3.21-.14,4.7-.24a2.75,2.75,0,0,0,.84-.18c.7-.14.75-.24.52-.89-.42-1.07-.56-2.23-.89-3.35-.28-.93-.33-2-.65-2.94A16.24,16.24,0,0,1,84.69,38a16.48,16.48,0,0,0-.94-4.1C83.52,34.1,83.43,34.28,83.48,34.42Zm7.31,7.41a4.7,4.7,0,0,0-.56-2.15C89.86,40.06,90.7,41.55,90.79,41.83Z"/><path d="M107.65,27.06a5.56,5.56,0,0,0,2.19-.14,3.41,3.41,0,0,1,1.35-.05,4,4,0,0,1,1.81.7,2.66,2.66,0,0,1,1.26,2.15,9.86,9.86,0,0,1-.14,2.65L114,33.81c0,.24,0,.47-.18.57-.61.37-.47,1-.75,1.58-.28,0-.56-.14-.84,0a1.24,1.24,0,0,1-1.67-.89,2.55,2.55,0,0,1-.14-1c-.1-1.07-.14-2.15-.19-3.26,0-.56-.23-1.12-.33-1.68a.79.79,0,0,0-.6-.7,2.74,2.74,0,0,0-3.45,1.35,17.79,17.79,0,0,0-1.3,2.94,13,13,0,0,0-.65,4.84c.13,1.21,0,2.42,0,3.59,0,1,.09,1.91,0,2.89-.14,2.89.65,5.77.65,8.71,0,.14,0,.28,0,.42-.47,1.44.23,2.61.83,3.82.38.75.56.79,1.31.42a20.12,20.12,0,0,1,3.26-1.87.56.56,0,0,0,.42-.6c-.09-2.8.23-5.64.18-8.43a.62.62,0,0,0,0-.24,7.16,7.16,0,0,0-2.94-.55c-.46,0-.51-.47-.65-.75a.45.45,0,0,1,.47-.28,34,34,0,0,0,3.68-.6h.18c.52-.66.7-.19.94.27,0,0,.18,0,.27.1.29-.42.1-.94.42-1.35.42,0,.75.37,1.22.37.28,0,.28.28.28.51a26.66,26.66,0,0,1,.28,2.66c0,1,0,1.91.09,2.89.19,1.95,0,4,.14,5.91.09,1,0,2,.14,3.08A2.61,2.61,0,0,1,113.89,61c-.14.1-.14.33-.37.38-.89-.93-1.45-2.14-2.38-3-.37-.33-.32-.89-.51-1.3-.33,0-.47.23-.61.41a4.28,4.28,0,0,1-2.28,1.82c-.46.65-1,.56-1.58.79a4.46,4.46,0,0,1-2.24.14c-.65,0-1.26-.14-1.91-.23a2.92,2.92,0,0,1-2.56-1.77,25.38,25.38,0,0,0-.79-2.61A6.12,6.12,0,0,1,98.28,53c0-1.81-.32-3.26-.42-5a31.69,31.69,0,0,1,.28-3.54c0-.51.1-1,0-1.49-.14-1.16.23-2.33.14-3.49-.14-1.64.47-3.13.79-4.71a2.81,2.81,0,0,0,.23-.65,8.8,8.8,0,0,1,2.85-5,14.81,14.81,0,0,1,1.53-1.25.81.81,0,0,1,.24-.1c1.35,0,2.33-1,3.45-1.44a11.43,11.43,0,0,1,1.91-.14C109,26.83,108.21,26.6,107.65,27.06Zm-8.39,11c-.09,1.12-.18,2.28-.23,3.45,0,.14,0,.28.32.28a21.24,21.24,0,0,1,.42-4.15s-.09-.14-.13-.23A.65.65,0,0,0,99.26,38.1Z"/><path d="M126.41,26.6c.28-.1.7,1.16.8,1.58,0-1.17.18-2,.84-.24a24.71,24.71,0,0,1,1,2.57,30,30,0,0,1,.79,3c.1.79.19.56.57,1.25.65,1.17.6,2.52.93,3.78a56.21,56.21,0,0,0,2.09,6.1,26.18,26.18,0,0,1,1.17,4.75c.09.42,0,.89.09,1.35a41.75,41.75,0,0,0,1.72,5.13,6.93,6.93,0,0,1,.7,3.31c0,.55-.09,1.16-.88,1.25a.41.41,0,0,1-.42.51c-.23-.23-.56-.27-.79-.74-.1-.19-.42-.09-.47-.33-.18-.51-.84-.65-.93-.23-.19.84-1.07.33-1.63.47a.47.47,0,0,1-.7-.38c-.51-1.53-1-3-1.4-4.51-.32-1.26-1-2.43-1.21-3.73a.73.73,0,0,0-.84-.61c-1.81.1-3.21,0-5.08.19-.41,0-1.21-.14-1.49.18s-.23.8-.37,1.22c-.18.88-.46,1.67-.56,2.56l-.37,3.21a9.82,9.82,0,0,1-.19,1.17c-.09.56-.32.7-1,.51-.19-.05-.52-1.07-.7-.32-.09.41-.47-.75-.42-1.22a37.68,37.68,0,0,1,1.12-6.1l.14-.7c.09-.65.09-.6-.51-.79-.33-.09-.7-.14-.89-.51.19-.42.61-.33.93-.37,1.07-.29.93,0,1.07-1.12.24-1.59.84-3.59,1-5.17a50.22,50.22,0,0,1,1.21-6.43,31.5,31.5,0,0,0,.79-4.1c.23-1.4.47-2.8.65-4.15a1.9,1.9,0,0,0,0-1c-.09-.32-.14-.79.32-1s.93-.75,1.49-.42A2.39,2.39,0,0,0,126.41,26.6Zm-2.32,7.82a8.84,8.84,0,0,1-.42,2.89c-.33,1.16-.19,2.42-.61,3.59a17.59,17.59,0,0,0-.74,3.59c-.19,1.58-.47,3.16-.75,4.75,1.54-.1,3.21-.14,4.7-.24a2.75,2.75,0,0,0,.84-.18c.7-.14.75-.24.52-.89-.42-1.07-.56-2.23-.89-3.35-.28-.93-.33-2-.65-2.94A16.24,16.24,0,0,1,125.3,38a16.48,16.48,0,0,0-.94-4.1C124.13,34.1,124,34.28,124.09,34.42Zm7.31,7.41a4.7,4.7,0,0,0-.56-2.15C130.47,40.06,131.31,41.55,131.4,41.83Z"/><path d="M144.58,28.23a5.07,5.07,0,0,1,1.26,3.07c.09,2.05.09,4.57.28,6.75.14,1.59.14,3.17.32,4.76a9.65,9.65,0,0,0,.28,1.72,10.15,10.15,0,0,1,0,4A55,55,0,0,0,146.4,54,5.65,5.65,0,0,1,146,56.5a1.29,1.29,0,0,0,0,.93c.05.29.23.56-.14.8-.14.09-.05.28,0,.37.23.28.09.51,0,.79-.37.61-.37.61-.93.24-.37-.24-.79-.29-1,0-1,1.58-1.4.13-2.56.27a.59.59,0,0,1-.61-.46,4.77,4.77,0,0,1-.32-1.63c0-1.26,0-2.52,0-3.73s-.28-2.61-.37-3.91c-.28-3.17-.09-6.29-.28-9.41-.09-1.63.05-3.31,0-4.89-.09-1.91.05-4.34.09-6.25.05-.7.05-.7.8-.7a1,1,0,0,1,.32,0c.14-.33-.09-.61,0-.94s.47-.09.65-.32.28-.19.38-.14C143,27.62,143.93,27.53,144.58,28.23Zm.37,15V44.3c0,.19.28.79.33,1l.09,1a5.46,5.46,0,0,0,.19-.56,4.2,4.2,0,0,0,0-1.3c0-.29-.14-.94-.18-1.26l-.24-2A10,10,0,0,0,145,43.23Z"/><path d="M157.81,27.48c.14.65.69,1,.93,1.68.6,1.81.7,3.72,1.39,5.54,1,2.8,1.77,5.73,2.8,8.53.37,1.07.6,2.18.93,3.26.51,1.81,1.07,3.63,1.58,5.45.05.09.1.23.24.23a23.16,23.16,0,0,0-.24-6.94c-.23.33,0,.65-.09,1a7,7,0,0,1,0,1c-.33-.09-.28-.32-.28-.51,0-1.16-.05-2.38-.14-3.59,0-.7.14-1.44.14-2.19,0-.93-.1-1.81-.14-2.7a18.6,18.6,0,0,1-.1-2.79c.1-2.24.14-4.43.05-6.67a1.71,1.71,0,0,1,.47-1c.09-.14.32-.14.46-.14a2.14,2.14,0,0,1,1.35,1.21,41.82,41.82,0,0,1,.33,4.24c-.1,1.44,0,2.89,0,4.38,0,1.11.14,2.23,0,3.4-.1,2.05.05,4.1,0,6.19,0,1.26.32,2.56.42,3.87.09,1.63.46,3.21.56,4.84,0,.47.14,1.08-.14,1.26-.61.42-.24.84-.24,1.26,0,.23,0,.42,0,.65a1.33,1.33,0,0,1-.84,1.35.34.34,0,0,1-.51-.18c-.28-.38-.61-.33-1-.38-.88-.13-1.77.14-2.56-.32-.56.28-1-.23-1.49-.28s-.84-.42-1-.93c-.33-1.17-.7-2.29-1-3.45-.42-1.82-1.07-3.5-1.49-5.31-.51-2.47-1.35-4.85-2.1-7.27a49.91,49.91,0,0,1-1.53-5.73c-.19-1.16-.52-2.33-.75-3.49-.32.09-.23.28-.23.37-.09,3.87-.19,7.69-.19,11.55,0,2.75.28,5.5.33,8.29,0,1.54.32,3.08.42,4.62a26.33,26.33,0,0,1,0,2.7c-.65-.28-1-.79-1.67-.93a.55.55,0,0,1-.33-.65,2.54,2.54,0,0,0-.33-1.17,1.9,1.9,0,0,1-.23-1c-.18-2.19-.18-4.38-.28-6.62a9.13,9.13,0,0,0-.18-1.91,1.74,1.74,0,0,1,0-.51c.18-2.66-.14-5.36-.1-8,.05-3,.05-6,.05-9,0-.61-.05-1.26-.09-1.91,0-.38,0-.56.51-.7a3,3,0,0,1,1.91-.05,1,1,0,0,0,.74-.14,10,10,0,0,1,3.27-.51C157.62,27.34,157.81,27.39,157.81,27.48Zm8.38,31c-.18-.37-.23-.79-.79-.74C165.35,58.55,165.35,58.55,166.19,58.46Z"/></svg>
