<svg id="Layer_1" data-name="Layer 1" xmlns="http://www.w3.org/2000/svg" width="260" height="210" viewBox="0 0 260 210"><defs><style>.cls-1{fill:#259400;}.cls-2{fill:#f6f2ea;}.cls-3{fill:#c32c00;}.cls-4{fill:#cce9f7;}.cls-5{fill:#50bf00;}</style></defs><title>assets</title><path class="cls-1" d="M16.35,171a10.56,10.56,0,0,1,18.88-3.7,14.38,14.38,0,0,1,18.38-5.76c-.39-16.51-1.3-30.74-2.57-43a19.68,19.68,0,0,0-24,14.53A31.1,31.1,0,0,0,7.14,177.23,16.66,16.66,0,0,1,16.35,171Z"/><path class="cls-1" d="M256.22,166a16.92,16.92,0,0,0-23.13-15.73,18.62,18.62,0,0,0-34.66-9.15,13.68,13.68,0,0,0-11.15-5.74,13.53,13.53,0,0,0-4.95.93c1.51,9.48,3.48,19.5,6,30.1a10.56,10.56,0,0,1,7.43,4.36,14.37,14.37,0,0,1,26.74,7.06,13.06,13.06,0,0,1,15.75,5.05l1.08,0A16.91,16.91,0,0,0,256.22,166Z"/><path class="cls-2" d="M58.51,197.35l1,0c-.2-.14-.41-.28-.6-.44Z"/><path class="cls-2" d="M176.86,174.42a10.56,10.56,0,0,1,10.28-8.12,11.17,11.17,0,0,1,1.17.06c-2.5-10.6-4.47-20.62-6-30.1A325.28,325.28,0,0,1,178,81.2c0-.33,0-.65,0-1,.09-6.22.38-12.06.83-17.52h0c.12-.75.24-1.51.37-2.31,3.35-20.76,5.06-32.56-1.61-41.47-.32-.55-.65-1.09-1-1.63-14.13-21.18-52-15.58-116.88-6-9.07,1.34-22.06,3.53-27.4,13.09C26,35.76,34,51.28,36.37,56.24,42.05,68.07,47.76,86.86,51,118.54c1.27,12.29,2.18,26.52,2.57,43A14.37,14.37,0,0,1,62,174.39a13,13,0,0,1,12.66,22.55l35.64-.92-1.92-11a11.16,11.16,0,0,1,9.06-12.91l20.64-3.62A11.16,11.16,0,0,1,151,177.59l3,17.31,10.85-.28a16.72,16.72,0,0,1,12-20.2ZM148.67,46.35a12.85,12.85,0,0,1,14.88,10.44l.64,3.64a12.85,12.85,0,0,1-10.44,14.88l-24.14,4.23a12.85,12.85,0,0,1-14.88-10.43l-.64-3.65a12.86,12.86,0,0,1,10.44-14.88ZM89.18,28.57c3-2.9,8.95,1.06,11.23-1.66s-2.44-7.5,0-11.23c1.73-2.65,6.34-3.89,8.59-2.31,3.64,2.56-.46,10.55,3.3,13.54s10-2.95,13.88,0c3.29,2.51,3.19,10.18,0,12.56-3.39,2.52-9.52-1.44-10.91.66-1.06,1.61,2.35,4.24,1.33,6.61-1.18,2.7-7.67,3.93-10.91,1.32s-1-6.88-4-8.92c-3.44-2.41-8.16,2.33-11.56,0C87.27,37.15,86.71,31,89.18,28.57ZM55.41,79.37l-.64-3.64A12.85,12.85,0,0,1,65.21,60.85l24.14-4.24a12.86,12.86,0,0,1,14.88,10.44l.64,3.64A12.85,12.85,0,0,1,94.43,85.57L70.29,89.81A12.85,12.85,0,0,1,55.41,79.37ZM63.2,115l-.64-3.64A12.85,12.85,0,0,1,73,96.5l24.14-4.23A12.85,12.85,0,0,1,112,102.71l.63,3.64a12.85,12.85,0,0,1-10.43,14.88l-24.14,4.23A12.84,12.84,0,0,1,63.2,115Zm49.59,41.55-24.14,4.24a12.85,12.85,0,0,1-14.88-10.44l-.64-3.64a12.85,12.85,0,0,1,10.44-14.88l24.14-4.23a12.85,12.85,0,0,1,14.88,10.43l.64,3.64A12.85,12.85,0,0,1,112.79,156.57Zm7.89-54.1L120,98.83A12.85,12.85,0,0,1,130.48,84l24.14-4.24A12.86,12.86,0,0,1,169.5,90.15l.64,3.64a12.85,12.85,0,0,1-10.44,14.88l-24.14,4.24A12.86,12.86,0,0,1,120.68,102.47Zm20.49,45.46a12.86,12.86,0,0,1-14.88-10.44l-.63-3.64A12.84,12.84,0,0,1,136.09,119l24.14-4.24a12.85,12.85,0,0,1,14.88,10.44l.64,3.64a12.85,12.85,0,0,1-10.44,14.88Z"/><path class="cls-3" d="M90.17,39.14c3.4,2.33,8.12-2.41,11.56,0,2.92,2,.84,6.39,4,8.92s9.73,1.38,10.91-1.32c1-2.37-2.39-5-1.33-6.61,1.39-2.1,7.52,1.86,10.91-.66,3.19-2.38,3.29-10,0-12.56-3.88-2.95-10.2,2.93-13.88,0s.34-11-3.3-13.54c-2.25-1.58-6.86-.34-8.59,2.31-2.44,3.73,2.2,8.61,0,11.23s-8.25-1.24-11.23,1.66C86.71,31,87.27,37.15,90.17,39.14Z"/><rect class="cls-4" x="54.71" y="58.51" width="50.21" height="29.4" rx="12.85" transform="translate(-11.45 14.89) rotate(-9.95)"/><rect class="cls-4" x="114.03" y="48.25" width="50.21" height="29.4" rx="12.85" transform="translate(-8.78 24.98) rotate(-9.95)"/><rect class="cls-4" x="62.5" y="94.16" width="50.21" height="29.4" rx="12.85" transform="translate(-17.49 16.78) rotate(-9.95)"/><rect class="cls-4" x="119.98" y="81.61" width="50.21" height="29.4" rx="12.85" transform="translate(-14.46 26.52) rotate(-9.95)"/><rect class="cls-4" x="73.07" y="129.51" width="50.21" height="29.4" rx="12.85" transform="translate(-23.44 19.13) rotate(-9.95)"/><rect class="cls-4" x="125.6" y="116.63" width="50.21" height="29.4" rx="12.85" transform="translate(-20.42 28.01) rotate(-9.95)"/><path class="cls-4" d="M138.05,168.53l-20.64,3.62a11.16,11.16,0,0,0-9.06,12.91l1.92,11L154,194.9l-3-17.31A11.16,11.16,0,0,0,138.05,168.53Z"/><path class="cls-5" d="M79.82,186.52A13,13,0,0,0,62,174.39a14.37,14.37,0,0,0-26.74-7.06A10.56,10.56,0,0,0,16.35,171a16.68,16.68,0,1,0,16.56,27.32,16.67,16.67,0,0,0,25.6-1l.35-.46c.19.16.4.3.6.44a13,13,0,0,0,20.36-10.81Z"/><path class="cls-5" d="M227.28,176.87a13,13,0,0,0-4.8.91,14.37,14.37,0,0,0-26.74-7.06,10.56,10.56,0,0,0-7.43-4.36,11.17,11.17,0,0,0-1.17-.06,10.56,10.56,0,0,0-10.28,8.12,16.68,16.68,0,1,0,16.56,27.33,16.67,16.67,0,0,0,25.94-1.46,13,13,0,1,0,7.92-23.42Z"/></svg>
