<svg id="Layer_1" data-name="Layer 1" xmlns="http://www.w3.org/2000/svg" width="600.46" height="335" viewBox="0 0 600.46 335"><defs><style>.cls-1{fill:none;}.cls-2{fill:#ffb4c0;}.cls-3{fill:#fea958;}.cls-4{fill:#f3c66e;}.cls-5{fill:#f6f2ea;}.cls-6{fill:#644e3b;}</style></defs><title>assets</title><path class="cls-1" d="M26.29,197.35l0-.06c.16.15.32.3.49.44.36.35.72.69,1.07,1A85.94,85.94,0,0,1,23.79,187c0,.4.06.8.1,1.21A31.81,31.81,0,0,0,26.29,197.35Z"/><path class="cls-2" d="M26.32,197.29l0,.06a35.38,35.38,0,0,0,4.65,7.83c-1.1-2.12-2.13-4.27-3.06-6.44-.35-.32-.71-.66-1.07-1C26.64,197.59,26.48,197.44,26.32,197.29Z"/><path class="cls-2" d="M34.66,216.75l-.23.3a43.11,43.11,0,0,1-4.17-3.61l-.49-.43c-.61-.54-1.21-1.09-1.79-1.66l.14-.14a44,44,0,0,1-4.91-6.65c-3,9-2.31,16.95,2.56,20.76,4.35,3.41,11.13,2.76,18.25-1-1.28-1.45-2.51-2.95-3.7-4.48A42.36,42.36,0,0,1,34.66,216.75Z"/><path class="cls-3" d="M531.57,255.69c17.4,22.77,37.61,35.76,46.72,29.41,9.82-6.84,3-33.53-15.15-59.62-.27-.39-.53-.77-.8-1.14C555.2,235.56,544.77,246.1,531.57,255.69Z"/><path class="cls-3" d="M130.91,270.4c-9,22.72-9.82,42.42-1,47s25-7.7,38.64-28.66a312.9,312.9,0,0,1-37-18Z"/><path class="cls-3" d="M173.51,87.74a45.2,45.2,0,0,1,6.85-1.43c1-22.26,4.91-42.22,10.7-57.33C184.21,11.09,174.7,0,164.19,0c-20.9,0-37.84,43.83-37.84,97.89,0,3,.05,5.92.16,8.82,6.23-3.42,10.93-5.84,15.74-8A194.73,194.73,0,0,1,173.51,87.74Z"/><path class="cls-4" d="M119.39,263.46q-4.4-2.77-8.73-5.7Q114.86,260.67,119.39,263.46Z"/><path class="cls-4" d="M560.13,157.39c-5.35-18.65,22.36-28.94,21.39-50.45-.8-17.64-20-23.58-33.51-41.48.62,14.85-.54,32.55-10,45.75-2.52,3.53-4.85,7.07-7,10.58C485.63,89,407.91,67.45,319.66,67.45a518.31,518.31,0,0,0-65.28,4.07C249.93,30.26,235.3,0,217.93,0c-10.51,0-20,11.09-26.87,29-5.79,15.11-9.69,35.07-10.7,57.33.92-.07,1.22.09,1.38.34,2.44,3.71-29,23.07-55.94,53.19a221.67,221.67,0,0,0-19.39,25L96,239.64a326.1,326.1,0,0,0,38.58,25.89,303.09,303.09,0,0,0,56.35,25L189,296.26l-.26-.09C183,314.85,183.4,330,191,334c9.32,4.86,26.29-8.73,40.26-31.21l1.75.3a20.39,20.39,0,0,1,.28-2c9.16-48.26,189.16-85.57,237.18-21.39a65.71,65.71,0,0,1,5,7.76c17.62,23.61,38.45,37.25,47.75,30.78,8.73-6.09,4.31-27.9-9.58-51a191.8,191.8,0,0,0,18-11.51c13.2-9.59,23.63-20.13,30.77-31.35s10.95-23.1,10.95-35.42a60.56,60.56,0,0,0-2.83-18.19A24.09,24.09,0,0,1,560.13,157.39ZM191,134.68A10.69,10.69,0,1,1,181,123.41,10.69,10.69,0,0,1,191,134.68Z"/><path class="cls-5" d="M106.41,164.83a221.67,221.67,0,0,1,19.39-25c27-30.12,58.38-49.48,55.94-53.19-.16-.25-.46-.41-1.38-.34a45.2,45.2,0,0,0-6.85,1.43,194.73,194.73,0,0,0-31.26,11c-4.81,2.16-9.51,4.58-15.74,8-4.4,2.42-9.56,5.33-16.06,9A145,145,0,0,0,94,127.78l0,0a97.82,97.82,0,0,1,16.89,5.13Z"/><path class="cls-6" d="M28,211.35c.58.57,1.18,1.12,1.79,1.66l.49.43a43.11,43.11,0,0,0,4.17,3.61l.23-.3a42.36,42.36,0,0,0,5.66,3.08l.94.42a43,43,0,0,0,4.45,1.55,41.59,41.59,0,0,0,10.13,1.58,42.53,42.53,0,0,0,6.12-.25l-.69-6a35.77,35.77,0,0,1-17.69-2.46A35.1,35.1,0,0,1,34.33,209a40.23,40.23,0,0,1-3.39-3.81,35.38,35.38,0,0,1-4.65-7.83,31.81,31.81,0,0,1-2.4-9.16c0-.41-.07-.81-.1-1.21a32.67,32.67,0,0,1,0-3.83c9.09,2.8,18.51,3.67,23.67,1.88,15.1-5.22,9.36-38.6-10.72-42.22a24.37,24.37,0,0,0-4.61-.35l-1.62.06C17.67,143.34,1.43,151.84.09,162-1,170,7.53,176.76,17.9,181a37.4,37.4,0,0,0,0,7.78,38.15,38.15,0,0,0,5.32,15.74,44,44,0,0,0,4.91,6.65Z"/><path class="cls-6" d="M181,123.41A10.69,10.69,0,1,0,191,134.68,10.69,10.69,0,0,0,181,123.41Z"/><path class="cls-5" d="M190.9,290.52a303.09,303.09,0,0,1-56.35-25A326.1,326.1,0,0,1,96,239.64l10.44-74.81,4.45-31.9A97.82,97.82,0,0,0,94,127.8c-25.83-5.3-49.12,1.44-61.85,14.66a24.37,24.37,0,0,1,4.61.35c20.08,3.62,25.82,37,10.72,42.22-5.16,1.79-14.58.92-23.67-1.88a32.67,32.67,0,0,0,0,3.83,85.94,85.94,0,0,0,4.09,11.76c.93,2.17,2,4.32,3.06,6.44A40.23,40.23,0,0,0,34.33,209a35.1,35.1,0,0,0,9.25,5.69,35.77,35.77,0,0,0,17.69,2.46l.69,6a42.53,42.53,0,0,1-6.12.25,41.59,41.59,0,0,1-10.13-1.58,43,43,0,0,1-4.45-1.55l-.94-.42c1.19,1.53,2.42,3,3.7,4.48,9.33,10.61,20.78,18.63,32.79,21.34a45.45,45.45,0,0,0,17.58.39q8,6.12,16.27,11.72,4.34,2.92,8.73,5.7,5.72,3.6,11.52,6.94l.65.37a312.9,312.9,0,0,0,37,18q10,4.08,20.22,7.41l.26.09Z"/><path class="cls-5" d="M233.3,301.07a20.39,20.39,0,0,0-.28,2,506.78,506.78,0,0,0,86.64,7.28c58,0,111.51-9.33,154.24-25,.51.71,1,1.4,1.54,2.09a65.71,65.71,0,0,0-5-7.76C422.46,215.5,242.46,252.81,233.3,301.07Z"/><path class="cls-5" d="M549.71,37.29c-6-4.28-2.48,9.76-1.7,28.17,13.52,17.9,32.71,23.84,33.51,41.48,1,21.51-26.74,31.8-21.39,50.45a24.09,24.09,0,0,0,10.33,13.34c-.41-1.32-.87-2.63-1.37-3.94,10.07-6.21,19.67-14.36,26.69-24.21C616.85,113,560.56,45,549.71,37.29Z"/></svg>
