<svg id="Layer_1" data-name="Layer 1" xmlns="http://www.w3.org/2000/svg" width="440" height="440" viewBox="0 0 440 440"><defs><style>.cls-1{fill:#ff8349;}.cls-2{fill:#593f1f;}.cls-3{fill:#fea958;}</style></defs><title>assets</title><path class="cls-1" d="M127.69,171.89c4.35-5.21,8.91-10.33,13.36-14.88,1-7.86.4-13.74-2.58-15.71C129,135.07,98.87,170.14,83.39,192a139.16,139.16,0,0,1,41-19.26C125.5,172.47,126.59,172.17,127.69,171.89Z"/><path class="cls-1" d="M318.58,276.4c23,4.38,57.05-8.3,62.63-17.25,5.86-9.39-21.7-11.49-42.54-21.12-6.82,12.79-14.19,25.37-22.11,37.42Z"/><path class="cls-1" d="M56.24,383.4c8.76,8.8,30,1.75,47.41-15.75.6-.6,1.18-1.21,1.75-1.82a166.06,166.06,0,0,1-40.55-22C52.76,359.35,48.78,375.91,56.24,383.4Z"/><path class="cls-1" d="M241.89,230.6c12.63-4.92,11.48-38.41-2.58-74.8-2.06-5.35-4.29-10.46-6.63-15.28-15.19,9.17-29.84,16.8-43.15,21.56q1.8,5.68,4.06,11.53C207.64,210,229.27,235.52,241.89,230.6Z"/><path class="cls-1" d="M290.23,177.49c11.77-6.12,9-34.94-6.18-64.36-.88-1.72-1.79-3.41-2.72-5-13.26,9.42-26.76,18.73-40,27.08,0,.05,0,.1.07.14C256.61,164.73,278.46,183.61,290.23,177.49Z"/><path class="cls-1" d="M336.66,120.26c10.06-5.24,9.5-27-.34-51.63-11.73,8.16-24.49,17.47-37.73,27.05C312.11,114.55,327.46,125,336.66,120.26Z"/><path class="cls-1" d="M383.79,77.32a26,26,0,0,0,13-3.54,138.38,138.38,0,0,0,2.09-21.09c0-18.78-16.84-13.47-42.14,2.32C360.23,67.91,371,77.32,383.79,77.32Z"/><path class="cls-1" d="M151,234.47c0-.44-.06-.88-.1-1.32,0-.26-.06-.52-.09-.78s-.09-.78-.15-1.17-.09-.55-.14-.83-.12-.73-.19-1.09l-.18-.85c-.08-.35-.15-.69-.24-1s-.15-.57-.22-.86-.19-.66-.28-1l-.27-.86c-.11-.32-.21-.64-.32-1s-.21-.58-.32-.87-.23-.6-.35-.9l-.36-.87-.39-.85c-.13-.29-.27-.59-.41-.88l-.4-.79-.47-.89c-.13-.24-.27-.47-.41-.71s-.35-.62-.53-.92l-.37-.57c-.22-.34-.43-.68-.65-1l-.06-.09a40.23,40.23,0,0,0-3.11-4c-.06-.06-.11-.13-.17-.2l-1-1.05-.28-.29c-.32-.33-.66-.65-1-1l-.32-.31c-.34-.31-.68-.62-1-.92l-.34-.3c-.35-.3-.71-.59-1.07-.88l-.34-.26c-.38-.29-.75-.58-1.14-.85l-.32-.23c-.4-.28-.8-.56-1.2-.82l-.29-.19c-.43-.27-.86-.54-1.29-.79l-.22-.13c-.47-.27-.93-.53-1.41-.78l-.11-.06a39.76,39.76,0,0,0-15-4.4l-1.28-.1-.6,0c-.57,0-1.14,0-1.72,0a40.26,40.26,0,0,0-40.17,40.35c0,.66,0,1.33.05,2s.07,1.06.11,1.58l0,.34a39.13,39.13,0,0,0,.88,5.34c0,.08,0,.15,0,.22.12.5.25,1,.39,1.49,0,.09,0,.18.08.28.14.48.28,1,.44,1.44l.09.25c.16.49.33,1,.51,1.45a1.12,1.12,0,0,1,0,.13,40.84,40.84,0,0,0,3.76,7.4l.15.24c.26.39.52.76.78,1.14l.25.35.78,1.05.31.39.8,1,.33.38.85,1,.3.31A39.79,39.79,0,0,0,85,268l.21.19.88.71.55.43.84.61.64.47.83.55.71.46.82.5.77.45.81.44.85.44c.26.13.52.27.78.39s.68.31,1,.46l.65.3q.83.34,1.68.66l.59.2c.39.14.78.28,1.18.4l.72.22,1.08.31.77.19,1.08.25.78.16,1.11.2.78.12c.38.06.77.11,1.16.15l.75.08c.43,0,.86.08,1.29.1l.64.05c.65,0,1.3.05,2,.05a40.27,40.27,0,0,0,40.18-40.35c0-.67,0-1.34-.05-2C151,234.91,151,234.69,151,234.47Zm-40.86,25.2a19.66,19.66,0,0,1-18.14-27l-5,1.64-2.6-8,42.63-14.07,2.6,8-9.26,3.06a19.66,19.66,0,0,1-10.26,36.38Z"/><path class="cls-2" d="M120.39,223.29l9.26-3.06-2.6-8L84.42,226.33l2.6,8,5-1.64a19.56,19.56,0,1,0,28.4-9.36Z"/><path class="cls-2" d="M54.28,300,29.06,281.84c0,1.05.07,2.16.16,3.34l23.54,16.95Z"/><path class="cls-3" d="M383.79,77.32c-12.77,0-23.56-9.41-27-22.31-6.34,4-13.2,8.56-20.46,13.62,9.84,24.59,10.4,46.39.34,51.63-9.2,4.78-24.55-5.71-38.07-24.58-5.68,4.11-11.45,8.27-17.26,12.4.93,1.64,1.84,3.33,2.72,5,15.18,29.42,17.95,58.24,6.18,64.36s-33.62-12.76-48.8-42.19c0,0-.05-.09-.07-.14q-4.37,2.76-8.68,5.36c2.34,4.82,4.57,9.93,6.63,15.28,14.06,36.39,15.21,69.88,2.58,74.8s-34.25-20.6-48.3-57q-2.25-5.84-4.06-11.53A88.1,88.1,0,0,1,168,167.23c3-12.81,3.49-23.23-.69-26-4.86-3.21-15.2,4.52-26.21,15.76-4.45,4.55-9,9.67-13.36,14.88-1.1.28-2.19.58-3.27.88a139.42,139.42,0,0,0-67.35,42.77c-13,15.07-21.92,32-25.86,48.18A6.81,6.81,0,0,1,29.14,277c-.07,1.38-.11,3-.08,4.88L54.28,300l-1.52,2.13L29.22,285.18A67.41,67.41,0,0,0,31.61,299c5,17.75,17.33,32.78,33.24,44.83a166.06,166.06,0,0,0,40.55,22l1.71.65c-12,15.48-15.86,31.91-8.44,39.36,8.77,8.8,30,1.75,47.41-15.74a85.08,85.08,0,0,0,10.24-12.39c2.39.19,4.74.32,7,.38,49.42,1.37,91.59-26.31,126-66.32,21.74,10.87,65.11-4.18,71.47-14.37,5.84-9.35-21.44-11.47-42.25-21l-2-.95c7.92-12.05,15.29-24.63,22.11-37.42,32.28-60.64,52-126.29,58.16-164.25A26,26,0,0,1,383.79,77.32ZM110.91,277.49c-.65,0-1.3,0-2-.05l-.64-.05c-.43,0-.86-.05-1.29-.1l-.75-.08c-.39,0-.78-.09-1.16-.15l-.78-.12-1.11-.2-.78-.16-1.08-.25-.77-.19-1.08-.31-.72-.22c-.4-.12-.79-.26-1.18-.4L97,275q-.86-.31-1.68-.66l-.65-.3c-.34-.15-.69-.3-1-.46s-.52-.26-.78-.39l-.85-.44-.81-.44-.77-.45-.82-.5-.71-.46-.83-.55-.64-.47-.84-.61-.55-.43-.88-.71L85,268a39.79,39.79,0,0,1-3.26-3.1l-.3-.31-.85-1-.33-.38-.8-1-.31-.39-.78-1.05-.25-.35c-.26-.38-.52-.75-.78-1.14l-.15-.24a40.84,40.84,0,0,1-3.76-7.4,1.12,1.12,0,0,0,0-.13c-.18-.47-.35-1-.51-1.45l-.09-.25c-.16-.48-.3-1-.44-1.44,0-.1-.06-.19-.08-.28-.14-.49-.27-1-.39-1.49,0-.07,0-.14,0-.22a39.13,39.13,0,0,1-.88-5.34l0-.34c0-.52-.09-1-.11-1.58s-.05-1.32-.05-2a40.26,40.26,0,0,1,40.17-40.35c.58,0,1.15,0,1.72,0l.6,0,1.28.1a39.76,39.76,0,0,1,15,4.4l.11.06c.48.25.94.51,1.41.78l.22.13c.43.25.86.52,1.29.79l.29.19c.4.26.8.54,1.2.82l.32.23c.39.27.76.56,1.14.85l.34.26c.36.29.72.58,1.07.88l.34.3c.35.3.69.61,1,.92l.32.31c.33.32.67.64,1,1l.28.29,1,1.05c.06.07.11.14.17.2a40.23,40.23,0,0,1,3.11,4l.06.09c.22.33.43.67.65,1l.37.57c.18.3.36.61.53.92s.28.47.41.71l.47.89.4.79c.14.29.28.59.41.88l.39.85.36.87c.12.3.24.6.35.9s.22.58.32.87.21.63.32,1l.27.86c.09.33.19.66.28,1s.15.57.22.86.16.69.24,1l.18.85c.07.36.13.72.19,1.09s.1.55.14.83.1.78.15,1.17.07.52.09.78c0,.44.07.88.1,1.32,0,.22,0,.44,0,.66,0,.67.05,1.34.05,2A40.27,40.27,0,0,1,110.91,277.49Z"/><path class="cls-2" d="M35.78,270.15a6.8,6.8,0,0,0-4.57-6.43,82.9,82.9,0,0,0-1.69,9c-.1.8-.27,2.24-.38,4.19A6.8,6.8,0,0,0,35.78,270.15Z"/></svg>
