<svg id="Layer_1" data-name="Layer 1" xmlns="http://www.w3.org/2000/svg" width="880" height="930" viewBox="0 0 880 930"><defs><style>.cls-1{fill:#f3c66e;}.cls-2{fill:#f1de9c;}.cls-3{fill:#644e3b;}.cls-4{fill:#ffb4c0;}.cls-5{fill:#ff8ba1;}</style></defs><title>assets</title><path class="cls-1" d="M795.57,279.46A131.37,131.37,0,0,0,814,234.77C839.25,108.12,640.59-11.82,623,2.91c-10.32,8.64,47.94,58.38,59,155.65a271.83,271.83,0,0,1,.65,55.1C722.12,221.68,764.3,240.13,795.57,279.46Z"/><path class="cls-1" d="M90.41,823.34c-10.1,5.46-29.65-2.29-42-16.34-11.13,25.45-12.91,45.34-3.2,56.49,25.29,29,120.22-11,223.69-90.82-75.23-1.51-125.87-1.58-159.16-13C89.85,788.44,104.41,815.78,90.41,823.34Z"/><path class="cls-2" d="M855.06,451.4a212.88,212.88,0,0,0-13.91-24.65c-.12-43.93-8.87-86.94-29.47-123.37a183.18,183.18,0,0,0-16.11-23.92c-31.27-39.33-73.45-57.78-112.9-65.8-51-10.37-97.41-3.34-109.77-1.46C452.09,230.54,338,333,278.58,438.53q-17.38.35-33.07,1c-82.85,3.46-130.26,12.35-158,43.67,55.93,4.16,86.87,79.9,74.6,106.5C152.76,610,112.63,614.4,75,607.59c-12.43,26.25-13.16,56.13-.94,81.28a82.47,82.47,0,0,0,7.67,12.7A84.19,84.19,0,0,0,97,717.45q2.88,2.31,5.83,4.32a104.73,104.73,0,0,0,19.41,10.35,126.22,126.22,0,0,0,33.19,8.48c28.07,3,51.14-5.56,65.55-13.32l5.19,9.65A125.49,125.49,0,0,1,167,752.19a119.7,119.7,0,0,1-12.78-.69,138.35,138.35,0,0,1-30.41-7.06c-4,3.67-8.79,7.87-13.46,14.39-.21.3-.39.59-.59.88,33.29,11.38,83.93,11.45,159.16,13,17,.35,35.21.76,54.78,1.4,28.85.94,54.41,2.16,77.14,3.5-54.58,60.42-81.11,116.6-61.61,140,26.25,31.48,126-8.41,222.73-89.1,37.84-31.56,69.62-64.68,92.72-95.2,49.5-19.65,93.61-51.69,125.35-98.52.47-.69.93-1.4,1.4-2.11,25.55,53.38,32.93,63.45,42.8,62.62C859,692.35,905.33,556.59,855.06,451.4Zm-510,118.33A16.94,16.94,0,1,1,362,552.79,16.93,16.93,0,0,1,345.07,569.73Zm95.09,106.61c-20.07,3-44.73-3-60.2-19.45C350,625,356,555.17,409.33,493.5l117.75,39.86C526.91,612.21,486.4,669.43,440.16,676.34Z"/><path class="cls-2" d="M78.31,714.78c-1.9-2.16-3.74-4.43-5.49-6.83a92.7,92.7,0,0,1-8.62-14.3c-.42-.85-.82-1.72-1.21-2.59.75,15.05,2.26,26.11,5.42,34.41.11-.11.22-.23.32-.35C71.81,721.71,75,718.16,78.31,714.78Z"/><path class="cls-2" d="M62.11,604.78c0,1.65,0,3.33,0,5q.9-2.29,1.9-4.55Z"/><path class="cls-1" d="M409.33,493.5C356,555.17,350,625,380,656.89c15.47,16.49,40.13,22.45,60.2,19.45,46.24-6.91,86.75-64.13,86.92-143Z"/><circle class="cls-3" cx="345.07" cy="552.79" r="16.93"/><path class="cls-4" d="M90.41,823.34c14-7.56-.56-34.9,19.34-63.63.2-.29.38-.58.59-.88,4.67-6.52,9.44-10.72,13.46-14.39-2.63-.94-5.32-2-8-3.16a115,115,0,0,1-19.11-10.45,77.19,77.19,0,0,0-11.25,9.3C67.2,758.35,59.7,774.34,63.08,787.66c1.46,5.75,5,10.93,10.44,15.37l-2.8,4.87c-6.47-5.26-10.67-11.55-12.49-18.68-4-15.76,4-33.82,23.82-53.66a82.77,82.77,0,0,1,9.71-8.29c-.39-.3-.79-.59-1.18-.9-1.63-1.29-3.24-2.62-4.82-4a94.85,94.85,0,0,1-7.45-7.54c-3.3,3.38-6.5,6.93-9.58,10.34-.1.12-.21.24-.32.35-17.28,19.2-36.78,41.06-29.54,64.94A45.5,45.5,0,0,0,48.42,807C60.76,821.05,80.31,828.8,90.41,823.34Z"/><path class="cls-5" d="M82.05,735.56c-19.8,19.84-27.82,37.9-23.82,53.66,1.82,7.13,6,13.42,12.49,18.68l2.8-4.87c-5.47-4.44-9-9.62-10.44-15.37-3.38-13.32,4.12-29.31,22.31-47.53a77.19,77.19,0,0,1,11.25-9.3c-1.64-1.12-3.27-2.32-4.88-3.56A82.77,82.77,0,0,0,82.05,735.56Z"/><path class="cls-3" d="M72.82,708c1.75,2.4,3.59,4.67,5.49,6.83a94.85,94.85,0,0,0,7.45,7.54c1.58,1.43,3.19,2.76,4.82,4,.39.31.79.6,1.18.9,1.61,1.24,3.24,2.44,4.88,3.56a115,115,0,0,0,19.11,10.45c2.73,1.18,5.42,2.22,8,3.16a138.35,138.35,0,0,0,30.41,7.06,119.7,119.7,0,0,0,12.78.69,125.49,125.49,0,0,0,59.14-15.26l-5.19-9.65c-14.41,7.76-37.48,16.36-65.55,13.32a126.22,126.22,0,0,1-33.19-8.48,104.73,104.73,0,0,1-19.41-10.35q-3-2-5.83-4.32a84.19,84.19,0,0,1-15.23-15.88,82.47,82.47,0,0,1-7.67-12.7c-12.22-25.15-11.49-55,.94-81.28,37.63,6.81,77.76,2.36,87.09-17.87,12.27-26.6-18.67-102.34-74.6-106.5-.94-.07-1.89-.12-2.84-.15C35.84,481.6-2.91,535.41,3.52,564.13,7.74,583,32.91,597.31,62.11,604.78l1.89.48q-1,2.25-1.9,4.55c-10.5,26.57-10.53,55.87.89,81.25.39.87.79,1.74,1.21,2.59A92.7,92.7,0,0,0,72.82,708Z"/></svg>
