<svg id="Layer_1" data-name="Layer 1" xmlns="http://www.w3.org/2000/svg" width="720" height="380" viewBox="0 0 720 380"><defs><style>.cls-1{fill:#644e3b;}.cls-2{fill:#b4a299;}</style></defs><title>assets</title><path class="cls-1" d="M65.51,50.31a77.58,77.58,0,0,1,5.62-23.13c-3.2-4.27-6.94-6.72-10.94-6.72-11.84,0-21.43,21.48-21.43,48,0,2.74.1,5.41.3,8A189.77,189.77,0,0,1,65.51,50.31Z"/><path class="cls-1" d="M85.15,343c6.62,0,12.65-5.39,17.16-14.2a210.59,210.59,0,0,1-41.87-28C62.88,324.9,73,343,85.15,343Z"/><path class="cls-1" d="M362.27,215.05a36.73,36.73,0,0,0,4.75,5c30.67,5.71,71.45,1.86,79-4,10.21-8-43.85-16.94-66.15-36.78a302.93,302.93,0,0,0-21.56,31.1Q360.33,212.58,362.27,215.05Z"/><path class="cls-2" d="M435.5,140.12C763.24,64.55,763.3,31.51,652.58,16.58c-1.47,11-3.71,18-6.22,18s-5-7.67-6.43-19.52c-8.66-1-17.87-1.9-27.55-2.72-2.84,16.53-9,28-16.26,28-7.54,0-14-12.58-16.64-30.39-11.15-.69-22.73-1.3-34.61-1.84-.74,24.85-8.45,44.39-17.86,44.39-9.58,0-17.41-20.28-17.89-45.8-13.68-.45-27.63-.84-41.7-1.18.05,1.46.08,2.94.08,4.43,0,26.68-8.45,48.31-18.88,48.31S429.74,36.58,429.74,9.9c0-1.76,0-3.49.11-5.19-13.05-.23-26.12-.42-39.1-.59a98.72,98.72,0,0,1,.6,10.9c0,26.68-10.31,48.31-23,48.31s-23-21.63-23-48.31a97.79,97.79,0,0,1,.65-11.4l-29.66-.29A80.59,80.59,0,0,1,317.12,15c0,26.68-12.89,48.31-28.8,48.31S259.53,41.7,259.53,15a79.92,79.92,0,0,1,.94-12.28c-13.2-.17-25.74-.36-37.45-.6-.57,25.83-13.23,46.47-28.77,46.47-14.88,0-27.13-18.95-28.63-43.26a224.35,224.35,0,0,0-64.06,21.42c-3.88-8.65-9.23-14-15.13-14S75,18.29,71.13,27.18a77.58,77.58,0,0,0-5.62,23.13A189.77,189.77,0,0,0,39.06,76.48c-23.91,28.86-38,64-38.06,101.41h.32A6.08,6.08,0,0,1,1.47,190a148.61,148.61,0,0,0,3.74,23.34l44.7,12.07-1.17,4.33L6.51,218.36c8.82,31.59,27.81,59.91,53.93,82.43a210.59,210.59,0,0,0,41.87,28l2.48,1.25c1.25,27,12,48.15,25.15,48.15,10.12,0,18.85-12.58,22.89-30.75,18.83,4.6,65.92-7.39,84.94-18.52,52.47-30.72,46.71-23.68,95-74.81,28.31,14.11,90.61,9.94,100.13,2.5,10.18-8-43.49-16.88-65.92-36.58a36.73,36.73,0,0,1-4.75-5q-1.93-2.48-3.95-4.77a302.93,302.93,0,0,1,21.56-31.1C395.46,159.87,413.18,145.27,435.5,140.12ZM173.78,160H126.31a25,25,0,1,1-42,0H47.07v-19.2H173.78Z"/><path class="cls-1" d="M47.07,160H84.3a25,25,0,1,0,42,0h47.47v-19.2H47.07Z"/><path class="cls-1" d="M7.4,184a6.08,6.08,0,0,0-6.08-6.08H1v.31q0,6,.47,11.83A6.08,6.08,0,0,0,7.4,184Z"/><path class="cls-1" d="M49.91,225.44,5.21,213.37c.4,1.67.84,3.34,1.3,5l42.23,11.41Z"/><path class="cls-1" d="M194.25,48.61c15.54,0,28.2-20.64,28.77-46.47L212.17,1.9a237.38,237.38,0,0,0-46.55,3.45C167.12,29.66,179.37,48.61,194.25,48.61Z"/><path class="cls-1" d="M288.32,63.33c15.91,0,28.8-21.63,28.8-48.31a80.59,80.59,0,0,0-.85-11.69c-19.49-.18-38.22-.36-55.8-.59A79.92,79.92,0,0,0,259.53,15C259.53,41.7,272.42,63.33,288.32,63.33Z"/><path class="cls-1" d="M368.31,63.33c12.73,0,23-21.63,23-48.31a98.72,98.72,0,0,0-.6-10.9c-15.12-.19-30.11-.35-44.82-.5a97.79,97.79,0,0,0-.65,11.4C345.28,41.7,355.59,63.33,368.31,63.33Z"/><path class="cls-1" d="M448.62,58.21c10.43,0,18.88-21.63,18.88-48.31,0-1.49,0-3-.08-4.43-12.45-.29-25-.54-37.57-.76-.07,1.7-.11,3.43-.11,5.19C429.74,36.58,438.2,58.21,448.62,58.21Z"/><path class="cls-1" d="M527,52.45c9.41,0,17.12-19.54,17.86-44.39-11.65-.53-23.6-1-35.75-1.41C509.6,32.17,517.43,52.45,527,52.45Z"/><path class="cls-1" d="M596.12,40.29c7.21,0,13.42-11.47,16.26-28-10.46-.89-21.46-1.68-32.9-2.39C582.12,27.71,588.58,40.29,596.12,40.29Z"/><path class="cls-1" d="M646.36,34.53c2.51,0,4.75-7,6.22-18q-6.11-.82-12.65-1.57C641.39,26.86,643.72,34.53,646.36,34.53Z"/></svg>
